{
.appVersion = "3315";
.formatVersion = 3;
DisplayStrings = (
"a|b|c|d|e|n|"
);
axes = (
{
name = Weight;
tag = wght;
}
);
customParameters = (
{
name = fsType;
value = (
);
},
{
name = "Use Typo Metrics";
value = 1;
}
);
date = "2024-07-28 20:29:35 +0000";
familyName = Nigggli;
featurePrefixes = (
{
automatic = 1;
code = "languagesystem DFLT dflt;

languagesystem latn dflt;
languagesystem latn AZE;
languagesystem latn CRT;
languagesystem latn KAZ;
languagesystem latn TAT;
languagesystem latn TRK;
languagesystem latn ROM;
languagesystem latn MOL;
languagesystem latn MAH;
languagesystem latn CAT;
languagesystem latn NLD;
";
name = Languagesystems;
}
);
features = (
{
automatic = 1;
code = "feature locl;
feature ordn;
feature case;
";
tag = aalt;
},
{
automatic = 1;
code = "lookup ccmp_DFLT_1 {
	@CombiningTopAccents = [acutecomb brevecomb caroncomb circumflexcomb commaturnedabovecomb dieresiscomb dotaccentcomb gravecomb hookabovecomb hungarumlautcomb macroncomb ringcomb tildecomb];
	lookupflag UseMarkFilteringSet @CombiningTopAccents;
	sub i' @CombiningTopAccents by idotless;
	sub j' @CombiningTopAccents by jdotless;
} ccmp_DFLT_1;

lookup ccmp_DFLT_2 {
	lookupflag 0;
	sub brevecomb acutecomb by brevecomb_acutecomb;
	sub brevecomb gravecomb by brevecomb_gravecomb;
	sub brevecomb hookabovecomb by brevecomb_hookabovecomb;
	sub brevecomb tildecomb by brevecomb_tildecomb;
	sub circumflexcomb acutecomb by circumflexcomb_acutecomb;
	sub circumflexcomb gravecomb by circumflexcomb_gravecomb;
	sub circumflexcomb hookabovecomb by circumflexcomb_hookabovecomb;
	sub circumflexcomb tildecomb by circumflexcomb_tildecomb;
} ccmp_DFLT_2;
";
tag = ccmp;
},
{
automatic = 1;
code = "script latn;
language AZE;
lookup locl_latn_0 {
	sub i by idotaccent;
} locl_latn_0;
language CRT;
lookup locl_latn_0;
language KAZ;
lookup locl_latn_0;
language TAT;
lookup locl_latn_0;
language TRK;
lookup locl_latn_0;

script latn;
language ROM;
lookup locl_latn_1 {
	sub Scedilla by Scommaaccent;

glyphs = (
{
color = 3;
glyphname = A;
kernLeft = A;
kernRight = A;
lastChange = "2024-08-03 21:40:56 +0000";
layers = (
{
anchors = (
{
name = bottom;
pos = (205,1);
},
{
name = ogonek;
pos = (416,11);
},
{
name = top;
pos = (345,799);
}
);
layerId = m01;
shapes = (
{
closed = 1;
nodes = (
(97,1,l),
(156,147,l),
(306,147,l),
(314,1,l),
(466,1,l),
(436,799,l),
(255,799,l),
(-55,1,l)
);
},
{
closed = 1;
nodes = (
(308,588,l),
(315,271,l),
(191,271,l)
);
}
);
width = 520;
},
{
anchors = (
{
name = bottom;
pos = (221,1);
},
{
name = ogonek;
pos = (450,11);
},
{
name = top;
pos = (362,799);
}
);
background = {
shapes = (
{
closed = 1;
nodes = (
(183,0,l),
(216,146,l),
(366,146,l),
(399,0,l),
(551,0,l),
(381,800,l),
(201,800,l),
(31,0,l)
);
},
{
closed = 1;
nodes = (
(291,588,l),
(353,271,l),
(229,271,l)
);
}
);
};
layerId = m002;
shapes = (
{
closed = 1;
nodes = (
(-19,1,l),
(75,196,l),
(434,196,l),
(461,1,l),
(471,1,l),
(365,799,l),
(355,799,l),
(-29,1,l)
);
},
{
closed = 1;
nodes = (
(356,778,l),
(433,206,l),
(80,206,l)
);
}
);
width = 565;
}
);
unicode = 65;
},
{
color = 0;
glyphname = AE;
lastChange = "2024-08-03 21:10:11 +0000";
layers = (
{
anchors = (
{
name = bottom;
pos = (455,1);
},
{
name = top;
pos = (602,799);
}
);
layerId = m002;
shapes = (
{
closed = 1;
nodes = (
(778,1,l),
(780,11,l),
(457,11,l),
(455,1,l)
);
},
{
closed = 1;
nodes = (
(916,789,l),
(918,799,l),
(595,799,l),
(594,789,l)
);
},
{
closed = 1;
nodes = (
(829,405,l),
(831,415,l),
(528,415,l),
(526,405,l)
);
},
{
closed = 1;
nodes = (
(-27,1,l),
(128,196,l),
(486,196,l),
(452,1,l),
(462,1,l),
(602,799,l),
(591,799,l),
(-37,1,l)
);
},
{
closed = 1;
nodes = (
(589,781,l),
(488,206,l),
(135,206,l)
);
}
);
width = 938;
},
{
anchors = (
{
name = bottom;
pos = (361,1);
},
{
name = top;
pos = (501,799);
}
);
layerId = m01;
shapes = (
{
closed = 1;
nodes = (
(635,1,l),
(659,141,l),
(386,141,l),
(361,1,l)
);
},
{
closed = 1;
nodes = (
(750,659,l),
(775,799,l),
(501,799,l),
(477,659,l)
);
},
{
closed = 1;
nodes = (
(674,340,l),
(699,480,l),
(425,480,l),
(401,340,l)
);
},
{
closed = 1;
nodes = (
(82,1,l),
(170,147,l),
(323,147,l),
(297,1,l),
(444,1,l),
(584,799,l),
(397,799,l),
(-70,1,l)
);
},
{
closed = 1;
nodes = (
(409,588,l),
(353,271,l),
(229,271,l)
);
}
);
width = 745;
}
);
metricLeft = A;
metricRight = E;
unicode = 198;
},
{
color = 3;
glyphname = B;
kernLeft = H;
kernRight = O;
lastChange = "2024-08-03 21:41:03 +0000";
layers = (
{
anchors = (
{
name = bottom;
pos = (201,1);
},
{
name = center;
pos = (107,200);
},
{
name = top;
pos = (342,799);
}
);
layerId = m01;
shapes = (
{
closed = 1;
nodes = (
(262,468,l),
(210,468,l),
(245,664,l),
(287,664,l),
(310,799,l),
(123,799,l),
(-17,1,l),
(180,1,l),
(204,136,l),
(153,138,l),
(190,343,l),
(240,343,l)
);
},
{
closed = 1;
nodes = (
(239,393,l),
(407,393,o),
(498,452,o),
(519,572,cs),
(546,724,o),
(478,799,o),
(310,799,c),
(287,664,l),
(346,664,o),
(370,633,o),
(359,572,cs),
(347,502,o),
(311,468,o),
(252,468,c)
);
},
{
closed = 1;
nodes = (
(303,343,o),
(327,304,o),
(313,223,cs),
(302,165,o),
(266,136,o),
(204,136,c),
(180,1,l),
(351,1,o),
(447,74,o),
(473,223,cs),
(496,354,o),
(424,418,o),
(254,418,c),
(240,343,l)
);
}
);
width = 516;
},
{
anchors = (
{
name = bottom;
pos = (221,1);
},
{
name = center;
pos = (114,200);
},
{
name = top;
pos = (362,799);
}
);
background = {
shapes = (
{
closed = 1;
nodes = (
(285,468,l),
(233,468,l),
(233,665,l),
(275,665,l),
(275,800,l),
(88,800,l),
(88,0,l),
(285,0,l),
(285,135,l),
(234,137,l),
(235,343,l),
(285,343,l)
);
},
{
closed = 1;
nodes = (
(275,393,l),
(442,393,o),
(523,452,o),
(523,572,cs),
(523,725,o),
(442,800,o),
(275,800,c),
(275,665,l),
(334,665,o),
(363,634,o),
(363,572,cs),
(363,502,o),
(334,468,o),
(275,468,c)
);
},
{
closed = 1;
nodes = (
(347,343,o),
(378,304,o),
(378,223,cs),
(378,164,o),
(347,135,o),
(285,135,c),
(285,0,l),
(455,0,o),
(538,73,o),
(538,223,cs),
(538,354,o),
(455,418,o),
(285,418,c),
(285,343,l)
);
}
);
};
layerId = m002;
shapes = (
{
closed = 1;
nodes = (
(267,410,l),
(110,410,l),
(176,789,l),
(324,789,l),
(325,799,l),
(168,799,l),
(28,1,l),
(195,1,l),
(197,11,l),
(39,11,l),
(108,400,l),
(265,400,l)
);
},
{
closed = 1;
nodes = (
(265,400,l),
(433,400,o),
(513,452,o),
(534,572,cs),
(562,731,o),
(500,799,o),
(325,799,c),
(324,789,l),
(491,789,o),
(551,724,o),
(524,572,cs),
(504,459,o),
(428,410,o),
(267,410,c)
);
},
{
closed = 1;
nodes = (
(436,400,o),
(500,347,o),
(478,223,cs),
(452,75,o),
(368,11,o),
(197,11,c),
(195,1,l),
(373,1,o),
(461,68,o),
(488,223,cs),
(511,354,o),
(445,410,o),
(267,410,c),
(265,400,l)
);
}
);
width = 566;
}
);
metricLeft = N;
metricRight = O;
unicode = 66;
},
{
color = 3;
glyphname = C;
kernLeft = O;
kernRight = C;
lastChange = "2024-08-03 21:41:09 +0000";
layers = (
{
anchors = (
{
name = bottom;
pos = (190,1);
},
{
name = top;
pos = (339,799);
}
);
layerId = m01;
shapes = (
{
closed = 1;
nodes = (
(513,564,l),
(542,731,o),
(479,813,o),
(341,813,cs),
(191,813,o),
(84,684,o),
(38,422,cs),
(-13,133,o),
(46,-9,o),
(197,-9,cs),
(333,-9,o),
(425,72,o),
(454,237,c),
(300,237,l),
(288,170,o),
(256,136,o),
(222,136,cs),
(182,136,o),
(170,229,o),
(203,422,cs),
(232,588,o),
(276,668,o),
(316,668,cs),
(350,668,o),
(371,633,o),
(359,564,c)
);
}
);
width = 499;
},
{
anchors = (
{
name = bottom;
pos = (206,1);
},
{
name = top;
pos = (367,799);
}
);
background = {
shapes = (
{
closed = 1;
nodes = (
(502,564,l),
(502,732,o),
(425,814,o),
(287,814,cs),
(137,814,o),
(53,685,o),
(53,422,cs),
(53,132,o),
(137,-10,o),
(287,-10,cs),
(423,-10,o),
(500,71,o),
(500,237,c),
(347,237,l),
(347,169,o),
(321,135,o),
(287,135,cs),
(247,135,o),
(218,229,o),
(218,422,cs),
(218,588,o),
(247,669,o),
(287,669,cs),
(321,669,o),
(348,634,o),
(348,564,c)
);
}
);
};
layerId = m002;
shapes = (
{
closed = 1;
nodes = (
(527,613,l),
(540,744,o),
(478,809,o),
(369,809,cs),
(211,809,o),
(112,681,o),
(66,422,cs),
(15,133,o),
(68,-9,o),
(225,-9,cs),
(333,-9,o),
(417,56,o),
(450,188,c),
(440,188,l),
(408,62,o),
(328,1,o),
(227,1,cs),
(77,1,o),
(27,140,o),
(76,422,cs),
(121,674,o),
(217,799,o),
(367,799,cs),
(469,799,o),
(529,737,o),
(517,613,c)
);
}
);
width = 536;
}
);
metricLeft = O;
metricRight = O;
unicode = 67;
},
{
color = 3;
glyphname = D;
kernLeft = H;
kernRight = O;
lastChange = "2024-08-03 21:41:16 +0000";
layers = (
{
anchors = (
{
name = bottom;
pos = (197,1);
},
{
name = center;
pos = (137,400);
},
{
name = top;
pos = (338,799);
}
);
layerId = m01;
shapes = (
{
closed = 1;
nodes = (
(208,136,l),
(146,136,l),
(239,664,l),
(301,664,l),
(325,799,l),
(117,799,l),
(-23,1,l),
(184,1,l)
);
},
{
closed = 1;
nodes = (
(184,1,l),
(352,1,o),
(457,140,o),
(507,422,cs),
(551,675,o),
(492,799,o),
(325,799,c),
(301,664,l),
(360,664,o),
(375,585,o),
(347,422,cs),
(313,229,o),
(267,136,o),
(208,136,c)
);
}
);
width = 521;
},
{
anchors = (
{
name = bottom;
pos = (225,1);
},
{
name = center;
pos = (150,400);
},
{
name = top;
pos = (366,799);
}
);
background = {
shapes = (
{
closed = 1;
nodes = (
(292,135,l),
(230,135,l),
(230,665,l),
(292,665,l),
(292,800,l),
(85,800,l),
(85,0,l),
(292,0,l)
);
},
{
closed = 1;
nodes = (
(292,0,l),
(459,0,o),
(540,139,o),
(540,422,cs),
(540,676,o),
(459,800,o),
(292,800,c),
(292,665,l),
(351,665,o),
(380,585,o),
(380,422,cs),
(380,229,o),
(351,135,o),
(292,135,c)
);
}
);
};
layerId = m002;
shapes = (
{
closed = 1;
nodes = (
(224,11,l),
(37,11,l),
(173,789,l),
(361,789,l),
(363,799,l),
(165,799,l),
(25,1,l),
(222,1,l)
);
},
{
closed = 1;
nodes = (
(222,1,l),
(383,1,o),
(485,140,o),
(535,422,cs),
(579,675,o),
(523,799,o),
(363,799,c),
(361,789,l),
(514,789,o),
(568,668,o),
(525,422,cs),
(476,146,o),
(378,11,o),
(224,11,c)
);
}
);
width = 581;
}
);
metricLeft = N;
metricRight = O;
unicode = 68;
},
{
color = 3;
glyphname = E;
kernLeft = H;
kernRight = H;
lastChange = "2024-08-03 21:41:24 +0000";
layers = (
{
anchors = (
{
name = bottom;
pos = (160,1);
},
{
name = ogonek;
pos = (332,11);
},
{
name = top;
pos = (300,799);
},
{
name = topleft;
pos = (107,799);
}
);
layerId = m01;
shapes = (
{
closed = 1;
nodes = (
(282,799,l),
(127,799,l),
(-13,1,l),
(142,1,l)
);
},
{
closed = 1;
nodes = (
(332,1,l),
(357,141,l),
(83,141,l),
(59,1,l)
);
},
{
closed = 1;
nodes = (
(448,659,l),
(472,799,l),
(199,799,l),
(174,659,l)
);
},
{
closed = 1;
nodes = (
(372,340,l),
(396,480,l),
(123,480,l),
(98,340,l)
);
}
);
width = 425;
},
{
anchors = (
{
name = bottom;
pos = (191,1);
},
{
name = ogonek;
pos = (395,11);
},
{
name = top;
pos = (331,799);
},
{
name = topleft;
pos = (97,799);
}
);
background = {
shapes = (
{
closed = 1;
nodes = (
(243,800,l),
(88,800,l),
(88,0,l),
(243,0,l)
);
},
{
closed = 1;
nodes = (
(433,0,l),
(433,140,l),
(160,140,l),
(160,0,l)
);
},
{
closed = 1;
nodes = (
(433,660,l),
(433,800,l),
(160,800,l),
(160,660,l)
);
},
{
closed = 1;
nodes = (
(413,340,l),
(413,480,l),
(140,480,l),
(140,340,l)
);
}
);
};
layerId = m002;
shapes = (
{
closed = 1;
nodes = (
(178,799,l),
(168,799,l),
(28,1,l),
(38,1,l)
);
},
{
closed = 1;
nodes = (
(353,1,l),
(355,11,l),
(32,11,l),
(31,1,l)
);
},
{
closed = 1;
nodes = (
(492,789,l),
(493,799,l),
(171,799,l),
(169,789,l)
);
},
{
closed = 1;
nodes = (
(404,405,l),
(406,415,l),
(103,415,l),
(101,405,l)
);
}
);
width = 505;
}
);
metricLeft = N;
metricRight = N;
unicode = 69;
},
{
color = 0;
glyphname = Schwa;
lastChange = "2024-08-03 20:12:28 +0000";
layers = (
{
anchors = (
{
name = bottom;
pos = (217,1);
},
{
name = top;
pos = (349,800);
}
);
layerId = m002;
shapes = (
{
closed = 1;
nodes = (
(232,809,o),
(147,742,o),
(115,619,c),
(125,619,l),
(155,735,o),
(235,799,o),
(349,799,cs),
(501,799,o),
(556,650,o),
(508,380,cs),
(465,137,o),
(361,1,o),
(217,1,cs),
(74,1,o),
(18,138,o),
(62,383,c),
(512,383,l),
(513,393,l),
(53,393,l),
(52,388,o),
(52,386,o),
(51,381,cs),
(7,131,o),
(66,-9,o),
(215,-9,cs),
(366,-9,o),
(474,130,o),
(518,380,cs),
(567,656,o),
(510,809,o),
(351,809,cs)
);
}
);
width = 576;
},
{
anchors = (
{
name = bottom;
pos = (226,1);
},
{
name = top;
pos = (370,799);
}
);
layerId = m01;
shapes = (
{
closed = 1;
nodes = (
(220,811,o),
(120,728,o),
(68,559,c),
(218,559,l),
(242,637,o),
(285,676,o),
(347,676,cs),
(426,676,o),
(446,579,o),
(412,380,cs),
(381,205,o),
(326,121,o),
(245,121,cs),
(164,121,o),
(135,188,o),
(159,325,c),
(456,325,l),
(479,455,l),
(38,455,l),
(31,431,o),
(25,406,o),
(21,380,cs),
(-20,119,o),
(46,-9,o),
(222,-9,cs),
(404,-9,o),
(516,119,o),
(562,380,cs),
(613,669,o),
(550,811,o),
(371,811,cs)
);
}
);
width = 590;
}
);
metricLeft = O;
metricRight = O;
unicode = 399;
},
{
color = 3;
glyphname = F;
kernLeft = H;
kernRight = V;
lastChange = "2024-08-03 21:41:30 +0000";
layers = (
{
anchors = (
{
name = bottom;
pos = (164,1);
},
{
name = top;
pos = (304,799);
}
);
layerId = m01;
shapes = (
{
closed = 1;
nodes = (
(286,799,l),
(131,799,l),
(-9,1,l),
(146,1,l)
);
},
{
closed = 1;
nodes = (
(452,659,l),
(476,799,l),
(203,799,l),
(178,659,l)
);
},
{
closed = 1;
nodes = (
(376,340,l),
(400,480,l),
(127,480,l),
(102,340,l)
);
}
);
width = 425;
},
{
anchors = (
{
name = bottom;
pos = (191,1);
},
{
name = top;
pos = (331,799);
}
);
layerId = m002;
shapes = (
{
closed = 1;
nodes = (
(178,799,l),
(168,799,l),
(28,1,l),
(38,1,l)
);
},
{
closed = 1;
nodes = (
(492,789,l),
(493,799,l),
(171,799,l),
(169,789,l)
);
},
{
closed = 1;
nodes = (
(404,405,l),
(406,415,l),
(103,415,l),
(101,405,l)
);
}
);
width = 505;
}
);
metricLeft = N;
metricRight = N;
unicode = 70;
},
{
color = 3;
glyphname = G;
kernLeft = O;
kernRight = O;
lastChange = "2024-08-03 21:41:37 +0000";
layers = (
{
anchors = (
{
name = bottom;
pos = (212,1);
},
{
name = top;
pos = (352,799);
}
);
layerId = m01;
shapes = (
{
closed = 1;
nodes = (
(551,564,l),
(580,731,o),
(524,813,o),
(371,813,cs),
(196,813,o),
(87,684,o),
(41,422,cs),
(-10,133,o),
(51,-9,o),
(227,-9,cs),
(379,-9,o),
(471,93,o),
(508,300,c),
(371,300,l),
(352,190,o),
(312,136,o),
(252,136,cs),
(188,136,o),
(172,229,o),
(206,422,cs),
(235,588,o),
(282,668,o),
(346,668,cs),
(398,668,o),
(413,633,o),
(400,564,c)
);
},
{
closed = 1;
nodes = (
(508,300,l),
(530,430,l),
(314,430,l),
(291,300,l)
);
}
);
width = 537;
},
{
anchors = (
{
name = bottom;
pos = (228,1);
},
{
name = top;
pos = (368,799);
}
);
background = {
shapes = (
{
closed = 1;
nodes = (
(537,564,l),
(537,732,o),
(467,814,o),
(314,814,cs),
(139,814,o),
(53,685,o),
(53,422,cs),
(53,132,o),
(139,-10,o),
(314,-10,cs),
(466,-10,o),
(540,92,o),
(540,300,c),
(404,300,l),
(404,189,o),
(374,135,o),
(314,135,cs),
(250,135,o),
(218,229,o),
(218,422,cs),
(218,588,o),
(250,669,o),
(314,669,cs),
(366,669,o),
(387,634,o),
(387,564,c)
);
},
{
closed = 1;
nodes = (
(540,300,l),
(540,430,l),
(324,430,l),
(324,300,l)
);
}
);
};
layerId = m002;
shapes = (
{
closed = 1;
nodes = (
(553,613,l),
(570,745,o),
(501,809,o),
(386,809,cs),
(216,809,o),
(112,682,o),
(66,422,cs),
(15,133,o),
(73,-9,o),
(242,-9,cs),
(388,-9,o),
(495,113,o),
(523,360,c),
(513,360,l),
(486,119,o),
(382,1,o),
(244,1,cs),
(82,1,o),
(27,140,o),
(76,422,cs),
(121,675,o),
(222,799,o),
(384,799,cs),
(492,799,o),
(559,738,o),
(543,613,c)
);
},
{
closed = 1;
nodes = (
(523,360,l),
(525,370,l),
(339,370,l),
(337,360,l)
);
}
);
width = 579;
}
);
metricLeft = O;
metricRight = O;
unicode = 71;
},
{
color = 3;
glyphname = H;
kernLeft = H;
kernRight = H;
lastChange = "2024-08-03 21:39:13 +0000";
layers = (
{
anchors = (
{
name = bottom;
pos = (203,1);
},
{
name = center;
pos = (308,600);
},
{
name = top;
pos = (343,799);
},
{
name = topleft;
pos = (102,799);
}
);
layerId = m01;
shapes = (
{
closed = 1;
nodes = (
(143,1,l),
(202,336,l),
(322,336,l),
(263,1,l),
(423,1,l),
(564,799,l),
(403,799,l),
(346,471,l),
(225,471,l),
(283,799,l),
(123,799,l),
(-18,1,l)
);
}
);
width = 520;
},
{
anchors = (
{
name = bottom;
pos = (230,1);
},
{
name = center;
pos = (335,601);
},
{
name = top;
pos = (370,799);
},
{
name = topleft;
pos = (99,799);
}
);
background = {
shapes = (
{
closed = 1;
nodes = (
(240,2,l),
(240,336,l),
(360,336,l),
(360,4,l),
(520,4,l),
(520,800,l),
(360,800,l),
(360,471,l),
(240,471,l),
(240,802,l),
(80,802,l),
(80,2,l)
);
}
);
};
layerId = m002;
shapes = (
{
closed = 1;
nodes = (
(39,1,l),
(109,398,l),
(490,398,l),
(420,1,l),
(430,1,l),
(571,799,l),
(561,799,l),
(492,408,l),
(111,408,l),
(180,799,l),
(170,799,l),
(29,1,l)
);
}
);
width = 580;
}
);
metricLeft = N;
metricRight = N;
unicode = 72;
},
{
color = 3;
glyphname = I;
kernLeft = H;
kernRight = H;
lastChange = "2024-08-03 21:41:47 +0000";
layers = (
{
anchors = (
{
name = bottom;
pos = (48,1);
},
{
name = ogonek;
pos = (144,11);
},
{
name = top;
pos = (188,799);
},
{
name = topleft;
pos = (90,799);
}
);
layerId = m01;
shapes = (
{
closed = 1;
nodes = (
(110,799,l),
(-30,1,l),
(125,1,l),
(265,799,l)
);
}
);
width = 235;
},
{
anchors = (
{
name = bottom;
pos = (53,1);
},
{
name = ogonek;
pos = (63,1);
},
{
name = top;
pos = (193,799);
},
{
name = topleft;
pos = (95,799);
}
);
layerId = m002;
shapes = (
{
closed = 1;
nodes = (
(187,799,l),
(47,1,l),
(57,1,l),
(197,799,l)
);
}
);
width = 235;
}
);
unicode = 73;
},
{
color = 3;
glyphname = J;
kernLeft = H;
kernRight = H;
lastChange = "2024-08-03 21:41:53 +0000";
layers = (
{
anchors = (
{
name = bottom;
pos = (69,1);
},
{
name = top;
pos = (209,799);
}
);
layerId = m01;
shapes = (
{
closed = 1;
nodes = (
(129,799,l),
(-11,1,l),
(149,1,l),
(289,799,l)
);
},
{
closed = 1;
nodes = (
(20,-215,o),
(127,-126,o),
(149,1,c),
(-11,1,l),
(-20,-49,o),
(-51,-85,o),
(-86,-85,c),
(-109,-215,l)
);
}
);
width = 240;
},
{
anchors = (
{
name = bottom;
pos = (72,1);
},
{
name = top;
pos = (212,799);
}
);
layerId = m002;
shapes = (
{
closed = 1;
nodes = (
(207,799,l),
(48,-109,l),
(58,-109,l),
(217,799,l)
);
},
{
closed = 1;
nodes = (
(4,-202,o),
(50,-154,o),
(58,-109,c),
(48,-109,l),
(41,-149,o),
(0,-192,o),
(-44,-207,c),
(-46,-217,l)
);
}
);
width = 240;
}
);
unicode = 74;
},
{
color = 3;
glyphname = K;
kernLeft = H;
kernRight = C;
lastChange = "2024-08-03 21:41:59 +0000";
layers = (
{
anchors = (
{
name = bottom;
pos = (223,1);
},
{
name = top;
pos = (363,799);
}
);
layerId = m01;
shapes = (
{
closed = 1;
nodes = (
(122,799,l),
(-18,1,l),
(138,1,l),
(278,799,l)
);
},
{
closed = 1;
nodes = (
(454,799,l),
(199,429,l),
(370,429,l),
(625,799,l)
);
},
{
closed = 1;
nodes = (
(370,429,l),
(180,429,l),
(314,1,l),
(504,1,l)
);
}
);
width = 561;
},
{
anchors = (
{
name = bottom;
pos = (178,1);
},
{
name = top;
pos = (318,799);
}
);
background = {
shapes = (
{
closed = 1;
nodes = (
(86,800,l),
(86,0,l),
(241,0,l),
(241,800,l)
);
},
{
closed = 1;
nodes = (
(417,800,l),
(227,429,l),
(398,429,l),
(587,800,l)
);
},
{
closed = 1;
nodes = (
(398,429,l),
(208,429,l),
(417,0,l),
(606,0,l)
);
}
);
};
layerId = m002;
shapes = (
{
closed = 1;
nodes = (
(166,799,l),
(26,1,l),
(36,1,l),
(176,799,l)
);
},
{
closed = 1;
nodes = (
(516,799,l),
(102,429,l),
(116,429,l),
(531,799,l)
);
},
{
closed = 1;
nodes = (
(115,429,l),
(102,429,l),
(387,1,l),
(399,1,l)
);
}
);
width = 483;
}
);
metricLeft = N;
unicode = 75;
},
{
color = 3;
glyphname = L;
kernLeft = H;
kernRight = A;
lastChange = "2024-08-03 21:42:04 +0000";
layers = (
{
anchors = (
{
name = bottom;
pos = (143,1);
},
{
name = center;
pos = (213,400);
},
{
name = top;
pos = (283,799);
},
{
name = topright;
pos = (466,799);
}
);
layerId = m01;
shapes = (
{
closed = 1;
nodes = (
(275,799,l),
(120,799,l),
(-20,1,l),
(135,1,l)
);
},
{
closed = 1;
nodes = (
(326,1,l),
(350,141,l),
(4,141,l),
(-20,1,l)
);
}
);
width = 405;
},
{
anchors = (
{
name = bottom;
pos = (140,1);
},
{
name = center;
pos = (210,400);
},
{
name = top;
pos = (280,799);
},
{
name = topright;
pos = (462,799);
}
);
layerId = m002;
shapes = (
{
closed = 1;
nodes = (
(146,799,l),
(136,799,l),
(-4,1,l),
(6,1,l)
);
},
{
closed = 1;
nodes = (
(292,1,l),
(294,11,l),
(-2,11,l),
(-4,1,l)
);
}
);
width = 405;
}
);
unicode = 76;
},
{
color = 3;
glyphname = M;
kernLeft = A;
kernRight = A;
lastChange = "2024-08-03 21:42:16 +0000";
layers = (
{
anchors = (
{
name = bottom;
pos = (287,1);
},
{
name = top;
pos = (427,799);
}
);
layerId = m01;
shapes = (
{
closed = 1;
nodes = (
(-34,1,l),
(107,1,l),
(218,540,l),
(197,540,l),
(222,1,l),
(352,1,l),
(299,799,l),
(138,799,l)
);
},
{
closed = 1;
nodes = (
(221,1,l),
(351,1,l),
(575,540,l),
(554,540,l),
(467,1,l),
(608,1,l),
(726,799,l),
(565,799,l)
);
}
);
width = 690;
},
{
anchors = (
{
name = bottom;
pos = (291,1);
},
{
name = top;
pos = (431,799);
}
);
layerId = m002;
shapes = (
{
closed = 1;
nodes = (
(-39,1,l),
(-29,1,l),
(207,788,l),
(201,788,l),
(287,1,l),
(297,1,l),
(210,799,l),
(200,799,l)
);
},
{
closed = 1;
nodes = (
(287,1,l),
(297,1,l),
(665,788,l),
(659,788,l),
(610,1,l),
(620,1,l),
(670,799,l),
(660,799,l)
);
}
);
width = 723;
}
);
unicode = 77;
},
{
color = 3;
glyphname = N;
kernLeft = H;
kernRight = H;
lastChange = "2024-08-03 21:33:19 +0000";
layers = (
{
anchors = (
{
name = bottom;
pos = (199,1);
},
{
name = top;
pos = (339,799);
}
);
layerId = m01;
shapes = (
{
closed = 1;
nodes = (
(249,799,l),
(119,799,l),
(-22,1,l),
(119,1,l)
);
},
{
closed = 1;
nodes = (
(289,1,l),
(419,1,l),
(560,799,l),
(419,799,l)
);
},
{
closed = 1;
nodes = (
(269,1,l),
(419,1,l),
(264,799,l),
(139,799,l)
);
}
);
width = 520;
},
{
anchors = (
{
name = bottom;
pos = (238,1);
},
{
name = top;
pos = (378,799);
}
);
background = {
shapes = (
{
closed = 1;
nodes = (
(218,802,l),
(88,802,l),
(88,2,l),
(228,2,l)
);
},
{
closed = 1;
nodes = (
(398,4,l),
(528,4,l),
(528,800,l),
(388,800,l)
);
},
{
closed = 1;
nodes = (
(378,4,l),
(528,4,l),
(233,800,l),
(108,800,l)
);
}
);
};
layerId = m002;
shapes = (
{
closed = 1;
nodes = (
(170,799,l),
(160,799,l),
(19,1,l),
(29,1,l)
);
},
{
closed = 1;
nodes = (
(446,1,l),
(456,1,l),
(597,799,l),
(587,799,l)
);
},
{
closed = 1;
nodes = (
(445,1,l),
(456,1,l),
(171,799,l),
(160,799,l)
);
}
);
width = 616;
}
);
unicode = 78;
},
{
color = 3;
glyphname = O;
kernLeft = O;
kernRight = O;
lastChange = "2024-08-03 21:23:44 +0000";
layers = (
{
anchors = (
{
name = bottom;
pos = (207,1);
},
{
name = center;
pos = (277,400);
},
{
name = ogonek;
pos = (421,11);
},
{
name = top;
pos = (347,799);
},
{
name = topleft;
pos = (101,799);
},
{
name = topright;
pos = (592,799);
}
);
layerId = m01;
shapes = (
{
closed = 1;
nodes = (
(366,-9,o),
(468,121,o),
(521,422,cs),
(569,695,o),
(511,813,o),
(348,813,cs),
(188,813,o),
(88,695,o),
(40,422,cs),
(-13,121,o),
(43,-9,o),
(204,-9,cs)
);
},
{
closed = 1;
nodes = (
(184,136,o),
(170,221,o),
(205,422,cs),
(236,595,o),
(278,668,o),
(323,668,cs),
(369,668,o),
(386,595,o),
(356,422,cs),
(320,221,o),
(275,136,o),
(229,136,cs)
);
}
);
width = 530;
},
{
anchors = (
{
name = bottom;
pos = (225,1);
},
{
name = center;
pos = (295,400);
},
{
name = ogonek;
pos = (463,11);
},
{
name = top;
pos = (365,799);
},
{
name = topleft;
pos = (89,799);
},
{
name = topright;
pos = (640,799);
}
);
background = {
shapes = (
{
closed = 1;
nodes = (
(456,-10,o),
(535,120,o),
(535,422,cs),
(535,696,o),
(456,814,o),
(294,814,cs),
(134,814,o),
(55,696,o),
(55,422,cs),
(55,120,o),
(134,-10,o),
(294,-10,cs)
);
},
{
closed = 1;
nodes = (
(249,135,o),
(220,221,o),
(220,422,cs),
(220,595,o),
(249,669,o),
(294,669,cs),
(340,669,o),
(370,595,o),
(370,422,cs),
(370,221,o),
(340,135,o),
(294,135,cs)
);
}
);
};
layerId = m002;
shapes = (
{
closed = 1;
nodes = (
(384,-9,o),
(488,133,o),
(539,422,cs),
(585,684,o),
(529,813,o),
(366,813,cs),
(206,813,o),
(104,684,o),
(58,422,cs),
(7,133,o),
(61,-9,o),
(222,-9,cs)
);
},
{
closed = 1;
nodes = (
(69,1,o),
(18,140,o),
(68,422,cs),
(113,677,o),
(210,803,o),
(364,803,cs),
(520,803,o),
(574,677,o),
(529,422,cs),
(479,140,o),
(379,1,o),
(224,1,cs)
);
}
);
width = 590;
}
);
unicode = 79;
},
{
glyphname = Oslash;
lastChange = "2024-08-03 06:47:39 +0000";
layers = (
{
anchors = (
{
name = bottom;
pos = (300,0);
},
{
name = top;
pos = (300,800);
}
);
layerId = m002;
shapes = (
{
ref = O;
},
{
closed = 1;
nodes = (
(146,0,l),
(157,0,l),
(457,800,l),
(446,800,l)
);
}
);
width = 590;
},
{
anchors = (
{
name = bottom;
pos = (300,0);
},
{
name = top;
pos = (300,800);
}
);
layerId = m01;
shapes = (
{
ref = O;
},
{
closed = 1;
nodes = (
(75,0,l),
(149,0,l),
(449,800,l),
(375,800,l)
);
}
);
width = 530;
}
);
unicode = 216;
},
{
color = 3;
glyphname = P;
kernLeft = H;
kernRight = V;
lastChange = "2024-08-03 21:33:44 +0000";
layers = (
{
anchors = (
{
name = bottom;
pos = (198,1);
},
{
name = top;
pos = (339,799);
}
);
layerId = m01;
shapes = (
{
closed = 1;
nodes = (
(252,435,l),
(209,435,l),
(250,664,l),
(292,664,l),
(315,799,l),
(128,799,l),
(-12,1,l),
(133,1,l),
(188,300,l),
(228,300,l)
);
},
{
closed = 1;
nodes = (
(228,300,l),
(395,300,o),
(492,389,o),
(524,572,cs),
(551,724,o),
(483,799,o),
(315,799,c),
(292,664,l),
(351,664,o),
(375,633,o),
(364,572,cs),
(348,480,o),
(311,435,o),
(252,435,c)
);
}
);
width = 500;
},
{
anchors = (
{
name = bottom;
pos = (180,1);
},
{
name = top;
pos = (320,799);
}
);
background = {
shapes = (
{
closed = 1;
nodes = (
(247,435,l),
(205,435,l),
(205,665,l),
(247,665,l),
(247,800,l),
(60,800,l),
(60,0,l),
(205,0,l),
(207,300,l),
(247,300,l)
);
},
{
closed = 1;
nodes = (
(247,300,l),
(414,300,o),
(495,389,o),
(495,572,cs),
(495,725,o),
(414,800,o),
(247,800,c),
(247,665,l),
(306,665,o),
(335,634,o),
(335,572,cs),
(335,480,o),
(306,435,o),
(247,435,c)
);
}
);
};
layerId = m002;
shapes = (
{
closed = 1;
nodes = (
(222,372,l),
(95,372,l),
(168,789,l),
(296,789,l),
(297,799,l),
(160,799,l),
(20,1,l),
(28,1,l),
(93,362,l),
(221,362,l)
);
},
{
closed = 1;
nodes = (
(221,362,l),
(367,362,o),
(451,431,o),
(476,572,cs),
(503,724,o),
(444,799,o),
(297,799,c),
(296,789,l),
(436,789,o),
(492,717,o),
(466,572,cs),
(443,438,o),
(363,372,o),
(222,372,c)
);
}
);
width = 500;
}
);
metricLeft = N;
metricRight = O;
unicode = 80;
},
{
color = 3;
glyphname = Q;
kernLeft = O;
kernRight = O;
lastChange = "2024-08-03 21:33:59 +0000";
layers = (
{
anchors = (
{
name = bottom;
pos = (204,1);
},
{
name = top;
pos = (344,799);
}
);
layerId = m01;
shapes = (
{
closed = 1;
nodes = (
(364,-9,o),
(466,120,o),
(519,422,cs),
(567,695,o),
(508,813,o),
(346,813,cs),
(185,813,o),
(85,695,o),
(37,422,cs),
(-15,120,o),
(41,-9,o),
(201,-9,cs)
);
},
{
closed = 1;
nodes = (
(182,135,o),
(168,221,o),
(203,422,cs),
(233,594,o),
(275,668,o),
(320,668,cs),
(366,668,o),
(384,594,o),
(353,422,cs),
(318,221,o),
(273,135,o),
(227,135,cs)
);
},
{
closed = 1;
nodes = (
(404,-85,l),
(377,-85,o),
(273,-57,o),
(273,1,c),
(133,1,l),
(146,-143,o),
(247,-215,o),
(381,-215,c)
);
}
);
width = 531;
},
{
anchors = (
{
name = bottom;
pos = (225,1);
},
{
name = top;
pos = (365,799);
}
);
layerId = m002;
shapes = (
{
closed = 1;
nodes = (
(384,-9,o),
(488,132,o),
(539,422,cs),
(585,684,o),
(529,813,o),
(366,813,cs),
(206,813,o),
(104,684,o),
(58,422,cs),
(7,132,o),
(61,-9,o),
(222,-9,cs)
);
},
{
closed = 1;
nodes = (
(69,1,o),
(18,139,o),
(68,422,cs),
(113,677,o),
(210,803,o),
(364,803,cs),
(520,803,o),
(574,677,o),
(529,422,cs),
(480,139,o),
(379,1,o),
(224,1,cs)
);
},
{
closed = 1;
nodes = (
(331,-151,l),
(244,-151,o),
(211,-102,o),
(228,-3,c),
(218,-3,l),
(199,-109,o),
(236,-161,o),
(330,-161,c)
);
}
);
width = 590;
}
);
metricLeft = O;
metricRight = O;
unicode = 81;
},
{
color = 3;
glyphname = R;
kernLeft = H;
kernRight = C;
lastChange = "2024-08-03 21:34:11 +0000";
layers = (
{
anchors = (
{
name = bottom;
pos = (202,1);
},
{
name = top;
pos = (343,799);
}
);
layerId = m01;
shapes = (
{
closed = 1;
nodes = (
(247,435,l),
(204,435,l),
(245,664,l),
(287,664,l),
(310,799,l),
(123,799,l),
(-17,1,l),
(128,1,l),
(183,300,l),
(223,300,l)
);
},
{
closed = 1;
nodes = (
(223,300,l),
(390,300,o),
(487,389,o),
(519,572,cs),
(546,724,o),
(478,799,o),
(310,799,c),
(287,664,l),
(346,664,o),
(370,633,o),
(359,572,cs),
(343,480,o),
(306,435,o),
(247,435,c)
);
},
{
closed = 1;
nodes = (
(279,1,l),
(436,1,l),
(387,409,l),
(230,409,l)
);
}
);
width = 518;
},
{
anchors = (
{
name = bottom;
pos = (191,1);
},
{
name = top;
pos = (332,799);
}
);
background = {
shapes = (
{
closed = 1;
nodes = (
(267,435,l),
(225,435,l),
(225,665,l),
(267,665,l),
(267,800,l),
(80,800,l),
(80,0,l),
(225,0,l),
(227,300,l),
(267,300,l)
);
},
{
closed = 1;
nodes = (
(267,300,l),
(434,300,o),
(515,389,o),
(515,572,cs),
(515,725,o),
(434,800,o),
(267,800,c),
(267,665,l),
(326,665,o),
(355,634,o),
(355,572,cs),
(355,480,o),
(326,435,o),
(267,435,c)
);
},
{
closed = 1;
nodes = (
(375,0,l),
(532,0,l),
(412,409,l),
(255,409,l)
);
}
);
};
layerId = m002;
shapes = (
{
closed = 1;
nodes = (
(221,372,l),
(95,372,l),
(168,789,l),
(295,789,l),
(296,799,l),
(160,799,l),
(20,1,l),
(29,1,l),
(94,362,l),
(220,362,l)
);
},
{
closed = 1;
nodes = (
(220,362,l),
(387,362,o),
(470,425,o),
(496,572,cs),
(524,731,o),
(464,799,o),
(296,799,c),
(295,789,l),
(455,789,o),
(513,724,o),
(486,572,cs),
(462,432,o),
(382,372,o),
(221,372,c)
);
},
{
closed = 1;
nodes = (
(386,1,l),
(397,1,l),
(314,375,l),
(303,375,l)
);
}
);
width = 522;
}
);
metricLeft = N;
metricRight = O;
unicode = 82;
},
{
color = 3;
glyphname = S;
kernLeft = O;
kernRight = C;
lastChange = "2024-08-03 21:34:28 +0000";
layers = (
{
anchors = (
{
name = bottom;
pos = (171,1);
},
{
name = top;
pos = (311,799);
}
);
layerId = m01;
shapes = (
{
closed = 1;
nodes = (
(308,-9,o),
(389,63,o),
(415,210,cs),
(452,425,o),
(198,469,o),
(219,589,cs),
(229,649,o),
(248,679,o),
(279,679,cs),
(320,679,o),
(333,643,o),
(320,569,c),
(474,569,l),
(503,733,o),
(450,814,o),
(312,814,cs),
(174,814,o),
(93,740,o),
(66,589,cs),
(29,374,o),
(284,330,o),
(263,210,cs),
(253,154,o),
(234,126,o),
(202,126,cs),
(158,126,o),
(143,161,o),
(156,230,c),
(5,230,l),
(-23,70,o),
(30,-9,o),
(169,-9,cs)
);
}
);
width = 480;
},
{
anchors = (
{
name = bottom;
pos = (160,1);
},
{
name = top;
pos = (300,799);
}
);
background = {
shapes = (
{
closed = 1;
nodes = (
(369,-10,o),
(437,62,o),
(437,210,cs),
(437,425,o),
(175,469,o),
(175,589,cs),
(175,650,o),
(189,680,o),
(219,680,cs),
(260,680,o),
(280,644,o),
(280,569,c),
(433,569,l),
(433,734,o),
(366,815,o),
(229,815,cs),
(91,815,o),
(23,741,o),
(23,589,cs),
(23,374,o),
(286,330,o),
(286,210,cs),
(286,153,o),
(271,125,o),
(240,125,cs),
(196,125,o),
(175,160,o),
(175,230,c),
(25,230,l),
(25,69,o),
(92,-10,o),
(230,-10,cs)
);
}
);
};
layerId = m002;
shapes = (
{
closed = 1;
nodes = (
(290,-9,o),
(367,57,o),
(390,191,cs),
(429,414,o),
(41,394,o),
(79,608,cs),
(102,740,o),
(174,804,o),
(299,804,cs),
(424,804,o),
(463,740,o),
(450,608,c),
(458,608,l),
(472,746,o),
(431,814,o),
(301,814,cs),
(169,814,o),
(93,746,o),
(69,608,cs),
(29,385,o),
(418,405,o),
(380,191,cs),
(358,63,o),
(286,1,o),
(160,1,cs),
(36,1,o),
(-3,63,o),
(9,191,c),
(-1,191,l),
(-14,57,o),
(27,-9,o),
(158,-9,cs)
);
}
);
width = 460;
}
);
unicode = 83;
},
{
color = 0;
glyphname = Germandbls;
lastChange = "2024-08-03 21:10:11 +0000";
layers = (
{
anchors = (
{
name = bottom;
pos = (185,1);
},
{
name = top;
pos = (334,849);
}
);
layerId = m002;
shapes = (
{
closed = 1;
nodes = (
(71,1,l),
(184,649,l),
(174,649,l),
(61,1,l)
);
},
{
closed = 1;
nodes = (
(179,639,l),
(180,649,l),
(144,649,l),
(143,639,l)
);
},
{
closed = 1;
nodes = (
(184,649,l),
(209,788,l),
(201,799,l),
(174,649,l)
);
},
{
closed = 1;
nodes = (
(292,-17,o),
(397,47,o),
(410,161,cs),
(433,366,o),
(269,292,o),
(293,430,c),
(282,430,l),
(257,285,o),
(422,358,o),
(400,161,cs),
(389,54,o),
(287,-7,o),
(198,1,c),
(196,-9,l)
);
},
{
closed = 1;
nodes = (
(293,430,l),
(323,601,o),
(421,492,o),
(456,689,cs),
(472,781,o),
(417,799,o),
(318,799,c),
(201,799,l),
(209,788,l),
(315,788,l),
(409,788,o),
(461,777,o),
(446,689,cs),
(413,499,o),
(314,608,o),
(282,430,c)
);
}
);
width = 507;
},
{
anchors = (
{
name = bottom;
pos = (231,1);
},
{
name = top;
pos = (371,799);
}
);
layerId = m01;
shapes = (
{
closed = 1;
nodes = (
(141,1,l),
(255,649,l),
(114,649,l),
(0,1,l)
);
},
{
closed = 1;
nodes = (
(227,520,l),
(250,649,l),
(84,649,l),
(61,520,l)
);
},
{
closed = 1;
nodes = (
(255,649,l),
(258,669,l),
(141,799,l),
(114,649,l)
);
},
{
closed = 1;
nodes = (
(381,-9,o),
(475,71,o),
(500,215,cs),
(528,376,o),
(414,324,o),
(426,390,c),
(285,390,l),
(269,297,o),
(378,319,o),
(360,215,cs),
(350,158,o),
(314,126,o),
(260,126,c),
(236,-9,l)
);
},
{
closed = 1;
nodes = (
(426,390,l),
(435,456,o),
(504,449,o),
(532,609,cs),
(554,731,o),
(481,799,o),
(331,799,c),
(141,799,l),
(258,669,l),
(308,669,l),
(368,669,o),
(399,648,o),
(392,609,cs),
(374,506,o),
(302,483,o),
(285,390,c)
);
}
);
width = 557;
}
);
metricRight = O;
unicode = 7838;
},
{
color = 3;
glyphname = T;
kernLeft = V;
kernRight = V;
lastChange = "2024-08-03 21:34:52 +0000";
layers = (
{
anchors = (
{
name = bottom;
pos = (160,1);
},
{
name = center;
pos = (230,400);
},
{
name = top;
pos = (300,799);
}
);
layerId = m01;
shapes = (
{
closed = 1;
nodes = (
(222,799,l),
(82,1,l),
(237,1,l),
(377,799,l)
);
},
{
closed = 1;
nodes = (
(67,659,l),
(207,659,l),
(232,799,l),
(91,799,l)
);
},
{
closed = 1;
nodes = (
(342,659,l),
(483,659,l),
(507,799,l),
(367,799,l)
);
}
);
width = 435;
},
{
anchors = (
{
name = bottom;
pos = (151,1);
},
{
name = center;
pos = (221,400);
},
{
name = top;
pos = (291,799);
}
);
background = {
shapes = (
{
closed = 1;
nodes = (
(143,800,l),
(143,0,l),
(298,0,l),
(298,800,l)
);
},
{
closed = 1;
nodes = (
(13,660,l),
(153,660,l),
(153,800,l),
(13,800,l)
);
},
{
closed = 1;
nodes = (
(288,660,l),
(428,660,l),
(428,800,l),
(288,800,l)
);
}
);
};
layerId = m002;
shapes = (
{
closed = 1;
nodes = (
(285,799,l),
(145,1,l),
(155,1,l),
(295,799,l)
);
},
{
closed = 1;
nodes = (
(100,789,l),
(283,789,l),
(285,799,l),
(102,799,l)
);
},
{
closed = 1;
nodes = (
(293,789,l),
(476,789,l),
(478,799,l),
(295,799,l)
);
}
);
width = 441;
}
);
unicode = 84;
},
{
color = 3;
glyphname = U;
kernLeft = H;
kernRight = H;
lastChange = "2024-08-03 21:42:56 +0000";
layers = (
{
anchors = (
{
name = bottom;
pos = (200,1);
},
{
name = ogonek;
pos = (342,11);
},
{
name = top;
pos = (340,799);
},
{
name = topright;
pos = (581,799);
}
);
layerId = m01;
shapes = (
{
closed = 1;
nodes = (
(346,-9,o),
(434,74,o),
(463,242,c),
(308,242,l),
(295,171,o),
(267,136,o),
(223,136,cs),
(180,136,o),
(165,171,o),
(178,242,c),
(22,242,l),
(-7,74,o),
(50,-9,o),
(198,-9,cs)
);
},
{
closed = 1;
nodes = (
(178,242,l),
(275,799,l),
(120,799,l),
(22,242,l)
);
},
{
closed = 1;
nodes = (
(463,242,l),
(561,799,l),
(406,799,l),
(308,242,l)
);
}
);
width = 521;
},
{
anchors = (
{
name = bottom;
pos = (242,1);
},
{
name = ogonek;
pos = (489,11);
},
{
name = top;
pos = (382,799);
},
{
name = topright;
pos = (668,799);
}
);
background = {
shapes = (
{
closed = 1;
nodes = (
(454,-10,o),
(527,73,o),
(527,242,c),
(87,242,l),
(87,73,o),
(159,-10,o),
(306,-10,cs)
);
},
{
closed = 1;
nodes = (
(263,135,o),
(242,170,o),
(242,242,c),
(372,242,l),
(372,170,o),
(350,135,o),
(306,135,cs)
);
},
{
closed = 1;
nodes = (
(87,800,l),
(87,242,l),
(242,242,l),
(242,800,l)
);
},
{
closed = 1;
nodes = (
(372,800,l),
(372,242,l),
(527,242,l),
(527,800,l)
);
}
);
};
layerId = m002;
shapes = (
{
closed = 1;
nodes = (
(363,-9,o),
(471,74,o),
(500,242,c),
(490,242,l),
(462,80,o),
(359,1,o),
(236,1,cs),
(116,1,o),
(51,81,o),
(79,242,c),
(69,242,l),
(40,74,o),
(107,-9,o),
(235,-9,cs)
);
},
{
closed = 1;
nodes = (
(79,242,l),
(177,799,l),
(167,799,l),
(69,242,l)
);
},
{
closed = 1;
nodes = (
(500,242,l),
(598,799,l),
(588,799,l),
(490,242,l)
);
}
);
width = 611;
}
);
metricLeft = N;
metricRight = N;
unicode = 85;
},
{
color = 3;
glyphname = V;
kernLeft = V;
kernRight = V;
lastChange = "2024-08-03 21:43:03 +0000";
layers = (
{
anchors = (
{
name = bottom;
pos = (203,1);
},
{
name = top;
pos = (343,799);
}
);
layerId = m01;
shapes = (
{
closed = 1;
nodes = (
(234,799,l),
(82,799,l),
(112,1,l),
(293,1,l),
(603,799,l),
(451,799,l),
(240,212,l)
);
}
);
width = 520;
},
{
anchors = (
{
name = bottom;
pos = (182,1);
},
{
name = top;
pos = (322,799);
}
);
layerId = m002;
shapes = (
{
closed = 1;
nodes = (
(113,799,l),
(103,799,l),
(177,1,l),
(187,1,l),
(540,799,l),
(530,799,l),
(185,18,l)
);
}
);
width = 502;
}
);
unicode = 86;
},
{
color = 3;
glyphname = W;
kernLeft = W;
kernRight = W;
lastChange = "2024-08-03 21:43:11 +0000";
layers = (
{
anchors = (
{
name = bottom;
pos = (292,1);
},
{
name = top;
pos = (432,799);
}
);
layerId = m01;
shapes = (
{
closed = 1;
nodes = (
(224,1,l),
(497,799,l),
(367,799,l),
(193,260,l),
(204,260,l),
(231,799,l),
(81,799,l),
(83,1,l)
);
},
{
closed = 1;
nodes = (
(510,1,l),
(783,799,l),
(632,799,l),
(480,260,l),
(491,260,l),
(496,799,l),
(366,799,l),
(370,1,l)
);
}
);
width = 700;
},
{
anchors = (
{
name = bottom;
pos = (316,1);
},
{
name = top;
pos = (456,799);
}
);
layerId = m002;
shapes = (
{
closed = 1;
nodes = (
(131,1,l),
(464,799,l),
(453,799,l),
(127,19,l),
(130,19,l),
(114,799,l),
(104,799,l),
(121,1,l)
);
},
{
closed = 1;
nodes = (
(508,1,l),
(807,799,l),
(797,799,l),
(505,19,l),
(508,19,l),
(464,799,l),
(453,799,l),
(498,1,l)
);
}
);
width = 767;
}
);
unicode = 87;
},
{
color = 3;
glyphname = X;
kernLeft = X;
kernRight = X;
lastChange = "2024-08-03 21:43:17 +0000";
layers = (
{
anchors = (
{
name = bottom;
pos = (213,1);
},
{
name = top;
pos = (353,799);
}
);
background = {
shapes = (
{
closed = 1;
nodes = (
(171,800,l),
(19,800,l),
(202,370,l),
(357,370,l),
(539,800,l),
(387,800,l),
(279,542,l)
);
},
{
closed = 1;
nodes = (
(386,0,l),
(538,0,l),
(355,430,l),
(200,430,l),
(18,0,l),
(170,0,l),
(278,258,l)
);
}
);
};
layerId = m01;
shapes = (
{
closed = 1;
nodes = (
(479,1,l),
(251,799,l),
(88,799,l),
(316,1,l)
);
},
{
closed = 1;
nodes = (
(100,1,l),
(296,315,l),
(308,315,l),
(610,799,l),
(457,799,l),
(277,514,l),
(265,514,l),
(-53,1,l)
);
}
);
width = 530;
},
{
anchors = (
{
name = bottom;
pos = (192,1);
},
{
name = top;
pos = (332,799);
}
);
background = {
shapes = (
{
closed = 1;
nodes = (
(155,800,l),
(3,800,l),
(186,370,l),
(341,370,l),
(523,800,l),
(371,800,l),
(263,542,l)
);
},
{
closed = 1;
nodes = (
(370,0,l),
(522,0,l),
(339,430,l),
(184,430,l),
(2,0,l),
(154,0,l),
(262,258,l)
);
}
);
};
layerId = m002;
shapes = (
{
closed = 1;
nodes = (
(416,1,l),
(121,799,l),
(110,799,l),
(404,1,l)
);
},
{
closed = 1;
nodes = (
(-22,1,l),
(261,397,l),
(263,397,l),
(548,799,l),
(536,799,l),
(262,410,l),
(260,410,l),
(-33,1,l)
);
}
);
width = 517;
}
);
unicode = 88;
},
{
color = 3;
glyphname = Y;
kernLeft = V;
kernRight = V;
lastChange = "2024-08-03 21:36:14 +0000";
layers = (
{
anchors = (
{
name = bottom;
pos = (210,1);
},
{
name = top;
pos = (350,799);
},
{
name = topleft;
pos = (109,799);
}
);
layerId = m01;
shapes = (
{
closed = 1;
nodes = (
(241,799,l),
(89,799,l),
(187,310,l),
(342,310,l),
(610,799,l),
(458,799,l),
(294,482,l)
);
},
{
closed = 1;
nodes = (
(187,310,l),
(132,1,l),
(288,1,l),
(342,310,l)
);
}
);
width = 520;
},
{
anchors = (
{
name = bottom;
pos = (172,1);
},
{
name = top;
pos = (312,799);
},
{
name = topleft;
pos = (89,799);
}
);
layerId = m002;
shapes = (
{
closed = 1;
nodes = (
(113,799,l),
(102,799,l),
(230,360,l),
(240,360,l),
(521,799,l),
(510,799,l),
(237,373,l)
);
},
{
closed = 1;
nodes = (
(230,360,l),
(167,1,l),
(177,1,l),
(240,360,l)
);
}
);
width = 484;
}
);
unicode = 89;
},
{
color = 3;
glyphname = Z;
kernLeft = H;
kernRight = H;
lastChange = "2024-08-03 21:36:25 +0000";
layers = (
{
anchors = (
{
name = bottom;
pos = (164,1);
},
{
name = center;
pos = (234,400);
},
{
name = top;
pos = (304,799);
}
);
layerId = m01;
shapes = (
{
closed = 1;
nodes = (
(359,0,l),
(386,150,l),
(169,150,l),
(478,674,l),
(500,799,l),
(109,799,l),
(82,649,l),
(295,649,l),
(-10,125,l),
(-32,0,l)
);
}
);
width = 440;
},
{
anchors = (
{
name = bottom;
pos = (150,1);
},
{
name = center;
pos = (220,400);
},
{
name = top;
pos = (290,799);
}
);
background = {
shapes = (
{
closed = 1;
nodes = (
(415,-1,l),
(415,149,l),
(199,149,l),
(415,675,l),
(415,800,l),
(25,800,l),
(25,650,l),
(237,650,l),
(25,124,l),
(25,-1,l)
);
}
);
};
layerId = m002;
shapes = (
{
closed = 1;
nodes = (
(335,1,l),
(337,11,l),
(-21,11,l),
(475,794,l),
(475,799,l),
(105,799,l),
(103,789,l),
(461,789,l),
(-35,6,l),
(-35,1,l)
);
}
);
width = 440;
}
);
unicode = 90;
},
{
color = 0;
glyphname = Saltillo;
lastChange = "2024-08-03 20:12:28 +0000";
layers = (
{
layerId = m002;
shapes = (
{
closed = 1;
nodes = (
(128,558,l),
(179,850,l),
(174,850,l),
(123,558,l)
);
}
);
width = 302;
},
{
layerId = m01;
shapes = (
{
closed = 1;
nodes = (
(127,558,l),
(206,850,l),
(102,850,l),
(79,558,l)
);
}
);
width = 257;
}
);
unicode = 42891;
},
{
color = 3;
glyphname = a;
lastChange = "2024-08-03 21:13:14 +0000";
layers = (
{
anchors = (
{
name = bottom;
pos = (182,1);
},
{
name = ogonek;
pos = (372,11);
},
{
name = top;
pos = (313,649);
}
);
background = {
shapes = (
{
closed = 1;
nodes = (
(312,650,l),
(312,212,l),
(312,167,o),
(289,138,o),
(252,138,cs),
(215,138,o),
(192,167,o),
(192,212,cs),
(192,650,l),
(32,650,l),
(32,162,l),
(32,56,o),
(86,-10,o),
(172,-10,cs),
(252,-10,o),
(315,37,o),
(325,109,c),
(318,125,l),
(318,0,l),
(472,0,l),
(472,650,l)
);
}
);
};
layerId = m01;
shapes = (
{
closed = 1;
nodes = (
(182,-9,o),
(225,12,o),
(261,56,c),
(251,1,l),
(377,1,l),
(456,450,ls),
(481,590,o),
(426,659,o),
(290,659,cs),
(153,659,o),
(75,590,o),
(50,450,c),
(181,450,l),
(191,510,o),
(220,534,o),
(268,534,cs),
(304,534,o),
(317,510,o),
(306,450,cs),
(296,391,l),
(117,391,o),
(18,324,o),
(-6,187,cs),
(-29,56,o),
(16,-9,o),
(130,-9,cs)
);
},
{
closed = 1;
nodes = (
(142,114,o),
(126,137,o),
(135,187,cs),
(146,250,o),
(192,281,o),
(277,281,c),
(259,187,ls),
(249,137,o),
(225,114,o),
(184,114,cs)
);
}
);
width = 470;
},
{
anchors = (
{
name = bottom;
pos = (176,1);
},
{
name = ogonek;
pos = (364,11);
},
{
name = top;
pos = (290,649);
}
);
background = {
shapes = (
{
closed = 1;
nodes = (
(232,-10,o),
(271,11,o),
(299,55,c),
(299,0,l),
(424,0,l),
(425,450,ls),
(425,591,o),
(358,660,o),
(222,660,cs),
(86,660,o),
(20,591,o),
(20,450,c),
(150,450,l),
(150,510,o),
(174,540,o),
(222,540,cs),
(258,540,o),
(275,510,o),
(275,450,cs),
(275,391,l),
(97,391,o),
(10,324,o),
(10,187,cs),
(10,55,o),
(66,-10,o),
(180,-10,cs)
);
},
{
closed = 1;
nodes = (
(170,113,o),
(150,137,o),
(150,187,cs),
(150,250,o),
(191,281,o),
(275,281,c),
(274,187,ls),
(273,137,o),
(253,113,o),
(212,113,cs)
);
}
);
};
layerId = m002;
shapes = (
{
closed = 1;
nodes = (
(226,-9,o),
(292,18,o),
(318,61,c),
(307,1,l),
(317,1,l),
(403,480,ls),
(422,590,o),
(379,659,o),
(291,659,cs),
(190,659,o),
(111,590,o),
(97,480,c),
(107,480,l),
(120,583,o),
(196,649,o),
(289,649,cs),
(371,649,o),
(411,583,o),
(392,480,cs),
(369,346,l),
(179,346,o),
(45,273,o),
(25,157,cs),
(7,55,o),
(54,-9,o),
(147,-9,cs)
);
},
{
closed = 1;
nodes = (
(62,1,o),
(18,62,o),
(35,157,cs),
(54,267,o),
(183,336,o),
(367,336,c),
(326,108,ls),
(315,42,o),
(246,1,o),
(149,1,cs)
);
}
);
width = 466;
}
);
metricLeft = o;
metricRight = n;
unicode = 97;
},
{
color = 0;
glyphname = ae;
lastChange = "2024-08-03 20:12:28 +0000";
layers = (
{
anchors = (
{
name = bottom;
pos = (176,1);
},
{
name = ogonek;
pos = (338,11);
},
{
name = top;
pos = (439,649);
}
);
layerId = m002;
shapes = (
{
closed = 1;
nodes = (
(579,-9,o),
(673,42,o),
(701,146,c),
(691,146,l),
(665,49,o),
(577,1,o),
(510,1,cs),
(377,1,o),
(338,113,o),
(378,342,cs),
(414,548,o),
(491,649,o),
(613,649,cs),
(734,649,o),
(775,547,o),
(739,341,c),
(376,341,l),
(374,331,l),
(747,331,l),
(748,335,o),
(748,337,o),
(749,341,cs),
(786,554,o),
(742,659,o),
(615,659,cs),
(487,659,o),
(408,555,o),
(371,342,cs),
(330,107,o),
(367,-9,o),
(506,-9,cs)
);
},
{
closed = 1;
nodes = (
(226,-9,o),
(292,18,o),
(318,61,c),
(327,76,l),
(399,480,ls),
(419,590,o),
(379,659,o),
(290,659,cs),
(190,659,o),
(111,590,o),
(96,480,c),
(106,480,l),
(120,583,o),
(195,649,o),
(289,649,cs),
(371,649,o),
(410,583,o),
(392,480,cs),
(368,341,l),
(177,341,o),
(44,268,o),
(24,152,cs),
(6,50,o),
(54,-9,o),
(147,-9,cs)
);
},
{
closed = 1;
nodes = (
(61,1,o),
(18,62,o),
(35,157,cs),
(54,267,o),
(182,331,o),
(366,331,c),
(325,105,ls),
(314,39,o),
(246,1,o),
(149,1,cs)
);
}
);
width = 800;
},
{
anchors = (
{
name = bottom;
pos = (243,1);
},
{
name = ogonek;
pos = (288,11);
},
{
name = top;
pos = (419,649);
}
);
layerId = m01;
shapes = (
{
closed = 1;
nodes = (
(556,-9,o),
(637,59,o),
(679,196,c),
(532,196,l),
(518,148,o),
(493,125,o),
(456,125,cs),
(402,125,o),
(398,196,o),
(423,342,cs),
(445,468,o),
(473,529,o),
(527,529,cs),
(580,529,o),
(593,484,o),
(577,391,c),
(360,391,l),
(340,281,l),
(700,281,l),
(706,302,o),
(710,322,o),
(714,342,cs),
(747,555,o),
(693,659,o),
(550,659,cs),
(395,659,o),
(360,555,o),
(323,342,cs),
(282,107,o),
(277,-9,o),
(433,-9,cs)
);
},
{
closed = 1;
nodes = (
(178,-9,o),
(221,12,o),
(257,56,c),
(352,170,l),
(402,450,ls),
(428,590,o),
(422,659,o),
(285,659,cs),
(149,659,o),
(71,590,o),
(46,450,c),
(176,450,l),
(187,510,o),
(215,534,o),
(264,534,cs),
(300,534,o),
(312,510,o),
(302,450,cs),
(291,391,l),
(113,391,o),
(14,324,o),
(-10,187,cs),
(-33,56,o),
(12,-9,o),
(126,-9,cs)
);
},
{
closed = 1;
nodes = (
(138,114,o),
(122,137,o),
(130,187,cs),
(141,250,o),
(188,281,o),
(272,281,c),
(255,187,ls),
(245,137,o),
(221,114,o),
(180,114,cs)
);
}
);
width = 725;
}
);
metricRight = e;
unicode = 230;
},
{
color = 3;
glyphname = b;
lastChange = "2024-08-03 21:13:23 +0000";
layers = (
{
anchors = (
{
name = bottom;
pos = (194,1);
},
{
name = center;
pos = (186,679);
},
{
name = top;
pos = (308,649);
}
);
layerId = m01;
shapes = (
{
closed = 1;
nodes = (
(127,849,l),
(-22,1,l),
(129,1,l),
(277,849,l)
);
},
{
closed = 1;
nodes = (
(374,-9,o),
(453,107,o),
(494,342,cs),
(532,556,o),
(492,659,o),
(373,659,cs),
(246,659,o),
(171,556,o),
(133,342,cs),
(92,107,o),
(129,-9,o),
(256,-9,cs)
);
},
{
closed = 1;
nodes = (
(189,116,o),
(172,191,o),
(199,342,cs),
(220,465,o),
(261,525,o),
(301,525,cs),
(341,525,o),
(360,465,o),
(339,342,cs),
(312,191,o),
(269,116,o),
(229,116,cs)
);
}
);
width = 509;
},
{
anchors = (
{
name = bottom;
pos = (213,1);
},
{
name = center;
pos = (197,679);
},
{
name = top;
pos = (327,649);
}
);
background = {
shapes = (
{
closed = 1;
nodes = (
(96,850,l),
(96,0,l),
(246,0,l),
(246,850,l)
);
},
{
closed = 1;
nodes = (
(493,-10,o),
(551,106,o),
(551,342,cs),
(551,556,o),
(493,660,o),
(375,660,cs),
(248,660,o),
(191,556,o),
(191,342,cs),
(191,106,o),
(248,-10,o),
(375,-10,cs)
);
},
{
closed = 1;
nodes = (
(286,115,o),
(256,190,o),
(256,342,cs),
(256,465,o),
(286,525,o),
(326,525,cs),
(366,525,o),
(396,465,o),
(396,342,cs),
(396,190,o),
(366,115,o),
(326,115,cs)
);
}
);
};
layerId = m002;
shapes = (
{
closed = 1;
nodes = (
(181,849,l),
(32,1,l),
(43,1,l),
(191,849,l)
);
},
{
closed = 1;
nodes = (
(368,-9,o),
(447,107,o),
(488,342,cs),
(526,556,o),
(485,659,o),
(364,659,cs),
(219,659,o),
(130,556,o),
(92,342,cs),
(51,107,o),
(102,-9,o),
(246,-9,cs)
);
},
{
closed = 1;
nodes = (
(110,1,o),
(62,113,o),
(102,342,cs),
(139,549,o),
(223,649,o),
(362,649,cs),
(476,649,o),
(515,549,o),
(478,342,cs),
(438,113,o),
(362,1,o),
(248,1,cs)
);
}
);
width = 540;
}
);
metricLeft = n;
metricRight = o;
unicode = 98;
},
{
color = 3;
glyphname = c;
lastChange = "2024-08-03 21:13:31 +0000";
layers = (
{
anchors = (
{
name = bottom;
pos = (170,1);
},
{
name = top;
pos = (284,649);
}
);
layerId = m01;
shapes = (
{
closed = 1;
nodes = (
(457,410,l),
(487,577,o),
(433,659,o),
(293,659,cs),
(143,659,o),
(52,555,o),
(15,344,cs),
(-27,107,o),
(26,-9,o),
(175,-9,cs),
(314,-9,o),
(394,67,o),
(421,220,c),
(268,220,l),
(257,156,o),
(234,125,o),
(199,125,cs),
(157,125,o),
(149,196,o),
(175,342,cs),
(196,465,o),
(227,525,o),
(269,525,cs),
(308,525,o),
(320,487,o),
(307,410,c)
);
}
);
width = 458;
},
{
anchors = (
{
name = bottom;
pos = (182,1);
},
{
name = top;
pos = (296,649);
}
);
background = {
shapes = (
{
closed = 1;
nodes = (
(530,410,l),
(530,578,o),
(462,660,o),
(322,660,cs),
(173,660,o),
(100,556,o),
(100,344,cs),
(100,106,o),
(173,-10,o),
(322,-10,cs),
(460,-10,o),
(527,66,o),
(527,220,c),
(374,220,l),
(374,156,o),
(357,125,o),
(322,125,cs),
(280,125,o),
(260,196,o),
(260,342,cs),
(260,465,o),
(280,525,o),
(322,525,cs),
(361,525,o),
(380,487,o),
(380,410,c)
);
}
);
};
layerId = m002;
shapes = (
{
closed = 1;
nodes = (
(447,460,l),
(462,593,o),
(404,659,o),
(306,659,cs),
(176,659,o),
(95,555,o),
(58,344,cs),
(16,107,o),
(59,-9,o),
(188,-9,cs),
(275,-9,o),
(363,50,o),
(392,170,c),
(382,170,l),
(354,57,o),
(269,1,o),
(190,1,cs),
(68,1,o),
(27,113,o),
(68,342,cs),
(104,548,o),
(182,649,o),
(304,649,cs),
(396,649,o),
(451,587,o),
(437,460,c)
);
}
);
width = 478;
}
);
metricLeft = o;
metricRight = o;
unicode = 99;
},
{
color = 3;
glyphname = d;
lastChange = "2024-08-03 21:24:21 +0000";
layers = (
{
anchors = (
{
name = bottom;
pos = (205,1);
},
{
name = center;
pos = (453,679);
},
{
name = top;
pos = (319,649);
},
{
name = topright;
pos = (549,849);
}
);
layerId = m01;
shapes = (
{
closed = 1;
nodes = (
(270,1,l),
(421,1,l),
(569,849,l),
(419,849,l)
);
},
{
closed = 1;
nodes = (
(267,-9,o),
(344,107,o),
(385,342,cs),
(423,556,o),
(384,659,o),
(257,659,cs),
(138,659,o),
(62,556,o),
(24,342,cs),
(-17,107,o),
(21,-9,o),
(139,-9,cs)
);
},
{
closed = 1;
nodes = (
(172,126,o),
(154,197,o),
(180,342,cs),
(201,465,o),
(242,525,o),
(282,525,cs),
(322,525,o),
(342,465,o),
(320,342,cs),
(295,197,o),
(252,126,o),
(212,126,cs)
);
}
);
width = 511;
},
{
anchors = (
{
name = bottom;
pos = (214,1);
},
{
name = center;
pos = (468,679);
},
{
name = top;
pos = (328,649);
},
{
name = topright;
pos = (553,849);
}
);
layerId = m002;
shapes = (
{
closed = 1;
nodes = (
(385,1,l),
(395,1,l),
(543,849,l),
(533,849,l)
);
},
{
closed = 1;
nodes = (
(322,-9,o),
(413,107,o),
(454,342,cs),
(492,556,o),
(439,659,o),
(295,659,cs),
(173,659,o),
(96,556,o),
(58,342,cs),
(17,107,o),
(56,-9,o),
(177,-9,cs)
);
},
{
closed = 1;
nodes = (
(65,1,o),
(28,113,o),
(68,342,cs),
(105,549,o),
(179,649,o),
(293,649,cs),
(431,649,o),
(481,549,o),
(444,342,cs),
(404,113,o),
(317,1,o),
(179,1,cs)
);
}
);
width = 542;
}
);
metricLeft = o;
metricRight = n;
unicode = 100;
},
{
color = 0;
glyphname = eth;
lastChange = "2024-08-03 21:10:11 +0000";
layers = (
{
anchors = (
{
name = bottom;
pos = (278,1);
},
{
name = top;
pos = (427,849);
}
);
layerId = m002;
shapes = (
{
closed = 1;
nodes = (
(445,475,o),
(388,513,o),
(296,513,c),
(156,513,o),
(75,436,o),
(47,280,cs),
(13,86,o),
(65,-9,o),
(204,-9,cs),
(342,-9,o),
(426,86,o),
(460,280,c),
(450,280,l),
(417,93,o),
(337,1,o),
(206,1,cs),
(73,1,o),
(24,93,o),
(57,280,cs),
(83,429,o),
(161,502,o),
(294,502,cs),
(389,502,o),
(446,461,o),
(466,377,c),
(470,396,l)
);
},
{
closed = 1;
nodes = (
(516,600,o),
(440,775,o),
(227,816,c),
(223,807,l),
(429,768,o),
(503,595,o),
(450,280,c),
(502,280,o),
(408,280,o),
(460,280,cs)
);
},
{
angle = 26.09108;
pos = (408,277);
ref = hyphen;
scale = (1.129,0.8857);
slant = (1.2649,0);
}
);
width = 571;
},
{
anchors = (
{
name = bottom;
pos = (218,1);
},
{
name = top;
pos = (367,849);
}
);
layerId = m01;
shapes = (
{
closed = 1;
nodes = (
(340,518,o),
(311,533,o),
(277,533,c),
(125,533,o),
(35,450,o),
(6,281,cs),
(-29,86,o),
(23,-9,o),
(162,-9,cs),
(300,-9,o),
(384,86,o),
(419,281,c),
(269,281,l),
(248,160,o),
(233,101,o),
(182,101,cs),
(129,101,o),
(134,160,o),
(155,281,cs),
(172,376,o),
(192,423,o),
(258,423,cs),
(297,423,o),
(327,409,o),
(349,381,c),
(366,487,l)
);
},
{
closed = 1;
nodes = (
(475,600,o),
(398,775,o),
(186,816,c),
(149,711,l),
(286,677,o),
(312,535,o),
(269,281,c),
(321,281,o),
(366,281,o),
(419,281,cs)
);
},
{
pos = (232,458);
ref = hyphen;
scale = (0.9557,0.4564);
slant = (-0.1841,27.5602);
}
);
width = 467;
}
);
metricLeft = o;
metricRight = n;
unicode = 240;
},
{
color = 3;
glyphname = e;
lastChange = "2024-08-03 21:24:47 +0000";
layers = (
{
anchors = (
{
name = bottom;
pos = (178,1);
},
{
name = ogonek;
pos = (296,1);
},
{
name = top;
pos = (292,649);
}
);
layerId = m01;
shapes = (
{
closed = 1;
nodes = (
(301,-9,o),
(382,59,o),
(424,196,c),
(277,196,l),
(262,148,o),
(238,125,o),
(201,125,cs),
(147,125,o),
(142,196,o),
(168,342,cs),
(190,468,o),
(218,530,o),
(272,530,cs),
(325,530,o),
(338,484,o),
(322,391,c),
(104,391,l),
(85,281,l),
(445,281,l),
(451,302,o),
(455,322,o),
(459,342,cs),
(492,555,o),
(438,659,o),
(295,659,cs),
(139,659,o),
(55,555,o),
(17,342,cs),
(-24,107,o),
(22,-9,o),
(177,-9,cs)
);
}
);
width = 470;
},
{
anchors = (
{
name = bottom;
pos = (188,1);
},
{
name = ogonek;
pos = (386,11);
},
{
name = top;
pos = (302,649);
}
);
background = {
shapes = (
{
closed = 1;
nodes = (
(444,-10,o),
(513,58,o),
(531,196,c),
(384,196,l),
(378,148,o),
(358,125,o),
(321,125,cs),
(267,125,o),
(250,196,o),
(250,342,cs),
(250,468,o),
(267,530,o),
(321,530,cs),
(374,530,o),
(395,484,o),
(395,391,c),
(178,391,l),
(178,281,l),
(537,281,l),
(539,302,o),
(540,322,o),
(540,342,cs),
(536,556,o),
(464,660,o),
(321,660,cs),
(166,660,o),
(100,556,o),
(100,342,cs),
(100,106,o),
(166,-10,o),
(321,-10,cs)
);
}
);
};
layerId = m002;
shapes = (
{
closed = 1;
nodes = (
(271,-9,o),
(363,42,o),
(390,146,c),
(380,146,l),
(355,49,o),
(266,1,o),
(199,1,cs),
(67,1,o),
(27,113,o),
(68,342,cs),
(104,548,o),
(181,649,o),
(303,649,cs),
(423,649,o),
(464,547,o),
(428,341,c),
(65,341,l),
(64,331,l),
(437,331,l),
(437,335,o),
(438,337,o),
(438,341,cs),
(476,554,o),
(432,659,o),
(305,659,cs),
(176,659,o),
(95,555,o),
(58,342,cs),
(16,107,o),
(59,-9,o),
(197,-9,cs)
);
}
);
width = 491;
}
);
metricLeft = o;
metricRight = o;
unicode = 101;
},
{
color = 0;
glyphname = schwa;
lastChange = "2024-08-03 21:10:05 +0000";
layers = (
{
anchors = (
{
name = bottom;
pos = (244,1);
},
{
name = top;
pos = (358,649);
}
);
layerId = m002;
shapes = (
{
closed = 1;
nodes = (
(220,659,o),
(128,608,o),
(101,504,c),
(111,504,l),
(136,601,o),
(225,649,o),
(292,649,cs),
(424,649,o),
(464,537,o),
(423,308,cs),
(387,102,o),
(310,1,o),
(188,1,cs),
(68,1,o),
(27,103,o),
(63,309,c),
(426,309,l),
(427,319,l),
(54,319,l),
(54,315,o),
(53,313,o),
(53,309,cs),
(15,96,o),
(59,-9,o),
(186,-9,cs),
(315,-9,o),
(396,95,o),
(433,308,cs),
(475,543,o),
(432,659,o),
(294,659,cs)
);
}
);
width = 491;
},
{
anchors = (
{
name = bottom;
pos = (243,1);
},
{
name = top;
pos = (357,649);
}
);
layerId = m01;
shapes = (
{
closed = 1;
nodes = (
(169,659,o),
(88,591,o),
(46,454,c),
(193,454,l),
(208,502,o),
(232,525,o),
(269,525,cs),
(323,525,o),
(328,454,o),
(302,308,cs),
(280,182,o),
(252,120,o),
(198,120,cs),
(145,120,o),
(132,166,o),
(148,259,c),
(366,259,l),
(385,369,l),
(25,369,l),
(19,348,o),
(15,328,o),
(11,308,cs),
(-22,95,o),
(32,-9,o),
(175,-9,cs),
(331,-9,o),
(415,95,o),
(453,308,cs),
(494,543,o),
(448,659,o),
(293,659,cs)
);
}
);
width = 470;
}
);
metricLeft = o;
metricRight = o;
unicode = 601;
},
{
color = 3;
glyphname = f;
lastChange = "2024-08-03 21:25:27 +0000";
layers = (
{
anchors = (
{
name = bottom;
pos = (93,1);
},
{
name = top;
pos = (242,849);
}
);
layerId = m01;
shapes = (
{
closed = 1;
nodes = (
(160,1,l),
(274,649,l),
(123,649,l),
(10,1,l)
);
},
{
closed = 1;
nodes = (
(326,520,l),
(349,649,l),
(63,649,l),
(40,520,l)
);
},
{
closed = 1;
nodes = (
(273,644,l),
(282,694,o),
(299,718,o),
(326,718,c),
(338,718,o),
(350,717,o),
(361,715,c),
(384,850,l),
(361,856,o),
(334,859,o),
(301,859,cs),
(206,859,o),
(148,788,o),
(123,644,c)
);
}
);
width = 285;
},
{
anchors = (
{
name = bottom;
pos = (68,1);
},
{
name = top;
pos = (217,849);
}
);
background = {
shapes = (
{
closed = 1;
nodes = (
(210,0,l),
(210,650,l),
(60,650,l),
(60,0,l)
);
},
{
closed = 1;
nodes = (
(285,520,l),
(285,650,l),
(0,650,l),
(0,520,l)
);
},
{
closed = 1;
nodes = (
(210,645,l),
(210,695,o),
(223,719,o),
(250,719,c),
(262,719,o),
(274,718,o),
(285,716,c),
(285,851,l),
(261,857,o),
(233,860,o),
(200,860,cs),
(106,860,o),
(60,789,o),
(60,645,c)
);
}
);
};
layerId = m002;
shapes = (
{
closed = 1;
nodes = (
(65,1,l),
(179,649,l),
(169,649,l),
(55,1,l)
);
},
{
closed = 1;
nodes = (
(292,639,l),
(294,649,l),
(69,649,l),
(67,639,l)
);
},
{
closed = 1;
nodes = (
(179,649,l),
(202,779,o),
(243,843,o),
(303,843,cs),
(304,843,o),
(325,843,o),
(328,843,c),
(330,853,l),
(328,854,o),
(320,854,o),
(305,854,cs),
(238,854,o),
(193,787,o),
(169,649,c)
);
}
);
width = 285;
}
);
unicode = 102;
},
{
color = 3;
glyphname = g;
lastChange = "2024-08-03 21:25:52 +0000";
layers = (
{
anchors = (
{
name = bottom;
pos = (173,-199);
},
{
name = top;
pos = (322,649);
}
);
layerId = m01;
shapes = (
{
closed = 1;
nodes = (
(263,-32,l),
(255,-78,o),
(228,-100,o),
(181,-100,cs),
(135,-100,o),
(118,-67,o),
(123,-40,c),
(-19,-40,l),
(-37,-144,o),
(20,-215,o),
(161,-215,cs),
(312,-215,o),
(396,-154,o),
(418,-30,cs),
(536,649,l),
(388,649,l)
);
},
{
closed = 1;
nodes = (
(281,1,o),
(368,112,o),
(408,342,cs),
(446,555,o),
(397,659,o),
(259,659,cs),
(141,659,o),
(65,555,o),
(27,342,cs),
(-13,112,o),
(26,1,o),
(144,1,cs)
);
},
{
closed = 1;
nodes = (
(168,125,o),
(157,196,o),
(183,342,cs),
(204,464,o),
(238,524,o),
(285,524,cs),
(332,524,o),
(345,464,o),
(323,342,cs),
(297,196,o),
(262,125,o),
(215,125,cs)
);
}
);
width = 511;
},
{
anchors = (
{
name = bottom;
pos = (179,-199);
},
{
name = top;
pos = (327,649);
}
);
background = {
shapes = (
{
closed = 1;
nodes = (
(384,-33,l),
(384,-79,o),
(361,-101,o),
(314,-101,cs),
(268,-101,o),
(245,-68,o),
(245,-41,c),
(104,-41,l),
(104,-145,o),
(173,-216,o),
(314,-216,cs),
(464,-216,o),
(538,-155,o),
(538,-31,cs),
(537,650,l),
(389,650,l)
);
},
{
closed = 1;
nodes = (
(396,0,o),
(463,112,o),
(463,342,cs),
(463,556,o),
(396,660,o),
(259,660,cs),
(141,660,o),
(83,556,o),
(83,342,cs),
(83,112,o),
(141,0,o),
(259,0,cs)
);
},
{
closed = 1;
nodes = (
(261,125,o),
(238,196,o),
(238,342,cs),
(238,465,o),
(261,525,o),
(308,525,cs),
(355,525,o),
(378,465,o),
(378,342,cs),
(378,196,o),
(355,125,o),
(308,125,cs)
);
}
);
};
layerId = m002;
shapes = (
{
closed = 1;
nodes = (
(378,-31,ls),
(359,-144,o),
(289,-199,o),
(165,-199,cs),
(72,-199,o),
(18,-166,o),
(21,-90,c),
(11,-90,l),
(7,-173,o),
(63,-209,o),
(163,-209,cs),
(293,-209,o),
(367,-151,o),
(388,-31,cs),
(507,649,l),
(497,649,l)
);
},
{
closed = 1;
nodes = (
(318,-9,o),
(412,106,o),
(453,342,cs),
(490,555,o),
(435,659,o),
(305,659,cs),
(170,659,o),
(95,555,o),
(58,342,cs),
(17,106,o),
(52,-9,o),
(188,-9,cs)
);
},
{
closed = 1;
nodes = (
(61,1,o),
(28,112,o),
(68,342,cs),
(104,548,o),
(175,649,o),
(303,649,cs),
(427,649,o),
(479,548,o),
(443,342,cs),
(403,112,o),
(313,1,o),
(190,1,cs)
);
}
);
width = 541;
}
);
metricLeft = o;
metricRight = n;
unicode = 103;
},
{
color = 3;
glyphname = h;
lastChange = "2024-08-03 21:10:11 +0000";
layers = (
{
anchors = (
{
name = bottom;
pos = (202,1);
},
{
name = center;
pos = (191,679);
},
{
name = top;
pos = (209,849);
}
);
background = {
shapes = (
{
closed = 1;
nodes = (
(216,0,l),
(216,438,l),
(216,483,o),
(239,512,o),
(276,512,cs),
(313,512,o),
(336,483,o),
(336,438,cs),
(336,0,l),
(496,0,l),
(496,488,l),
(496,594,o),
(442,660,o),
(356,660,cs),
(276,660,o),
(213,613,o),
(203,541,c),
(210,525,l),
(210,650,l),
(56,650,l),
(56,0,l)
);
}
);
};
layerId = m01;
shapes = (
{
closed = 1;
nodes = (
(142,1,l),
(167,146,o),
(211,394,o),
(219,438,cs),
(227,486,o),
(253,512,o),
(292,512,cs),
(331,512,o),
(347,486,o),
(339,438,cs),
(262,1,l),
(423,1,l),
(449,151,o),
(493,404,o),
(508,489,cs),
(528,599,o),
(488,659,o),
(398,659,cs),
(315,659,o),
(252,617,o),
(224,541,c),
(231,525,l),
(288,849,l),
(131,849,l),
(-18,1,l)
);
}
);
width = 520;
},
{
anchors = (
{
name = bottom;
pos = (222,1);
},
{
name = center;
pos = (201,679);
},
{
name = top;
pos = (371,849);
}
);
background = {
shapes = (
{
closed = 1;
nodes = (
(256,0,l),
(256,145,o),
(256,394,o),
(256,438,cs),
(256,486,o),
(277,512,o),
(316,512,cs),
(355,512,o),
(376,486,o),
(376,438,cs),
(376,0,l),
(536,0,l),
(536,150,o),
(536,404,o),
(536,489,cs),
(536,599,o),
(486,660,o),
(396,660,cs),
(313,660,o),
(258,617,o),
(243,541,c),
(253,525,l),
(253,850,l),
(96,850,l),
(96,0,l)
);
}
);
};
layerId = m002;
shapes = (
{
closed = 1;
nodes = (
(42,1,l),
(68,147,o),
(112,399,o),
(119,438,cs),
(144,580,o),
(218,649,o),
(346,649,cs),
(461,649,o),
(506,589,o),
(484,464,cs),
(403,1,l),
(413,1,l),
(439,152,o),
(481,388,o),
(494,464,cs),
(517,596,o),
(469,659,o),
(348,659,cs),
(225,659,o),
(150,601,o),
(121,479,c),
(122,455,l),
(191,849,l),
(181,849,l),
(32,1,l)
);
}
);
width = 560;
}
);
metricLeft = n;
metricRight = n;
unicode = 104;
},
{
color = 3;
glyphname = i;
lastChange = "2024-08-03 21:26:06 +0000";
layers = (
{
anchors = (
{
name = bottom;
pos = (115,-4);
}
);
layerId = m01;
shapes = (
{
pos = (-1,0);
ref = idotless;
scale = (0.9879,0.9976);
slant = (-0.0521,-0.0488);
},
{
pos = (51,-1);
ref = dotaccentcomb;
scale = (0.9879,0.9976);
slant = (-0.0521,-0.0488);
}
);
width = 237;
},
{
anchors = (
{
name = bottom;
pos = (119,-2);
}
);
background = {
shapes = (
{
closed = 1;
nodes = (
(40,651,l),
(40,0,l),
(200,0,l),
(200,651,l)
);
},
{
closed = 1;
nodes = (
(37,716,l),
(203,716,l),
(203,850,l),
(37,850,l)
);
}
);
};
layerId = m002;
shapes = (
{
ref = idotless;
scale = (1,0.9855);
slant = (-0.1624,0);
},
{
pos = (50,-1);
ref = dotaccentcomb;
scale = (1,0.9855);
slant = (-0.1624,0);
}
);
width = 234;
}
);
unicode = 105;
},
{
color = 0;
glyphname = idotless;
lastChange = "2024-08-03 20:12:28 +0000";
layers = (
{
anchors = (
{
name = bottom;
pos = (55,1);
},
{
name = ogonek;
pos = (55,1);
},
{
name = top;
pos = (169,649);
}
);
layerId = m002;
shapes = (
{
closed = 1;
nodes = (
(169,649,l),
(55,1,l),
(65,1,l),
(179,649,l)
);
}
);
width = 234;
},
{
anchors = (
{
name = bottom;
pos = (69,1);
},
{
name = ogonek;
pos = (73,1);
},
{
name = top;
pos = (179,649);
}
);
layerId = m01;
shapes = (
{
closed = 1;
nodes = (
(97,650,l),
(-17,1,l),
(143,1,l),
(257,650,l)
);
}
);
width = 240;
}
);
unicode = 305;
},
{
color = 0;
glyphname = jdotless;
lastChange = "2024-08-03 21:16:06 +0000";
layers = (
{
anchors = (
{
name = bottom;
pos = (41,-199);
},
{
name = top;
pos = (196,649);
}
);
layerId = m002;
shapes = (
{
closed = 1;
nodes = (
(190,649,l),
(76,1,l),
(86,1,l),
(200,649,l)
);
},
{
closed = 1;
nodes = (
(19,-204,o),
(62,-137,o),
(86,1,c),
(76,1,l),
(53,-130,o),
(14,-194,o),
(-43,-194,c),
(-45,-204,l)
);
}
);
width = 237;
},
{
anchors = (
{
name = bottom;
pos = (10,-199);
},
{
name = top;
pos = (173,649);
}
);
layerId = m01;
shapes = (
{
closed = 1;
nodes = (
(92,650,l),
(-22,1,l),
(138,1,l),
(252,650,l)
);
},
{
closed = 1;
nodes = (
(34,-215,o),
(113,-144,o),
(138,1,c),
(-22,1,l),
(-32,-57,o),
(-50,-85,o),
(-77,-85,c),
(-100,-215,l)
);
}
);
width = 237;
}
);
unicode = 567;
},
{
color = 3;
glyphname = k;
lastChange = "2024-08-03 21:26:18 +0000";
layers = (
{
anchors = (
{
name = bottom;
pos = (215,1);
},
{
name = top;
pos = (364,849);
}
);
layerId = m01;
shapes = (
{
closed = 1;
nodes = (
(134,849,l),
(-15,1,l),
(140,1,l),
(289,849,l)
);
},
{
closed = 1;
nodes = (
(390,649,l),
(187,349,l),
(349,349,l),
(561,649,l)
);
},
{
closed = 1;
nodes = (
(349,349,l),
(158,349,l),
(286,1,l),
(486,1,l)
);
}
);
width = 520;
},
{
anchors = (
{
name = bottom;
pos = (159,1);
},
{
name = top;
pos = (308,849);
}
);
background = {
shapes = (
{
closed = 1;
nodes = (
(40,800,l),
(40,0,l),
(195,0,l),
(195,800,l)
);
},
{
closed = 1;
nodes = (
(331,650,l),
(181,349,l),
(342,349,l),
(501,650,l)
);
},
{
closed = 1;
nodes = (
(342,349,l),
(152,349,l),
(341,0,l),
(540,0,l)
);
}
);
};
layerId = m002;
shapes = (
{
closed = 1;
nodes = (
(147,849,l),
(-4,1,l),
(6,1,l),
(157,849,l)
);
},
{
closed = 1;
nodes = (
(439,649,l),
(60,348,l),
(71,348,l),
(450,649,l)
);
},
{
closed = 1;
nodes = (
(71,348,l),
(60,348,l),
(361,1,l),
(372,1,l)
);
}
);
width = 465;
}
);
unicode = 107;
},
{
color = 3;
glyphname = l;
lastChange = "2024-08-03 21:26:33 +0000";
layers = (
{
anchors = (
{
name = bottom;
pos = (62,1);
},
{
name = center;
pos = (118,325);
},
{
name = top;
pos = (210,849);
},
{
name = topright;
pos = (268,849);
}
);
layerId = m01;
shapes = (
{
closed = 1;
nodes = (
(132,849,l),
(-17,1,l),
(139,1,l),
(288,849,l)
);
}
);
width = 235;
},
{
anchors = (
{
name = bottom;
pos = (44,1);
},
{
name = center;
pos = (100,325);
},
{
name = top;
pos = (192,849);
},
{
name = topright;
pos = (290,849);
}
);
background = {
shapes = (
{
closed = 1;
nodes = (
(40,850,l),
(40,0,l),
(195,0,l),
(195,850,l)
);
}
);
};
layerId = m002;
shapes = (
{
closed = 1;
nodes = (
(186,849,l),
(38,1,l),
(48,1,l),
(196,849,l)
);
}
);
width = 235;
}
);
unicode = 108;
},
{
color = 3;
glyphname = m;
lastChange = "2024-08-03 21:10:11 +0000";
layers = (
{
anchors = (
{
name = bottom;
pos = (344,1);
},
{
name = top;
pos = (457,649);
}
);
layerId = m01;
shapes = (
{
closed = 1;
nodes = (
(143,1,l),
(220,438,l),
(228,486,o),
(254,512,o),
(293,512,cs),
(332,512,o),
(348,486,o),
(340,438,cs),
(263,1,l),
(419,1,l),
(508,510,l),
(524,605,o),
(485,659,o),
(399,659,cs),
(327,659,o),
(269,627,o),
(237,569,c),
(251,649,l),
(96,649,l),
(-17,1,l)
);
},
{
closed = 1;
nodes = (
(704,1,l),
(794,509,l),
(811,605,o),
(770,659,o),
(680,659,cs),
(582,659,o),
(512,614,o),
(483,534,c),
(495,438,l),
(504,486,o),
(531,512,o),
(574,512,cs),
(613,512,o),
(629,486,o),
(621,438,cs),
(544,1,l)
);
}
);
width = 802;
},
{
anchors = (
{
name = bottom;
pos = (374,1);
},
{
name = top;
pos = (487,649);
}
);
background = {
shapes = (
{
closed = 1;
nodes = (
(200,0,l),
(200,145,o),
(200,394,o),
(200,438,cs),
(200,486,o),
(221,512,o),
(260,512,cs),
(299,512,o),
(320,486,o),
(320,438,cs),
(320,0,l),
(475,0,l),
(475,510,l),
(474,606,o),
(426,660,o),
(340,660,cs),
(268,660,o),
(216,628,o),
(194,570,c),
(194,650,l),
(40,650,l),
(40,0,l)
);
},
{
closed = 1;
nodes = (
(475,438,l),
(475,486,o),
(498,512,o),
(540,512,cs),
(579,512,o),
(600,486,o),
(600,438,cs),
(600,0,l),
(760,0,l),
(760,150,o),
(760,424,o),
(760,509,cs),
(760,606,o),
(710,660,o),
(620,660,cs),
(523,660,o),
(461,615,o),
(446,535,c)
);
}
);
};
layerId = m002;
shapes = (
{
closed = 1;
nodes = (
(42,1,l),
(124,470,l),
(145,590,o),
(214,649,o),
(332,649,cs),
(435,649,o),
(476,590,o),
(455,470,cs),
(373,1,l),
(383,1,l),
(465,470,l),
(487,597,o),
(444,659,o),
(334,659,cs),
(236,659,o),
(171,620,o),
(137,540,c),
(156,649,l),
(146,649,l),
(33,1,l)
);
},
{
closed = 1;
nodes = (
(714,1,l),
(797,470,l),
(819,597,o),
(776,659,o),
(666,659,cs),
(566,659,o),
(501,620,o),
(469,541,c),
(456,470,l),
(477,590,o),
(546,649,o),
(664,649,cs),
(767,649,o),
(808,590,o),
(787,470,cs),
(704,1,l)
);
}
);
width = 861;
}
);
metricLeft = n;
metricRight = n;
unicode = 109;
},
{
color = 3;
glyphname = n;
lastChange = "2024-08-03 21:18:42 +0000";
layers = (
{
anchors = (
{
name = bottom;
pos = (203,1);
},
{
name = top;
pos = (317,649);
}
);
background = {
shapes = (
{
closed = 1;
nodes = (
(418,-10,o),
(486,96,o),
(486,342,cs),
(486,565,o),
(418,660,o),
(261,660,cs),
(104,660,o),
(36,565,o),
(36,342,cs),
(36,96,o),
(104,-10,o),
(261,-10,cs)
);
},
{
closed = 1;
nodes = (
(216,125,o),
(196,190,o),
(196,342,cs),
(196,470,o),
(216,525,o),
(261,525,cs),
(306,525,o),
(326,470,o),
(326,342,cs),
(326,190,o),
(306,125,o),
(261,125,cs)
);
}
);
};
layerId = m01;
shapes = (
{
closed = 1;
nodes = (
(143,1,l),
(220,438,l),
(229,488,o),
(253,512,o),
(293,512,cs),
(333,512,o),
(349,488,o),
(340,438,cs),
(264,1,l),
(424,1,l),
(509,488,l),
(530,602,o),
(493,659,o),
(399,659,cs),
(326,659,o),
(270,633,o),
(232,580,c),
(229,525,l),
(251,649,l),
(97,649,l),
(-17,1,l)
);
}
);
width = 520;
},
{
anchors = (
{
name = bottom;
pos = (208,1);
},
{
name = top;
pos = (321,649);
}
);
background = {
shapes = (
{
closed = 1;
nodes = (
(210,0,l),
(210,438,l),
(210,483,o),
(233,512,o),
(270,512,cs),
(307,512,o),
(330,483,o),
(330,438,cs),
(330,0,l),
(490,0,l),
(490,488,l),
(490,594,o),
(436,660,o),
(350,660,cs),
(270,660,o),
(207,613,o),
(197,541,c),
(204,525,l),
(204,650,l),
(50,650,l),
(50,0,l)
);
}
);
};
layerId = m002;
shapes = (
{
closed = 1;
nodes = (
(42,1,l),
(124,470,l),
(146,590,o),
(214,649,o),
(332,649,cs),
(436,649,o),
(476,590,o),
(455,470,cs),
(373,1,l),
(383,1,l),
(465,470,l),
(488,597,o),
(444,659,o),
(334,659,cs),
(238,659,o),
(173,620,o),
(137,541,c),
(133,521,l),
(156,649,l),
(146,649,l),
(32,1,l)
);
}
);
width = 530;
}
);
unicode = 110;
},
{
color = 3;
glyphname = o;
lastChange = "2024-08-03 20:09:40 +0000";
layers = (
{
anchors = (
{
name = bottom;
pos = (183,1);
},
{
name = center;
pos = (240,325);
},
{
name = ogonek;
pos = (377,11);
},
{
name = top;
pos = (297,649);
},
{
name = topright;
pos = (517,649);
}
);
background = {
shapes = (
{
closed = 1;
nodes = (
(180,0,l),
(180,438,l),
(180,483,o),
(203,512,o),
(240,512,cs),
(277,512,o),
(300,483,o),
(300,438,cs),
(300,0,l),
(460,0,l),
(460,488,l),
(460,594,o),
(406,660,o),
(320,660,cs),
(240,660,o),
(177,613,o),
(167,541,c),
(174,525,l),
(174,650,l),
(20,650,l),
(20,0,l)
);
}
);
};
layerId = m01;
shapes = (
{
closed = 1;
nodes = (
(339,-9,o),
(425,97,o),
(469,342,cs),
(508,564,o),
(456,659,o),
(299,659,cs),
(141,659,o),
(57,564,o),
(17,342,cs),
(-26,97,o),
(24,-9,o),
(181,-9,cs)
);
},
{
closed = 1;
nodes = (
(160,125,o),
(151,190,o),
(178,342,cs),
(200,470,o),
(230,525,o),
(275,525,cs),
(320,525,o),
(331,470,o),
(308,342,cs),
(282,190,o),
(250,125,o),
(205,125,cs)
);
}
);
width = 480;
},
{
anchors = (
{
name = bottom;
pos = (183,1);
},
{
name = center;
pos = (240,325);
},
{
name = ogonek;
pos = (377,11);
},
{
name = top;
pos = (297,649);
},
{
name = topright;
pos = (517,649);
}
);
background = {
shapes = (
{
closed = 1;
nodes = (
(397,-10,o),
(465,96,o),
(465,342,cs),
(465,565,o),
(397,660,o),
(240,660,cs),
(83,660,o),
(15,565,o),
(15,342,cs),
(15,96,o),
(83,-10,o),
(240,-10,cs)
);
},
{
closed = 1;
nodes = (
(195,125,o),
(175,190,o),
(175,342,cs),
(175,470,o),
(195,525,o),
(240,525,cs),
(285,525,o),
(305,470,o),
(305,342,cs),
(305,190,o),
(285,125,o),
(240,125,cs)
);
}
);
};
layerId = m002;
shapes = (
{
closed = 1;
nodes = (
(306,-9,o),
(387,107,o),
(428,342,cs),
(466,555,o),
(423,659,o),
(299,659,cs),
(174,659,o),
(95,555,o),
(58,342,cs),
(16,107,o),
(57,-9,o),
(181,-9,cs)
);
},
{
closed = 1;
nodes = (
(66,1,o),
(27,113,o),
(68,342,cs),
(104,548,o),
(180,649,o),
(297,649,cs),
(414,649,o),
(455,548,o),
(418,342,cs),
(378,113,o),
(300,1,o),
(183,1,cs)
);
}
);
width = 480;
}
);
unicode = 111;
},
{
glyphname = oslash;
lastChange = "2024-08-03 06:46:44 +0000";
layers = (
{
anchors = (
{
name = top;
pos = (300,650);
}
);
layerId = m002;
shapes = (
{
ref = o;
},
{
closed = 1;
nodes = (
(89,0,l),
(100,0,l),
(400,650,l),
(389,650,l)
);
}
);
width = 480;
},
{
anchors = (
{
name = top;
pos = (300,650);
}
);
layerId = m01;
shapes = (
{
ref = o;
},
{
closed = 1;
nodes = (
(55,0,l),
(129,0,l),
(429,650,l),
(355,650,l)
);
}
);
width = 480;
}
);
unicode = 248;
},
{
color = 3;
glyphname = p;
lastChange = "2024-08-03 21:26:58 +0000";
layers = (
{
anchors = (
{
name = bottom;
pos = (189,1);
},
{
name = top;
pos = (303,649);
}
);
layerId = m01;
shapes = (
{
closed = 1;
nodes = (
(238,649,l),
(87,649,l),
(-61,-199,l),
(89,-199,l)
);
},
{
closed = 1;
nodes = (
(242,659,o),
(166,555,o),
(129,342,cs),
(87,106,o),
(125,-9,o),
(252,-9,cs),
(370,-9,o),
(448,106,o),
(490,342,cs),
(527,555,o),
(487,659,o),
(370,659,cs)
);
},
{
closed = 1;
nodes = (
(343,524,o),
(356,464,o),
(334,342,cs),
(308,190,o),
(271,115,o),
(224,115,cs),
(184,115,o),
(167,190,o),
(194,342,cs),
(215,464,o),
(256,524,o),
(296,524,cs)
);
}
);
width = 510;
},
{
anchors = (
{
name = bottom;
pos = (213,1);
},
{
name = top;
pos = (327,649);
}
);
layerId = m002;
shapes = (
{
closed = 1;
nodes = (
(156,649,l),
(146,649,l),
(-2,-199,l),
(8,-199,l)
);
},
{
closed = 1;
nodes = (
(215,659,o),
(128,543,o),
(87,308,cs),
(49,94,o),
(98,-9,o),
(236,-9,cs),
(365,-9,o),
(445,94,o),
(483,308,cs),
(524,543,o),
(482,659,o),
(354,659,cs)
);
},
{
closed = 1;
nodes = (
(473,649,o),
(513,537,o),
(473,308,cs),
(436,101,o),
(359,1,o),
(238,1,cs),
(107,1,o),
(60,101,o),
(97,308,cs),
(137,537,o),
(221,649,o),
(352,649,cs)
);
}
);
width = 541;
}
);
metricLeft = n;
metricRight = o;
unicode = 112;
},
{
color = 0;
glyphname = thorn;
lastChange = "2024-08-03 21:10:05 +0000";
layers = (
{
anchors = (
{
name = bottom;
pos = (214,1);
},
{
name = top;
pos = (328,649);
}
);
layerId = m002;
shapes = (
{
closed = 1;
nodes = (
(192,849,l),
(182,849,l),
(-2,-199,l),
(8,-199,l)
);
},
{
closed = 1;
nodes = (
(216,659,o),
(129,543,o),
(87,308,cs),
(50,95,o),
(99,-9,o),
(237,-9,cs),
(366,-9,o),
(446,95,o),
(483,308,cs),
(525,543,o),
(483,659,o),
(355,659,cs)
);
},
{
closed = 1;
nodes = (
(474,649,o),
(514,537,o),
(473,308,cs),
(437,102,o),
(360,1,o),
(239,1,cs),
(108,1,o),
(61,102,o),
(97,308,cs),
(138,537,o),
(221,649,o),
(353,649,cs)
);
}
);
width = 541;
},
{
anchors = (
{
name = bottom;
pos = (244,1);
},
{
name = top;
pos = (393,849);
}
);
layerId = m01;
shapes = (
{
closed = 1;
nodes = (
(282,849,l),
(132,849,l),
(-52,-199,l),
(99,-199,l)
);
},
{
closed = 1;
nodes = (
(252,659,o),
(176,555,o),
(138,342,cs),
(97,107,o),
(135,-9,o),
(262,-9,cs),
(379,-9,o),
(458,107,o),
(499,342,cs),
(537,555,o),
(497,659,o),
(379,659,cs)
);
},
{
closed = 1;
nodes = (
(353,524,o),
(365,465,o),
(344,342,cs),
(317,190,o),
(281,115,o),
(234,115,cs),
(194,115,o),
(177,190,o),
(203,342,cs),
(225,465,o),
(266,524,o),
(306,524,cs)
);
}
);
width = 510;
}
);
metricRight = o;
unicode = 254;
},
{
color = 3;
glyphname = q;
lastChange = "2024-08-03 21:27:07 +0000";
layers = (
{
anchors = (
{
name = bottom;
pos = (204,1);
},
{
name = top;
pos = (318,649);
}
);
layerId = m01;
shapes = (
{
closed = 1;
nodes = (
(390,-199,l),
(539,649,l),
(378,649,l),
(230,-199,l)
);
},
{
closed = 1;
nodes = (
(261,-9,o),
(338,106,o),
(380,342,cs),
(417,555,o),
(378,659,o),
(251,659,cs),
(133,659,o),
(56,555,o),
(19,342,cs),
(-23,106,o),
(15,-9,o),
(133,-9,cs)
);
},
{
closed = 1;
nodes = (
(166,125,o),
(149,196,o),
(174,342,cs),
(196,464,o),
(236,524,o),
(276,524,cs),
(316,524,o),
(336,464,o),
(314,342,cs),
(289,196,o),
(246,125,o),
(206,125,cs)
);
}
);
width = 520;
},
{
anchors = (
{
name = bottom;
pos = (213,1);
},
{
name = top;
pos = (327,649);
}
);
layerId = m002;
shapes = (
{
closed = 1;
nodes = (
(359,-199,l),
(508,649,l),
(497,649,l),
(349,-199,l)
);
},
{
closed = 1;
nodes = (
(321,-9,o),
(410,94,o),
(448,308,cs),
(489,543,o),
(438,659,o),
(294,659,cs),
(172,659,o),
(93,543,o),
(52,308,cs),
(14,94,o),
(55,-9,o),
(176,-9,cs)
);
},
{
closed = 1;
nodes = (
(64,1,o),
(25,101,o),
(62,308,cs),
(102,537,o),
(178,649,o),
(292,649,cs),
(430,649,o),
(478,537,o),
(438,308,cs),
(401,101,o),
(317,1,o),
(178,1,cs)
);
}
);
width = 541;
}
);
metricLeft = o;
metricRight = n;
unicode = 113;
},
{
color = 3;
glyphname = r;
lastChange = "2024-08-03 21:27:18 +0000";
layers = (
{
anchors = (
{
name = bottom;
pos = (57,1);
},
{
name = top;
pos = (230,649);
}
);
layerId = m01;
shapes = (
{
closed = 1;
nodes = (
(143,1,l),
(212,390,l),
(223,454,o),
(263,486,o),
(335,486,cs),
(347,486,o),
(354,485,o),
(358,484,c),
(389,659,l),
(311,659,o),
(254,619,o),
(214,536,c),
(225,525,l),
(247,649,l),
(97,649,l),
(-17,1,l)
);
}
);
width = 343;
},
{
anchors = (
{
name = bottom;
pos = (110,1);
},
{
name = top;
pos = (224,649);
}
);
background = {
shapes = (
{
closed = 1;
nodes = (
(195,0,l),
(195,145,o),
(195,362,o),
(195,390,cs),
(195,454,o),
(230,486,o),
(301,486,cs),
(313,486,o),
(321,485,o),
(325,484,c),
(325,660,l),
(247,660,o),
(197,620,o),
(172,537,c),
(185,525,l),
(185,650,l),
(35,650,l),
(35,0,l)
);
}
);
};
layerId = m002;
shapes = (
{
closed = 1;
nodes = (
(42,1,l),
(107,370,l),
(140,555,o),
(215,654,o),
(331,646,cs),
(333,646,o),
(335,646,o),
(337,646,c),
(339,656,l),
(229,664,o),
(154,586,o),
(115,444,c),
(114,412,l),
(156,649,l),
(146,649,l),
(32,1,l)
);
}
);
width = 336;
}
);
metricLeft = n;
metricRight = o;
unicode = 114;
},
{
color = 3;
glyphname = s;
lastChange = "2024-08-03 21:27:31 +0000";
layers = (
{
anchors = (
{
name = bottom;
pos = (162,1);
},
{
name = top;
pos = (279,649);
}
);
layerId = m01;
shapes = (
{
closed = 1;
nodes = (
(301,-9,o),
(379,53,o),
(401,180,cs),
(437,384,o),
(173,391,o),
(187,470,cs),
(195,517,o),
(216,539,o),
(260,539,cs),
(304,539,o),
(320,510,o),
(309,450,c),
(439,450,l),
(464,590,o),
(412,659,o),
(281,659,cs),
(142,659,o),
(64,597,o),
(42,470,cs),
(6,265,o),
(270,263,o),
(256,180,cs),
(247,133,o),
(227,111,o),
(184,111,cs),
(138,111,o),
(121,140,o),
(132,200,c),
(2,200,l),
(-23,60,o),
(30,-9,o),
(163,-9,cs)
);
}
);
width = 439;
},
{
anchors = (
{
name = bottom;
pos = (158,1);
},
{
name = top;
pos = (272,649);
}
);
layerId = m002;
shapes = (
{
closed = 1;
nodes = (
(267,-9,o),
(330,45,o),
(343,155,cs),
(365,356,o),
(79,322,o),
(97,490,cs),
(107,596,o),
(166,649,o),
(275,649,cs),
(362,649,o),
(387,596,o),
(376,490,c),
(386,490,l),
(398,603,o),
(370,659,o),
(277,659,cs),
(161,659,o),
(97,603,o),
(85,490,cs),
(67,308,o),
(353,348,o),
(333,155,cs),
(321,52,o),
(261,1,o),
(151,1,cs),
(58,1,o),
(29,52,o),
(40,155,c),
(30,155,l),
(17,45,o),
(50,-9,o),
(149,-9,cs)
);
}
);
width = 428;
}
);
metricLeft = o;
metricRight = o;
unicode = 115;
},
{
color = 0;
glyphname = germandbls;
lastChange = "2024-08-03 21:28:59 +0000";
layers = (
{
anchors = (
{
name = bottom;
pos = (180,1);
},
{
name = top;
pos = (329,849);
}
);
layerId = m002;
shapes = (
{
closed = 1;
nodes = (
(66,1,l),
(179,649,l),
(169,649,l),
(56,1,l)
);
},
{
closed = 1;
nodes = (
(173,639,l),
(174,649,l),
(69,649,l),
(67,639,l)
);
},
{
closed = 1;
nodes = (
(179,649,l),
(202,779,o),
(243,843,o),
(344,843,c),
(346,854,l),
(238,854,o),
(194,787,o),
(169,649,c)
);
},
{
closed = 1;
nodes = (
(287,-17,o),
(393,47,o),
(405,161,cs),
(428,366,o),
(280,312,o),
(288,430,c),
(277,430,l),
(267,298,o),
(417,358,o),
(395,161,cs),
(384,54,o),
(282,-7,o),
(193,1,c),
(191,-9,l)
);
},
{
closed = 1;
nodes = (
(288,430,l),
(311,562,o),
(416,492,o),
(451,689,cs),
(471,800,o),
(449,854,o),
(346,854,c),
(344,843,l),
(441,843,o),
(459,792,o),
(441,689,cs),
(408,499,o),
(302,569,o),
(277,430,c)
);
}
);
width = 489;
},
{
anchors = (
{
name = bottom;
pos = (204,1);
},
{
name = top;
pos = (353,849);
}
);
background = {
shapes = (
{
closed = 1;
nodes = (
(205,0,l),
(205,650,l),
(195,650,l),
(195,0,l)
);
},
{
closed = 1;
nodes = (
(200,640,l),
(200,650,l),
(95,650,l),
(95,640,l)
);
},
{
closed = 1;
nodes = (
(205,650,l),
(205,780,o),
(254,844,o),
(355,844,c),
(355,855,l),
(248,855,o),
(195,788,o),
(195,650,c)
);
},
{
closed = 1;
nodes = (
(519,-10,o),
(563,46,o),
(556,160,cs),
(543,366,o),
(404,312,o),
(392,430,c),
(381,430,l),
(394,298,o),
(533,358,o),
(546,160,cs),
(553,53,o),
(512,0,o),
(422,0,cs),
(336,0,o),
(294,51,o),
(294,155,c),
(284,155,l),
(284,44,o),
(329,-10,o),
(422,-10,cs)
);
},
{
closed = 1;
nodes = (
(392,430,l),
(392,562,o),
(509,492,o),
(509,690,cs),
(509,801,o),
(458,855,o),
(355,855,c),
(355,844,l),
(452,844,o),
(499,793,o),
(499,690,cs),
(499,499,o),
(381,569,o),
(381,430,c)
);
}
);
};
layerId = m01;
shapes = (
{
closed = 1;
nodes = (
(151,1,l),
(265,649,l),
(114,649,l),
(1,1,l)
);
},
{
closed = 1;
nodes = (
(237,520,l),
(260,649,l),
(44,649,l),
(21,520,l)
);
},
{
closed = 1;
nodes = (
(265,649,l),
(273,696,o),
(293,719,o),
(327,719,c),
(351,854,l),
(216,854,o),
(139,787,o),
(114,649,c)
);
},
{
closed = 1;
nodes = (
(384,-9,o),
(474,65,o),
(500,216,cs),
(529,376,o),
(421,364,o),
(433,430,c),
(282,430,l),
(266,337,o),
(368,319,o),
(350,216,cs),
(340,156,o),
(306,126,o),
(250,126,c),
(226,-9,l)
);
},
{
closed = 1;
nodes = (
(433,430,l),
(442,496,o),
(511,489,o),
(539,649,cs),
(564,787,o),
(501,854,o),
(351,854,c),
(327,719,l),
(377,719,o),
(397,696,o),
(389,649,cs),
(371,546,o),
(299,523,o),
(282,430,c)
);
}
);
width = 527;
}
);
metricLeft = f;
metricRight = o;
unicode = 223;
},
{
color = 3;
glyphname = t;
lastChange = "2024-08-03 21:27:38 +0000";
layers = (
{
anchors = (
{
name = bottom;
pos = (90,1);
},
{
name = center;
pos = (147,325);
},
{
name = top;
pos = (221,749);
},
{
name = topright;
pos = (369,849);
}
);
layerId = m01;
shapes = (
{
closed = 1;
nodes = (
(8,51,o),
(48,-5,o),
(139,-5,cs),
(181,-5,o),
(219,-2,o),
(230,1,c),
(251,119,l),
(243,117,o),
(221,115,o),
(205,115,cs),
(185,115,o),
(173,135,o),
(180,175,cs),
(281,749,l),
(131,749,l),
(28,166,ls)
);
},
{
closed = 1;
nodes = (
(321,520,l),
(344,649,l),
(53,649,l),
(30,520,l)
);
}
);
width = 300;
},
{
anchors = (
{
name = bottom;
pos = (85,1);
},
{
name = center;
pos = (142,325);
},
{
name = top;
pos = (216,749);
},
{
name = topright;
pos = (364,849);
}
);
background = {
shapes = (
{
closed = 1;
nodes = (
(60,50,o),
(109,-6,o),
(200,-6,cs),
(242,-6,o),
(280,-3,o),
(290,0,c),
(290,118,l),
(283,116,o),
(261,114,o),
(245,114,cs),
(225,114,o),
(210,134,o),
(210,175,cs),
(210,750,l),
(60,750,l),
(60,165,ls)
);
},
{
closed = 1;
nodes = (
(290,520,l),
(290,650,l),
(0,650,l),
(0,520,l)
);
}
);
};
layerId = m002;
shapes = (
{
closed = 1;
nodes = (
(71,32,o),
(89,-9,o),
(144,-9,cs),
(159,-9,o),
(176,-8,o),
(195,-4,c),
(196,6,l),
(178,2,o),
(160,1,o),
(145,1,cs),
(98,1,o),
(82,39,o),
(95,117,cs),
(206,749,l),
(196,749,l),
(85,117,ls)
);
},
{
closed = 1;
nodes = (
(308,639,l),
(309,649,l),
(79,649,l),
(77,639,l)
);
}
);
width = 300;
}
);
unicode = 116;
},
{
color = 3;
glyphname = u;
lastChange = "2024-08-03 21:27:52 +0000";
layers = (
{
anchors = (
{
name = bottom;
pos = (201,1);
},
{
name = ogonek;
pos = (381,11);
},
{
name = top;
pos = (314,649);
},
{
name = topright;
pos = (555,649);
}
);
layerId = m01;
shapes = (
{
closed = 1;
nodes = (
(375,649,l),
(297,206,l),
(286,143,o),
(260,113,o),
(220,113,cs),
(180,113,o),
(166,143,o),
(177,206,cs),
(254,649,l),
(94,649,l),
(16,206,l),
(-9,62,o),
(31,-9,o),
(139,-9,cs),
(231,-9,o),
(286,25,o),
(307,94,c),
(301,116,l),
(281,1,l),
(421,1,l),
(535,649,l)
);
}
);
width = 520;
},
{
anchors = (
{
name = bottom;
pos = (223,1);
},
{
name = ogonek;
pos = (449,11);
},
{
name = top;
pos = (336,649);
},
{
name = topright;
pos = (597,649);
}
);
background = {
shapes = (
{
closed = 1;
nodes = (
(359,650,l),
(359,206,l),
(359,143,o),
(339,112,o),
(299,112,cs),
(259,112,o),
(239,143,o),
(239,206,cs),
(239,650,l),
(79,650,l),
(79,206,l),
(79,61,o),
(132,-10,o),
(239,-10,cs),
(331,-10,o),
(380,24,o),
(389,93,c),
(379,115,l),
(379,0,l),
(519,0,l),
(519,650,l)
);
}
);
};
layerId = m002;
shapes = (
{
closed = 1;
nodes = (
(517,649,l),
(439,206,ls),
(415,69,o),
(344,1,o),
(223,1,c),
(101,1,o),
(54,69,o),
(78,206,cs),
(156,649,l),
(146,649,l),
(68,206,ls),
(43,62,o),
(92,-9,o),
(221,-9,cs),
(319,-9,o),
(386,37,o),
(426,129,c),
(433,172,l),
(403,1,l),
(413,1,l),
(527,649,l)
);
}
);
width = 560;
}
);
metricLeft = n;
metricRight = n;
unicode = 117;
},
{
color = 3;
glyphname = v;
lastChange = "2024-08-03 21:28:00 +0000";
layers = (
{
anchors = (
{
name = bottom;
pos = (155,1);
},
{
name = top;
pos = (269,649);
}
);
layerId = m01;
shapes = (
{
closed = 1;
nodes = (
(220,1,l),
(489,649,l),
(339,649,l),
(179,200,l),
(190,200,l),
(198,649,l),
(48,649,l),
(80,1,l)
);
}
);
width = 440;
},
{
anchors = (
{
name = bottom;
pos = (163,1);
},
{
name = top;
pos = (277,649);
}
);
background = {
shapes = (
{
closed = 1;
nodes = (
(285,0,l),
(440,650,l),
(290,650,l),
(209,200,l),
(220,200,l),
(150,650,l),
(0,650,l),
(145,0,l)
);
}
);
};
layerId = m002;
shapes = (
{
closed = 1;
nodes = (
(165,1,l),
(464,649,l),
(454,649,l),
(159,12,l),
(164,12,l),
(98,649,l),
(88,649,l),
(154,1,l)
);
}
);
width = 440;
}
);
unicode = 118;
},
{
color = 3;
glyphname = w;
lastChange = "2024-08-03 21:18:08 +0000";
layers = (
{
anchors = (
{
name = bottom;
pos = (282,1);
},
{
name = top;
pos = (396,649);
}
);
layerId = m01;
shapes = (
{
closed = 1;
nodes = (
(204,1,l),
(461,649,l),
(331,649,l),
(173,200,l),
(184,200,l),
(195,649,l),
(45,649,l),
(63,1,l)
);
},
{
closed = 1;
nodes = (
(510,1,l),
(747,649,l),
(596,649,l),
(459,200,l),
(470,200,l),
(460,649,l),
(330,649,l),
(370,1,l)
);
}
);
width = 700;
},
{
anchors = (
{
name = bottom;
pos = (293,1);
},
{
name = top;
pos = (407,649);
}
);
background = {
shapes = (
{
closed = 1;
nodes = (
(272,0,l),
(415,650,l),
(285,650,l),
(206,200,l),
(217,200,l),
(150,650,l),
(0,650,l),
(132,0,l)
);
},
{
closed = 1;
nodes = (
(578,0,l),
(700,650,l),
(550,650,l),
(492,200,l),
(503,200,l),
(414,650,l),
(284,650,l),
(438,0,l)
);
}
);
};
layerId = m002;
shapes = (
{
closed = 1;
nodes = (
(118,1,l),
(412,649,l),
(402,649,l),
(116,19,l),
(121,19,l),
(107,649,l),
(97,649,l),
(111,1,l)
);
},
{
closed = 1;
nodes = (
(484,1,l),
(717,649,l),
(707,649,l),
(481,19,l),
(485,19,l),
(412,649,l),
(402,649,l),
(476,1,l)
);
}
);
width = 700;
}
);
unicode = 119;
},
{
color = 3;
glyphname = x;
lastChange = "2024-08-03 21:28:19 +0000";
layers = (
{
anchors = (
{
name = bottom;
pos = (178,1);
},
{
name = top;
pos = (292,649);
}
);
layerId = m01;
shapes = (
{
closed = 1;
nodes = (
(419,1,l),
(214,649,l),
(52,649,l),
(263,1,l)
);
},
{
closed = 1;
nodes = (
(84,1,l),
(250,256,l),
(262,256,l),
(524,649,l),
(372,649,l),
(223,418,l),
(212,418,l),
(-62,1,l)
);
}
);
width = 480;
},
{
anchors = (
{
name = bottom;
pos = (183,1);
},
{
name = top;
pos = (297,649);
}
);
background = {
shapes = (
{
closed = 1;
nodes = (
(480,0,l),
(162,650,l),
(1,650,l),
(325,0,l)
);
},
{
closed = 1;
nodes = (
(146,0,l),
(267,256,l),
(279,256,l),
(472,650,l),
(320,650,l),
(212,418,l),
(201,418,l),
(0,0,l)
);
}
);
};
layerId = m002;
shapes = (
{
closed = 1;
nodes = (
(365,1,l),
(129,649,l),
(117,649,l),
(354,1,l)
);
},
{
closed = 1;
nodes = (
(13,1,l),
(242,324,l),
(243,324,l),
(470,649,l),
(459,649,l),
(239,334,l),
(238,334,l),
(2,1,l)
);
}
);
width = 480;
}
);
unicode = 120;
},
{
color = 3;
glyphname = y;
lastChange = "2024-08-03 21:28:29 +0000";
layers = (
{
anchors = (
{
name = bottom;
pos = (158,1);
},
{
name = top;
pos = (272,649);
}
);
layerId = m01;
shapes = (
{
closed = 1;
nodes = (
(223,1,l),
(492,649,l),
(342,649,l),
(182,200,l),
(193,200,l),
(202,649,l),
(51,649,l),
(83,1,l)
);
},
{
closed = 1;
nodes = (
(34,-215,o),
(160,-143,o),
(223,1,c),
(83,1,l),
(63,-57,o),
(-51,-85,o),
(-78,-85,c),
(-100,-215,l)
);
}
);
width = 440;
},
{
anchors = (
{
name = bottom;
pos = (177,1);
},
{
name = top;
pos = (291,649);
}
);
background = {
shapes = (
{
closed = 1;
nodes = (
(285,0,l),
(440,650,l),
(290,650,l),
(209,200,l),
(220,200,l),
(150,650,l),
(0,650,l),
(145,0,l)
);
},
{
closed = 1;
nodes = (
(134,-216,o),
(247,-144,o),
(285,0,c),
(145,0,l),
(135,-58,o),
(27,-86,o),
(0,-86,c),
(0,-216,l)
);
}
);
};
layerId = m002;
shapes = (
{
closed = 1;
nodes = (
(177,1,l),
(468,649,l),
(458,649,l),
(176,21,l),
(175,25,l),
(123,649,l),
(113,649,l),
(167,1,l)
);
},
{
closed = 1;
nodes = (
(50,-167,o),
(123,-106,o),
(177,1,c),
(167,1,l),
(113,-100,o),
(44,-157,o),
(-40,-149,c),
(-41,-159,l)
);
}
);
width = 440;
}
);
unicode = 121;
},
{
color = 3;
glyphname = z;
lastChange = "2024-08-03 21:28:40 +0000";
layers = (
{
anchors = (
{
name = bottom;
pos = (142,1);
},
{
name = center;
pos = (199,325);
},
{
name = top;
pos = (256,649);
}
);
layerId = m01;
shapes = (
{
closed = 1;
nodes = (
(318,1,l),
(344,150,l),
(160,150,l),
(409,525,l),
(431,649,l),
(80,649,l),
(54,500,l),
(236,500,l),
(-11,125,l),
(-33,1,l)
);
}
);
width = 400;
},
{
anchors = (
{
name = bottom;
pos = (143,1);
},
{
name = center;
pos = (200,325);
},
{
name = top;
pos = (257,649);
}
);
background = {
shapes = (
{
closed = 1;
nodes = (
(375,-1,l),
(375,149,l),
(189,149,l),
(375,530,l),
(375,655,l),
(25,655,l),
(25,505,l),
(207,505,l),
(25,124,l),
(25,-1,l)
);
}
);
};
layerId = m002;
shapes = (
{
closed = 1;
nodes = (
(298,1,l),
(300,11,l),
(2,11,l),
(411,644,l),
(412,649,l),
(102,649,l),
(100,639,l),
(398,639,l),
(-11,6,l),
(-12,1,l)
);
}
);
width = 400;
}
);
unicode = 122;
},
{
color = 1;
glyphname = zero;
lastChange = "2024-08-03 21:21:13 +0000";
layers = (
{
layerId = m01;
shapes = (
{
closed = 1;
nodes = (
(320,-9,o),
(399,118,o),
(450,412,cs),
(499,692,o),
(465,813,o),
(309,813,cs),
(156,813,o),
(78,692,o),
(29,412,cs),
(-22,118,o),
(11,-9,o),
(165,-9,cs)
);
},
{
closed = 1;
nodes = (
(150,126,o),
(156,218,o),
(190,412,cs),
(221,592,o),
(247,678,o),
(286,678,cs),
(325,678,o),
(321,592,o),
(290,412,cs),
(256,218,o),
(228,126,o),
(188,126,cs)
);
}
);
width = 450;
},
{
layerId = m002;
shapes = (
{
closed = 1;
nodes = (
(331,-9,o),
(367,154,o),
(413,412,cs),
(455,655,o),
(474,809,o),
(301,809,cs),
(129,809,o),
(84,655,o),
(42,412,cs),
(-4,154,o),
(-14,-9,o),
(157,-9,cs)
);
},
{
closed = 1;
nodes = (
(-6,1,o),
(7,160,o),
(52,412,cs),
(93,649,o),
(134,799,o),
(299,799,cs),
(465,799,o),
(444,649,o),
(403,412,cs),
(358,160,o),
(325,1,o),
(159,1,cs)
);
}
);
width = 450;
}
);
unicode = 48;
},
{
color = 1;
glyphname = one;
lastChange = "2024-08-03 21:44:24 +0000";
layers = (
{
layerId = m01;
shapes = (
{
closed = 1;
nodes = (
(37,1,l),
(192,1,l),
(332,799,l),
(177,799,l)
);
},
{
closed = 1;
nodes = (
(87,799,l),
(66,679,l),
(239,679,l),
(260,799,l)
);
}
);
width = 320;
},
{
layerId = m002;
shapes = (
{
closed = 1;
nodes = (
(94,1,l),
(104,1,l),
(244,799,l),
(234,799,l)
);
},
{
closed = 1;
nodes = (
(104,799,l),
(102,789,l),
(234,789,l),
(236,799,l)
);
}
);
width = 306;
}
);
unicode = 49;
},
{
color = 1;
glyphname = two;
lastChange = "2024-08-03 21:44:37 +0000";
layers = (
{
layerId = m01;
shapes = (
{
closed = 1;
nodes = (
(371,1,l),
(395,141,l),
(-3,141,l),
(-27,1,l)
);
},
{
closed = 1;
nodes = (
(184,814,o),
(103,735,o),
(75,575,c),
(226,575,l),
(238,644,o),
(269,679,o),
(299,679,cs),
(330,679,o),
(351,651,o),
(341,595,cs),
(308,405,o),
(29,325,o),
(-6,121,c),
(136,121,l),
(157,240,o),
(449,350,o),
(492,595,cs),
(518,742,o),
(462,814,o),
(323,814,cs)
);
}
);
width = 460;
},
{
layerId = m002;
shapes = (
{
closed = 1;
nodes = (
(388,1,l),
(390,11,l),
(-18,11,l),
(-20,1,l)
);
},
{
closed = 1;
nodes = (
(221,809,o),
(146,743,o),
(101,609,c),
(111,609,l),
(155,737,o),
(226,799,o),
(328,799,cs),
(454,799,o),
(504,737,o),
(482,609,cs),
(451,435,o),
(-4,155,o),
(-18,11,c),
(-8,11,l),
(6,153,o),
(460,429,o),
(492,609,cs),
(515,743,o),
(462,809,o),
(329,809,cs)
);
}
);
width = 480;
}
);
unicode = 50;
},
{
color = 1;
glyphname = three;
lastChange = "2024-08-03 21:44:42 +0000";
layers = (
{
layerId = m01;
shapes = (
{
closed = 1;
nodes = (
(310,-9,o),
(391,63,o),
(417,210,cs),
(447,383,o),
(346,423,o),
(175,423,c),
(163,353,l),
(231,353,o),
(283,303,o),
(266,210,cs),
(256,154,o),
(232,126,o),
(194,126,cs),
(157,126,o),
(145,161,o),
(158,230,c),
(7,230,l),
(-21,70,o),
(32,-9,o),
(171,-9,cs)
);
},
{
closed = 1;
nodes = (
(339,382,o),
(444,422,o),
(474,595,cs),
(500,742,o),
(455,814,o),
(315,814,cs),
(177,814,o),
(106,735,o),
(78,575,c),
(228,575,l),
(240,644,o),
(255,679,o),
(292,679,cs),
(330,679,o),
(334,651,o),
(324,595,cs),
(308,502,o),
(249,452,o),
(180,452,c),
(168,382,l)
);
}
);
width = 470;
},
{
background = {
shapes = (
{
closed = 1;
nodes = (
(393,-10,o),
(461,62,o),
(461,210,cs),
(461,383,o),
(353,423,o),
(183,423,c),
(183,353,l),
(251,353,o),
(311,303,o),
(311,210,cs),
(311,153,o),
(292,125,o),
(254,125,cs),
(217,125,o),
(199,160,o),
(199,230,c),
(49,230,l),
(49,69,o),
(116,-10,o),
(254,-10,cs)
);
},
{
closed = 1;
nodes = (
(353,382,o),
(451,422,o),
(451,595,cs),
(451,743,o),
(393,815,o),
(254,815,cs),
(116,815,o),
(59,736,o),
(59,575,c),
(209,575,l),
(209,645,o),
(217,680,o),
(254,680,cs),
(292,680,o),
(301,652,o),
(301,595,cs),
(301,502,o),
(251,452,o),
(183,452,c),
(183,382,l)
);
}
);
};
layerId = m002;
shapes = (
{
closed = 1;
nodes = (
(309,-9,o),
(393,70,o),
(418,210,cs),
(442,348,o),
(377,422,o),
(236,422,c),
(235,414,l),
(369,414,o),
(431,341,o),
(408,210,cs),
(384,76,o),
(304,1,o),
(184,1,cs),
(80,1,o),
(24,69,o),
(31,191,c),
(21,191,l),
(13,62,o),
(72,-9,o),
(182,-9,cs)
);
},
{
closed = 1;
nodes = (
(370,416,o),
(455,479,o),
(475,595,cs),
(500,735,o),
(447,814,o),
(326,814,cs),
(223,814,o),
(132,743,o),
(106,614,c),
(116,614,l),
(141,736,o),
(228,804,o),
(324,804,cs),
(439,804,o),
(489,729,o),
(465,595,cs),
(446,485,o),
(364,424,o),
(237,424,c),
(235,416,l)
);
}
);
width = 498;
}
);
unicode = 51;
},
{
color = 1;
glyphname = four;
lastChange = "2024-08-03 21:44:46 +0000";
layers = (
{
layerId = m01;
shapes = (
{
closed = 1;
nodes = (
(178,1,l),
(318,1,l),
(458,799,l),
(318,799,l)
);
},
{
closed = 1;
nodes = (
(26,337,l),
(2,198,l),
(428,198,l),
(452,337,l)
);
},
{
closed = 1;
nodes = (
(318,799,l),
(26,337,l),
(114,337,l),
(406,799,l)
);
}
);
width = 480;
},
{
background = {
shapes = (
{
closed = 1;
nodes = (
(268,0,l),
(408,0,l),
(408,800,l),
(268,800,l)
);
},
{
closed = 1;
nodes = (
(58,337,l),
(58,217,l),
(483,217,l),
(483,337,l)
);
},
{
closed = 1;
nodes = (
(268,800,l),
(58,337,l),
(146,337,l),
(356,800,l)
);
}
);
};
layerId = m002;
shapes = (
{
closed = 1;
nodes = (
(304,1,l),
(314,1,l),
(454,799,l),
(444,799,l)
);
},
{
closed = 1;
nodes = (
(10,248,l),
(8,238,l),
(445,238,l),
(446,248,l)
);
},
{
closed = 1;
nodes = (
(444,799,l),
(10,248,l),
(21,248,l),
(455,799,l)
);
}
);
width = 491;
}
);
unicode = 52;
},
{
color = 1;
glyphname = five;
lastChange = "2024-08-03 21:44:51 +0000";
layers = (
{
layerId = m01;
shapes = (
{
closed = 1;
nodes = (
(467,659,l),
(492,799,l),
(124,799,l),
(100,659,l)
);
},
{
closed = 1;
nodes = (
(177,335,l),
(186,384,o),
(211,408,o),
(253,408,cs),
(291,408,o),
(303,366,o),
(288,280,cs),
(269,177,o),
(241,126,o),
(203,126,cs),
(166,126,o),
(154,161,o),
(167,230,c),
(16,230,l),
(-12,70,o),
(41,-9,o),
(180,-9,cs),
(319,-9,o),
(404,86,o),
(438,280,cs),
(469,457,o),
(416,543,o),
(277,543,cs),
(173,543,o),
(111,475,o),
(87,335,c)
);
},
{
closed = 1;
nodes = (
(124,799,l),
(37,335,l),
(177,335,l),
(255,799,l)
);
}
);
width = 470;
},
{
background = {
shapes = (
{
closed = 1;
nodes = (
(433,680,l),
(433,800,l),
(96,800,l),
(96,680,l)
);
},
{
closed = 1;
nodes = (
(135,381,l),
(163,392,o),
(212,408,o),
(243,408,cs),
(295,408,o),
(320,359,o),
(320,280,cs),
(320,176,o),
(301,125,o),
(263,125,cs),
(226,125,o),
(208,160,o),
(208,230,c),
(58,230,l),
(58,69,o),
(125,-10,o),
(263,-10,cs),
(402,-10,o),
(470,85,o),
(470,280,cs),
(470,450,o),
(395,543,o),
(243,543,cs),
(193,543,o),
(108,508,o),
(57,457,c)
);
},
{
closed = 1;
nodes = (
(96,800,l),
(57,457,l),
(197,457,l),
(227,800,l)
);
}
);
};
layerId = m002;
shapes = (
{
closed = 1;
nodes = (
(502,789,l),
(504,799,l),
(176,799,l),
(174,789,l)
);
},
{
closed = 1;
nodes = (
(85,400,l),
(139,457,o),
(209,488,o),
(279,488,cs),
(399,488,o),
(453,414,o),
(423,240,cs),
(398,101,o),
(314,1,o),
(193,1,cs),
(90,1,o),
(35,69,o),
(41,191,c),
(31,191,l),
(24,62,o),
(82,-9,o),
(192,-9,cs),
(319,-9,o),
(407,95,o),
(433,240,cs),
(464,420,o),
(408,498,o),
(281,498,cs),
(211,498,o),
(139,465,o),
(78,407,c)
);
},
{
closed = 1;
nodes = (
(176,799,l),
(78,407,l),
(88,407,l),
(186,799,l)
);
}
);
width = 518;
},
{
associatedMasterId = m01;
layerId = "10961A5E-F3D2-44A9-9D7C-D9A0A5D41BC3";
name = "3. Aug. 24, 13:57";
shapes = (
{
closed = 1;
nodes = (
(404,660,l),
(404,800,l),
(67,800,l),
(67,660,l)
);
},
{
closed = 1;
nodes = (
(106,381,l),
(134,392,o),
(183,408,o),
(214,408,cs),
(266,408,o),
(291,359,o),
(291,280,cs),
(291,176,o),
(272,125,o),
(234,125,cs),
(197,125,o),
(179,160,o),
(179,230,c),
(29,230,l),
(29,69,o),
(96,-10,o),
(234,-10,cs),
(373,-10,o),
(441,85,o),
(441,280,cs),
(441,450,o),
(366,543,o),
(214,543,cs),
(164,543,o),
(79,508,o),
(28,457,c)
);
},
{
closed = 1;
nodes = (
(67,800,l),
(28,457,l),
(168,457,l),
(198,800,l)
);
}
);
width = 470;
}
);
unicode = 53;
},
{
color = 1;
glyphname = six;
lastChange = "2024-08-03 21:44:56 +0000";
layers = (
{
layerId = m01;
shapes = (
{
closed = 1;
nodes = (
(121,361,l),
(156,392,o),
(190,398,o),
(226,398,cs),
(278,398,o),
(296,359,o),
(282,280,cs),
(264,177,o),
(236,126,o),
(198,126,cs),
(161,126,o),
(152,177,o),
(170,280,c),
(20,280,l),
(-15,86,o),
(36,-9,o),
(174,-9,cs),
(314,-9,o),
(398,86,o),
(433,280,cs),
(462,450,o),
(402,533,o),
(249,533,c),
(207,533,o),
(176,522,o),
(147,497,c)
);
},
{
closed = 1;
nodes = (
(72,280,o),
(118,280,o),
(170,280,c),
(217,540,o),
(310,655,o),
(461,690,c),
(440,816,l),
(214,775,o),
(75,599,o),
(20,280,cs)
);
}
);
width = 470;
},
{
background = {
shapes = (
{
closed = 1;
nodes = (
(155,361,l),
(185,392,o),
(217,398,o),
(253,398,cs),
(305,398,o),
(330,359,o),
(330,280,cs),
(330,176,o),
(311,125,o),
(273,125,cs),
(236,125,o),
(218,176,o),
(218,280,c),
(68,280,l),
(68,85,o),
(135,-10,o),
(273,-10,cs),
(412,-10,o),
(480,85,o),
(480,280,cs),
(480,450,o),
(405,533,o),
(253,533,c),
(157,497,l)
);
},
{
closed = 1;
nodes = (
(120,280,o),
(166,280,o),
(218,280,c),
(220,540,o),
(292,656,o),
(437,691,c),
(394,817,l),
(175,776,o),
(68,599,o),
(68,280,cs)
);
}
);
};
layerId = m002;
shapes = (
{
closed = 1;
nodes = (
(74,377,l),
(123,461,o),
(195,502,o),
(290,502,cs),
(422,502,o),
(475,429,o),
(449,280,cs),
(416,93,o),
(334,1,o),
(202,1,cs),
(71,1,o),
(23,93,o),
(56,280,c),
(46,280,l),
(11,86,o),
(62,-9,o),
(200,-9,cs),
(340,-9,o),
(424,86,o),
(459,280,cs),
(486,436,o),
(431,513,o),
(292,513,c),
(200,513,o),
(129,475,o),
(77,396,c)
);
},
{
closed = 1;
nodes = (
(98,280,o),
(3,280,o),
(56,280,c),
(113,594,o),
(248,768,o),
(468,807,c),
(466,816,l),
(240,775,o),
(102,599,o),
(46,280,cs)
);
}
);
width = 538;
}
);
unicode = 54;
},
{
color = 1;
glyphname = seven;
lastChange = "2024-08-03 21:45:00 +0000";
layers = (
{
layerId = m01;
shapes = (
{
closed = 1;
nodes = (
(128,1,l),
(450,681,l),
(470,799,l),
(70,799,l),
(45,659,l),
(367,659,l),
(335,730,l),
(-36,1,l)
);
}
);
width = 400;
},
{
background = {
shapes = (
{
closed = 1;
nodes = (
(234,0,l),
(436,682,l),
(436,802,l),
(36,802,l),
(36,682,l),
(357,682,l),
(313,731,l),
(70,0,l)
);
}
);
};
layerId = m002;
shapes = (
{
closed = 1;
nodes = (
(41,1,l),
(485,791,l),
(486,799,l),
(126,799,l),
(124,789,l),
(480,789,l),
(478,796,l),
(30,1,l)
);
}
);
width = 456;
}
);
unicode = 55;
},
{
color = 1;
glyphname = eight;
lastChange = "2024-08-03 21:45:06 +0000";
layers = (
{
background = {
shapes = (
{
closed = 0;
nodes = (
(203,520,ls),
(203,624,o),
(222,675,o),
(260,675,cs),
(297,675,o),
(315,624,o),
(315,520,c),
(455,520,l),
(455,715,o),
(398,810,o),
(260,810,cs),
(121,810,o),
(63,715,o),
(63,520,cs)
);
},
{
closed = 0;
nodes = (
(455,520,ls),
(403,520,o),
(367,520,o),
(315,520,c)
);
},
{
closed = 1;
nodes = (
(203,176,o),
(222,125,o),
(260,125,cs),
(297,125,o),
(315,176,o),
(315,280,c),
(465,280,l),
(465,85,o),
(398,-10,o),
(260,-10,cs),
(121,-10,o),
(53,85,o),
(53,280,c),
(53,85,o),
(121,-10,o),
(260,-10,cs),
(398,-10,o),
(465,85,o),
(465,280,c),
(315,280,l),
(315,176,o),
(297,125,o),
(260,125,cs),
(222,125,o),
(203,176,o),
(203,280,c)
);
},
{
closed = 0;
nodes = (
(465,280,ls),
(413,280,o),
(367,280,o),
(315,280,c)
);
},
{
closed = 0;
nodes = (
(203,184,ls),
(203,288,o),
(222,339,o),
(260,339,cs),
(297,339,o),
(315,288,o),
(315,184,c),
(465,184,l),
(465,379,o),
(398,474,o),
(260,474,cs),
(121,474,o),
(53,379,o),
(53,184,cs)
);
},
{
closed = 0;
nodes = (
(63,630,ls),
(63,435,o),
(121,340,o),
(260,340,cs),
(398,340,o),
(455,435,o),
(455,630,c),
(315,630,l),
(315,526,o),
(297,475,o),
(260,475,cs),
(222,475,o),
(203,526,o),
(203,630,cs)
);
}
);
};
layerId = m01;
shapes = (
{
closed = 1;
nodes = (
(318,-10,o),
(418,79,o),
(446,239,cs),
(458,308,o),
(433,372,o),
(397,416,c),
(395,404,l),
(440,442,o),
(473,504,o),
(485,577,cs),
(512,726,o),
(456,810,o),
(333,810,cs),
(207,810,o),
(121,726,o),
(94,577,cs),
(82,504,o),
(93,443,o),
(125,404,c),
(128,417,l),
(73,371,o),
(27,308,o),
(15,239,cs),
(-13,79,o),
(55,-10,o),
(187,-10,cs)
);
},
{
closed = 1;
nodes = (
(176,127,o),
(148,167,o),
(161,239,cs),
(172,305,o),
(214,341,o),
(249,341,cs),
(284,341,o),
(312,305,o),
(301,239,cs),
(288,167,o),
(246,127,o),
(211,127,cs)
);
},
{
closed = 1;
nodes = (
(237,476,o),
(218,512,o),
(230,577,cs),
(240,636,o),
(271,670,o),
(306,670,cs),
(342,670,o),
(361,636,o),
(350,577,cs),
(339,512,o),
(307,476,o),
(272,476,cs)
);
}
);
width = 490;
},
{
background = {
shapes = (
{
closed = 1;
nodes = (
(416,-10,o),
(478,65,o),
(478,239,cs),
(478,307,o),
(454,360,o),
(398,416,c),
(398,404,l),
(440,446,o),
(458,498,o),
(458,577,cs),
(458,739,o),
(403,808,o),
(275,808,cs),
(144,808,o),
(88,739,o),
(88,577,cs),
(88,499,o),
(106,447,o),
(149,404,c),
(149,417,l),
(92,360,o),
(68,307,o),
(68,239,cs),
(68,65,o),
(130,-10,o),
(273,-10,cs)
);
},
{
closed = 1;
nodes = (
(137,0,o),
(78,72,o),
(78,239,cs),
(78,356,o),
(137,406,o),
(273,406,cs),
(409,406,o),
(468,356,o),
(468,239,cs),
(468,72,o),
(409,0,o),
(273,0,cs)
);
},
{
closed = 1;
nodes = (
(151,411,o),
(98,461,o),
(98,577,cs),
(98,733,o),
(151,800,o),
(273,800,cs),
(395,800,o),
(448,733,o),
(448,577,cs),
(448,461,o),
(395,411,o),
(273,411,cs)
);
}
);
};
layerId = m002;
shapes = (
{
closed = 1;
nodes = (
(334,-9,o),
(421,73,o),
(447,219,cs),
(468,342,o),
(407,411,o),
(276,411,c),
(275,405,l),
(393,405,o),
(472,474,o),
(493,597,cs),
(517,732,o),
(465,807,o),
(347,807,cs),
(226,807,o),
(146,732,o),
(122,597,cs),
(101,474,o),
(155,405,o),
(273,405,c),
(274,411,l),
(143,411,o),
(57,342,o),
(36,219,cs),
(10,73,o),
(69,-9,o),
(201,-9,cs)
);
},
{
closed = 1;
nodes = (
(78,1,o),
(21,79,o),
(46,219,cs),
(67,337,o),
(148,403,o),
(274,403,cs),
(399,403,o),
(458,337,o),
(437,219,cs),
(412,79,o),
(328,1,o),
(203,1,cs)
);
},
{
closed = 1;
nodes = (
(163,413,o),
(112,479,o),
(132,597,cs),
(155,726,o),
(231,799,o),
(343,799,cs),
(455,799,o),
(506,727,o),
(483,599,cs),
(462,479,o),
(388,413,o),
(275,413,cs)
);
}
);
width = 536;
}
);
unicode = 56;
},
{
color = 1;
glyphname = nine;
lastChange = "2024-08-03 21:45:12 +0000";
layers = (
{
layerId = m01;
shapes = (
{
closed = 1;
nodes = (
(367,419,l),
(335,408,o),
(301,402,o),
(265,402,cs),
(213,402,o),
(195,441,o),
(209,520,cs),
(227,623,o),
(255,674,o),
(293,674,cs),
(330,674,o),
(339,623,o),
(321,520,c),
(471,520,l),
(506,714,o),
(455,809,o),
(317,809,cs),
(177,809,o),
(93,714,o),
(58,520,cs),
(29,350,o),
(89,267,o),
(242,267,c),
(277,267,o),
(311,272,o),
(341,283,c)
);
},
{
closed = 1;
nodes = (
(419,520,o),
(373,520,o),
(321,520,c),
(274,260,o),
(181,145,o),
(30,110,c),
(51,-16,l),
(277,25,o),
(416,201,o),
(471,520,cs)
);
}
);
width = 470;
},
{
layerId = m002;
shapes = (
{
closed = 1;
nodes = (
(467,386,l),
(418,302,o),
(346,261,o),
(251,261,cs),
(119,261,o),
(66,334,o),
(92,483,cs),
(125,670,o),
(207,762,o),
(339,762,cs),
(470,762,o),
(518,670,o),
(485,483,c),
(495,483,l),
(530,677,o),
(479,772,o),
(341,772,cs),
(201,772,o),
(117,677,o),
(82,483,cs),
(55,327,o),
(110,250,o),
(249,250,c),
(341,250,o),
(412,288,o),
(464,367,c)
);
},
{
closed = 1;
nodes = (
(443,483,o),
(538,483,o),
(485,483,c),
(428,169,o),
(293,-5,o),
(73,-44,c),
(75,-53,l),
(301,-12,o),
(439,164,o),
(495,483,cs)
);
}
);
width = 538;
}
);
unicode = 57;
},
{
glyphname = .notdef;
lastChange = "2024-08-03 16:36:12 +0000";
layers = (
{
layerId = m002;
shapes = (
{
alignment = -1;
pos = (0,450);
ref = N;
scale = (0.5041,0.5041);
},
{
alignment = -1;
pos = (311,450);
ref = O;
scale = (0.5041,0.5041);
},
{
alignment = -1;
pos = (568,450);
ref = T;
scale = (0.5041,0.5041);
},
{
alignment = -1;
pos = (1,0);
ref = D;
scale = (0.5041,0.5041);
},
{
alignment = -1;
pos = (294,0);
ref = E;
scale = (0.5041,0.5041);
},
{
alignment = -1;
pos = (548,0);
ref = F;
scale = (0.5041,0.5041);
},
{
closed = 1;
nodes = (
(46,-65,l),
(774,-65,l),
(774,-59,l),
(46,-59,l)
);
}
);
width = 819;
},
{
layerId = m01;
shapes = (
{
alignment = -1;
pos = (0,450);
ref = N;
scale = (0.5041,0.5041);
},
{
alignment = -1;
pos = (271,450);
ref = O;
scale = (0.5041,0.5041);
},
{
alignment = -1;
pos = (528,450);
ref = T;
scale = (0.5229,0.5041);
},
{
alignment = -1;
pos = (8,0);
ref = D;
scale = (0.5041,0.5041);
},
{
alignment = -1;
pos = (275,0);
ref = E;
scale = (0.5945,0.5041);
},
{
alignment = -1;
pos = (523,0);
ref = F;
scale = (0.5961,0.5041);
},
{
closed = 1;
nodes = (
(20,-129,l),
(752,-129,l),
(752,-59,l),
(20,-59,l)
);
}
);
width = 772;
}
);
},
{
color = 2;
glyphname = period;
lastChange = "2024-08-03 21:21:28 +0000";
layers = (
{
background = {
shapes = (
{
closed = 1;
nodes = (
(67,0,l),
(233,0,l),
(233,164,l),
(67,164,l)
);
}
);
};
layerId = m002;
shapes = (
{
closed = 1;
nodes = (
(130,0,l),
(164,0,l),
(170,34,l),
(136,34,l)
);
}
);
width = 300;
},
{
layerId = m01;
shapes = (
{
closed = 1;
nodes = (
(14,0,l),
(181,0,l),
(210,164,l),
(43,164,l)
);
}
);
width = 300;
}
);
unicode = 46;
},
{
color = 2;
glyphname = comma;
lastChange = "2024-08-03 21:21:36 +0000";
layers = (
{
background = {
shapes = (
{
closed = 1;
nodes = (
(67,0,l),
(233,0,l),
(233,164,l),
(67,164,l)
);
},
{
closed = 1;
nodes = (
(117,-148,l),
(233,0,l),
(142,0,l),
(75,-117,l)
);
}
);
};
layerId = m002;
shapes = (
{
closed = 1;
nodes = (
(134,0,l),
(168,0,l),
(174,34,l),
(140,34,l)
);
},
{
closed = 1;
nodes = (
(131,-51,l),
(168,0,l),
(148,0,l),
(124,-44,l)
);
}
);
width = 300;
},
{
layerId = m01;
shapes = (
{
closed = 1;
nodes = (
(15,0,l),
(182,0,l),
(210,164,l),
(44,164,l)
);
},
{
closed = 1;
nodes = (
(39,-148,l),
(182,0,l),
(90,0,l),
(3,-117,l)
);
}
);
width = 300;
}
);
unicode = 44;
},
{
color = 2;
glyphname = colon;
lastChange = "2024-08-03 20:13:23 +0000";
layers = (
{
layerId = m002;
shapes = (
{
closed = 1;
nodes = (
(77,1,l),
(111,1,l),
(117,35,l),
(83,35,l)
);
},
{
closed = 1;
nodes = (
(183,609,l),
(217,609,l),
(223,643,l),
(189,643,l)
);
}
);
width = 300;
},
{
layerId = m01;
shapes = (
{
closed = 1;
nodes = (
(10,1,l),
(176,1,l),
(205,164,l),
(39,164,l)
);
},
{
closed = 1;
nodes = (
(95,486,l),
(261,486,l),
(290,649,l),
(124,649,l)
);
}
);
width = 300;
}
);
unicode = 58;
},
{
color = 2;
glyphname = semicolon;
lastChange = "2024-08-03 20:13:23 +0000";
layers = (
{
layerId = m002;
shapes = (
{
closed = 1;
nodes = (
(81,1,l),
(115,1,l),
(121,35,l),
(87,35,l)
);
},
{
closed = 1;
nodes = (
(78,-50,l),
(115,1,l),
(95,1,l),
(70,-43,l)
);
},
{
closed = 1;
nodes = (
(188,609,l),
(222,609,l),
(228,643,l),
(194,643,l)
);
}
);
width = 300;
},
{
layerId = m01;
shapes = (
{
closed = 1;
nodes = (
(23,1,l),
(189,1,l),
(218,164,l),
(51,164,l)
);
},
{
closed = 1;
nodes = (
(47,-147,l),
(189,1,l),
(98,1,l),
(10,-116,l)
);
},
{
closed = 1;
nodes = (
(108,485,l),
(274,485,l),
(303,649,l),
(137,649,l)
);
}
);
width = 300;
}
);
unicode = 59;
},
{
color = 2;
glyphname = exclam;
lastChange = "2024-08-03 20:13:23 +0000";
layers = (
{
background = {
shapes = (
{
closed = 1;
nodes = (
(68,0,l),
(234,0,l),
(234,164,l),
(68,164,l)
);
},
{
closed = 1;
nodes = (
(200,265,l),
(253,850,l),
(47,850,l),
(104,265,l)
);
}
);
};
layerId = m002;
shapes = (
{
closed = 1;
nodes = (
(59,1,l),
(93,1,l),
(99,35,l),
(65,35,l)
);
},
{
closed = 1;
nodes = (
(129,265,l),
(229,849,l),
(219,849,l),
(119,265,l)
);
}
);
width = 300;
},
{
layerId = m01;
shapes = (
{
closed = 1;
nodes = (
(23,1,l),
(190,1,l),
(218,165,l),
(52,165,l)
);
},
{
closed = 1;
nodes = (
(202,265,l),
(358,849,l),
(151,849,l),
(106,265,l)
);
}
);
width = 360;
}
);
unicode = 33;
},
{
color = 2;
glyphname = exclamdown;
lastChange = "2024-08-03 20:13:23 +0000";
layers = (
{
layerId = m002;
shapes = (
{
closed = 1;
nodes = (
(241,849,l),
(207,849,l),
(201,815,l),
(235,815,l)
);
},
{
closed = 1;
nodes = (
(171,585,l),
(71,1,l),
(81,1,l),
(181,585,l)
);
}
);
width = 300;
},
{
layerId = m01;
shapes = (
{
closed = 1;
nodes = (
(340,866,l),
(173,866,l),
(145,702,l),
(311,702,l)
);
},
{
closed = 1;
nodes = (
(161,602,l),
(5,18,l),
(212,18,l),
(257,602,l)
);
}
);
width = 360;
}
);
unicode = 161;
},
{
color = 2;
glyphname = question;
lastChange = "2024-08-03 20:13:23 +0000";
layers = (
{
background = {
shapes = (
{
closed = 1;
nodes = (
(116,0,l),
(282,0,l),
(282,164,l),
(116,164,l)
);
},
{
closed = 1;
nodes = (
(246,268,l),
(265,416,l),
(341,416,o),
(389,511,o),
(389,661,cs),
(389,791,o),
(314,873,o),
(194,873,cs),
(76,873,o),
(2,792,o),
(2,664,c),
(152,664,l),
(152,669,o),
(150,636,o),
(150,678,cs),
(150,715,o),
(169,738,o),
(198,738,cs),
(223,738,o),
(239,707,o),
(239,658,cs),
(239,574,o),
(220,522,o),
(191,522,cs),
(122,522,l),
(149,268,l)
);
}
);
};
layerId = m002;
shapes = (
{
closed = 1;
nodes = (
(98,1,l),
(132,1,l),
(138,35,l),
(104,35,l)
);
},
{
closed = 1;
nodes = (
(160,214,l),
(197,423,l),
(302,473,o),
(388,577,o),
(405,672,cs),
(424,782,o),
(370,859,o),
(272,859,cs),
(174,859,o),
(93,798,o),
(78,712,c),
(88,712,l),
(102,792,o),
(177,849,o),
(271,849,cs),
(362,849,o),
(413,776,o),
(395,672,cs),
(379,580,o),
(293,479,o),
(188,429,c),
(150,214,l)
);
}
);
width = 391;
},
{
background = {
shapes = (
{
closed = 1;
nodes = (
(180,265,l),
(233,850,l),
(27,850,l),
(84,265,l)
);
}
);
};
layerId = m01;
shapes = (
{
closed = 1;
nodes = (
(50,1,l),
(216,1,l),
(245,165,l),
(78,165,l)
);
},
{
closed = 1;
nodes = (
(237,268,l),
(282,416,l),
(354,459,o),
(423,568,o),
(439,660,cs),
(460,778,o),
(390,872,o),
(281,872,cs),
(173,872,o),
(72,779,o),
(52,663,c),
(202,663,l),
(207,704,o),
(233,737,o),
(261,737,cs),
(284,737,o),
(296,702,o),
(288,657,cs),
(278,603,o),
(213,525,o),
(140,482,c),
(120,268,l)
);
}
);
width = 410;
}
);
unicode = 63;
},
{
color = 2;
glyphname = questiondown;
lastChange = "2024-08-03 20:13:23 +0000";
layers = (
{
layerId = m002;
shapes = (
{
closed = 1;
nodes = (
(323,859,l),
(289,859,l),
(283,825,l),
(317,825,l)
);
},
{
closed = 1;
nodes = (
(242,537,l),
(216,389,l),
(119,389,o),
(37,305,o),
(16,188,cs),
(-3,78,o),
(51,1,o),
(149,1,cs),
(247,1,o),
(328,62,o),
(343,148,c),
(333,148,l),
(319,68,o),
(244,11,o),
(150,11,cs),
(59,11,o),
(8,84,o),
(26,188,cs),
(46,301,o),
(128,381,o),
(224,381,c),
(252,537,l)
);
}
);
width = 450;
},
{
layerId = m01;
shapes = (
{
closed = 1;
nodes = (
(381,872,l),
(215,872,l),
(186,708,l),
(353,708,l)
);
},
{
closed = 1;
nodes = (
(204,605,l),
(159,457,l),
(82,410,o),
(8,301,o),
(-8,213,cs),
(-29,95,o),
(41,1,o),
(150,1,cs),
(258,1,o),
(359,94,o),
(379,210,c),
(229,210,l),
(224,169,o),
(198,136,o),
(170,136,cs),
(147,136,o),
(135,171,o),
(143,216,cs),
(153,273,o),
(214,351,o),
(281,391,c),
(301,605,l)
);
}
);
width = 450;
}
);
unicode = 191;
},
{
color = 2;
glyphname = periodcentered;
lastChange = "2024-08-03 20:13:23 +0000";
layers = (
{
layerId = m002;
shapes = (
{
closed = 1;
nodes = (
(260,310,l),
(294,310,l),
(300,344,l),
(266,344,l)
);
}
);
width = 560;
},
{
layerId = m01;
shapes = (
{
closed = 1;
nodes = (
(145,250,l),
(312,250,l),
(341,414,l),
(174,414,l)
);
}
);
width = 486;
}
);
unicode = 183;
},
{
color = 2;
glyphname = bullet;
lastChange = "2024-08-03 20:13:23 +0000";
layers = (
{
layerId = m002;
shapes = (
{
closed = 1;
nodes = (
(312,245,o),
(328,259,o),
(331,277,cs),
(334,294,o),
(323,308,o),
(306,308,cs),
(287,308,o),
(271,294,o),
(268,277,cs),
(265,259,o),
(276,245,o),
(294,245,cs)
);
}
);
width = 600;
},
{
layerId = m01;
shapes = (
{
closed = 1;
nodes = (
(366,100,o),
(459,179,o),
(477,277,cs),
(494,374,o),
(428,453,o),
(331,453,cs),
(233,453,o),
(140,374,o),
(123,277,cs),
(105,179,o),
(171,100,o),
(269,100,cs)
);
}
);
width = 600;
}
);
unicode = 8226;
},
{
color = 2;
glyphname = asterisk;
lastChange = "2024-08-03 20:13:23 +0000";
layers = (
{
background = {
shapes = (
{
closed = 1;
nodes = (
(52,683,l),
(154,617,l),
(52,551,l),
(82,500,l),
(189,555,l),
(195,435,l),
(254,434,l),
(260,555,l),
(368,500,l),
(398,551,l),
(296,617,l),
(398,683,l),
(368,734,l),
(261,679,l),
(255,799,l),
(196,800,l),
(190,679,l),
(82,734,l)
);
}
);
};
layerId = m002;
shapes = (
{
closed = 1;
nodes = (
(99,771,l),
(217,697,l),
(73,623,l),
(77,613,l),
(220,690,l),
(191,540,l),
(202,539,l),
(228,690,l),
(344,613,l),
(351,623,l),
(233,697,l),
(377,771,l),
(373,781,l),
(230,704,l),
(259,854,l),
(248,855,l),
(222,704,l),
(106,781,l)
);
}
);
width = 450;
},
{
layerId = m01;
shapes = (
{
closed = 1;
nodes = (
(63,733,l),
(154,667,l),
(40,601,l),
(61,550,l),
(178,605,l),
(163,485,l),
(222,484,l),
(249,605,l),
(348,550,l),
(387,601,l),
(296,667,l),
(410,733,l),
(389,784,l),
(272,729,l),
(287,849,l),
(228,850,l),
(201,729,l),
(102,784,l)
);
}
);
width = 450;
}
);
unicode = 42;
},
{
color = 2;
glyphname = numbersign;
lastChange = "2024-08-03 20:13:23 +0000";
layers = (
{
layerId = m002;
shapes = (
{
closed = 1;
nodes = (
(-9,-99,l),
(1,-99,l),
(328,849,l),
(318,849,l)
);
},
{
closed = 1;
nodes = (
(243,-99,l),
(253,-99,l),
(580,849,l),
(570,849,l)
);
},
{
closed = 1;
nodes = (
(109,545,l),
(621,545,l),
(622,555,l),
(111,555,l)
);
},
{
closed = 1;
nodes = (
(-34,185,l),
(477,185,l),
(479,195,l),
(-32,195,l)
);
}
);
width = 590;
},
{
layerId = m01;
shapes = (
{
closed = 1;
nodes = (
(11,-99,l),
(133,-99,l),
(429,849,l),
(308,849,l)
);
},
{
closed = 1;
nodes = (
(243,-99,l),
(364,-99,l),
(661,849,l),
(539,849,l)
);
},
{
closed = 1;
nodes = (
(85,465,l),
(617,465,l),
(689,644,l),
(157,644,l)
);
},
{
closed = 1;
nodes = (
(-28,106,l),
(504,106,l),
(576,285,l),
(44,285,l)
);
}
);
width = 661;
}
);
unicode = 35;
},
{
color = 2;
glyphname = slash;
lastChange = "2024-08-03 21:10:11 +0000";
layers = (
{
layerId = m002;
shapes = (
{
closed = 1;
nodes = (
(-34,-99,l),
(-23,-99,l),
(445,849,l),
(434,849,l)
);
}
);
width = 421;
},
{
layerId = m01;
shapes = (
{
closed = 1;
nodes = (
(-64,-99,l),
(71,-99,l),
(538,849,l),
(403,849,l)
);
}
);
width = 484;
}
);
metricLeft = O;
metricRight = O;
unicode = 47;
},
{
color = 2;
glyphname = backslash;
lastChange = "2024-08-03 20:13:23 +0000";
layers = (
{
layerId = m002;
shapes = (
{
closed = 1;
nodes = (
(138,849,l),
(272,-99,l),
(283,-99,l),
(149,849,l)
);
}
);
width = 421;
},
{
layerId = m01;
shapes = (
{
closed = 1;
nodes = (
(108,849,l),
(242,-99,l),
(376,-99,l),
(242,849,l)
);
}
);
width = 484;
}
);
unicode = 92;
},
{
color = 2;
glyphname = hyphen;
lastChange = "2024-08-03 20:13:23 +0000";
layers = (
{
layerId = m002;
shapes = (
{
closed = 1;
nodes = (
(19,385,l),
(279,385,l),
(281,395,l),
(21,395,l)
);
}
);
width = 300;
},
{
layerId = m01;
shapes = (
{
closed = 1;
nodes = (
(6,310,l),
(266,310,l),
(294,470,l),
(34,470,l)
);
}
);
width = 300;
}
);
unicode = 45;
},
{
color = 2;
glyphname = endash;
lastChange = "2024-08-03 20:13:23 +0000";
layers = (
{
layerId = m002;
shapes = (
{
closed = 1;
nodes = (
(18,385,l),
(580,385,l),
(582,395,l),
(20,395,l)
);
}
);
width = 600;
},
{
layerId = m01;
shapes = (
{
closed = 1;
nodes = (
(42,310,l),
(544,310,l),
(558,390,l),
(56,390,l)
);
}
);
width = 600;
}
);
unicode = 8211;
},
{
color = 2;
glyphname = emdash;
lastChange = "2024-08-03 20:13:23 +0000";
layers = (
{
layerId = m002;
shapes = (
{
closed = 1;
nodes = (
(-2,385,l),
(600,385,l),
(602,395,l),
(0,395,l)
);
}
);
width = 600;
},
{
layerId = m01;
shapes = (
{
closed = 1;
nodes = (
(-8,310,l),
(544,310,l),
(558,390,l),
(6,390,l)
);
}
);
width = 550;
}
);
unicode = 8212;
},
{
color = 2;
glyphname = underscore;
lastChange = "2024-08-03 20:13:23 +0000";
layers = (
{
layerId = m002;
shapes = (
{
closed = 1;
nodes = (
(-2,-200,l),
(600,-200,l),
(602,-190,l),
(0,-190,l)
);
}
);
width = 600;
},
{
layerId = m01;
shapes = (
{
closed = 1;
nodes = (
(-8,-200,l),
(544,-200,l),
(558,-120,l),
(6,-120,l)
);
}
);
width = 550;
}
);
unicode = 95;
},
{
color = 2;
glyphname = parenleft;
lastChange = "2024-08-03 20:13:23 +0000";
layers = (
{
layerId = m002;
shapes = (
{
closed = 1;
nodes = (
(94,-51,o),
(80,153,o),
(110,327,cs),
(140,499,o),
(226,701,o),
(322,849,c),
(312,849,l),
(220,707,o),
(130,500,o),
(100,326,cs),
(69,152,o),
(86,-57,o),
(128,-199,c),
(138,-199,l)
);
}
);
width = 330;
},
{
layerId = m01;
shapes = (
{
closed = 1;
nodes = (
(143,-51,o),
(138,153,o),
(168,327,cs),
(198,499,o),
(275,701,o),
(371,849,c),
(238,849,l),
(146,707,o),
(58,500,o),
(28,326,cs),
(-3,152,o),
(12,-57,o),
(54,-199,c),
(187,-199,l)
);
}
);
width = 310;
}
);
unicode = 40;
},
{
color = 2;
glyphname = parenright;
lastChange = "2024-08-03 20:13:23 +0000";
layers = (
{
layerId = m002;
shapes = (
{
closed = 1;
nodes = (
(18,-199,l),
(110,-57,o),
(200,152,o),
(231,326,cs),
(261,500,o),
(244,707,o),
(202,849,c),
(192,849,l),
(236,701,o),
(251,499,o),
(221,327,cs),
(190,153,o),
(104,-51,o),
(8,-199,c)
);
}
);
width = 330;
},
{
layerId = m01;
shapes = (
{
closed = 1;
nodes = (
(79,-199,l),
(171,-57,o),
(259,150,o),
(289,324,cs),
(320,498,o),
(305,707,o),
(263,849,c),
(130,849,l),
(174,701,o),
(179,497,o),
(149,323,cs),
(119,151,o),
(42,-51,o),
(-54,-199,c)
);
}
);
width = 320;
}
);
unicode = 41;
},
{
color = 2;
glyphname = braceleft;
lastChange = "2024-08-03 20:13:23 +0000";
layers = (
{
layerId = m002;
shapes = (
{
closed = 1;
nodes = (
(180,-189,l),
(131,-189,o),
(104,-164,o),
(111,-123,c),
(174,237,l),
(184,291,o),
(170,325,o),
(139,325,cs),
(108,325,l),
(108,320,l),
(128,320,l),
(159,320,o),
(172,288,o),
(163,237,c),
(103,-123,l),
(95,-170,o),
(124,-199,o),
(178,-199,c)
);
},
{
closed = 1;
nodes = (
(308,849,o),
(269,820,o),
(260,773,c),
(194,413,l),
(185,362,o),
(160,330,o),
(129,330,c),
(109,330,l),
(108,325,l),
(139,325,ls),
(170,325,o),
(196,359,o),
(205,413,c),
(268,773,l),
(275,814,o),
(311,839,o),
(360,839,c),
(362,849,l)
);
}
);
width = 380;
},
{
background = {
shapes = (
{
closed = 1;
nodes = (
(259,-52,o),
(218,153,o),
(218,327,cs),
(218,499,o),
(259,702,o),
(329,850,c),
(196,850,l),
(129,708,o),
(78,500,o),
(78,326,cs),
(78,152,o),
(129,-58,o),
(196,-200,c),
(329,-200,l)
);
}
);
};
layerId = m01;
shapes = (
{
closed = 1;
nodes = (
(254,-135,l),
(204,-135,o),
(180,-99,o),
(188,-52,c),
(239,237,l),
(246,277,o),
(226,325,o),
(171,325,cs),
(43,325,l),
(37,288,l),
(57,288,l),
(84,288,o),
(101,258,o),
(98,237,c),
(50,-54,l),
(39,-117,o),
(107,-199,o),
(243,-199,c)
);
},
{
closed = 1;
nodes = (
(291,849,o),
(194,767,o),
(183,704,c),
(129,413,l),
(125,392,o),
(97,362,o),
(70,362,c),
(49,362,l),
(43,325,l),
(171,325,ls),
(226,325,o),
(263,373,o),
(270,413,c),
(321,702,l),
(329,749,o),
(365,785,o),
(415,785,c),
(427,849,l)
);
}
);
width = 380;
}
);
unicode = 123;
},
{
color = 2;
glyphname = braceright;
lastChange = "2024-08-03 20:13:23 +0000";
layers = (
{
layerId = m002;
shapes = (
{
closed = 1;
nodes = (
(71,-199,o),
(110,-170,o),
(119,-123,c),
(185,237,l),
(194,288,o),
(219,320,o),
(250,320,c),
(270,320,l),
(271,325,l),
(240,325,ls),
(209,325,o),
(183,291,o),
(174,237,c),
(111,-123,l),
(104,-164,o),
(68,-189,o),
(19,-189,c),
(17,-199,l)
);
},
{
closed = 1;
nodes = (
(199,839,l),
(248,839,o),
(275,814,o),
(268,773,c),
(205,413,l),
(195,359,o),
(209,325,o),
(240,325,cs),
(271,325,l),
(271,330,l),
(251,330,l),
(220,330,o),
(207,362,o),
(216,413,c),
(276,773,l),
(284,820,o),
(255,849,o),
(201,849,c)
);
}
);
width = 380;
},
{
layerId = m01;
shapes = (
{
closed = 1;
nodes = (
(88,-199,o),
(185,-117,o),
(196,-54,c),
(250,237,l),
(254,258,o),
(282,288,o),
(309,288,c),
(330,288,l),
(336,325,l),
(208,325,ls),
(153,325,o),
(116,277,o),
(109,237,c),
(58,-52,l),
(50,-99,o),
(14,-135,o),
(-36,-135,c),
(-48,-199,l)
);
},
{
closed = 1;
nodes = (
(125,785,l),
(175,785,o),
(199,749,o),
(191,702,c),
(140,413,l),
(133,373,o),
(153,325,o),
(208,325,cs),
(336,325,l),
(342,362,l),
(322,362,l),
(295,362,o),
(278,392,o),
(281,413,c),
(329,704,l),
(340,767,o),
(272,849,o),
(136,849,c)
);
}
);
width = 380;
}
);
unicode = 125;
},
{
color = 2;
glyphname = bracketleft;
lastChange = "2024-08-03 20:13:23 +0000";
layers = (
{
layerId = m002;
shapes = (
{
closed = 1;
nodes = (
(128,-199,l),
(130,-189,l),
(50,-189,l),
(230,839,l),
(310,839,l),
(312,849,l),
(222,849,l),
(38,-199,l)
);
}
);
width = 350;
},
{
layerId = m01;
shapes = (
{
closed = 1;
nodes = (
(208,-199,l),
(233,-59,l),
(153,-59,l),
(287,709,l),
(368,709,l),
(392,849,l),
(172,849,l),
(-12,-199,l)
);
}
);
width = 380;
}
);
unicode = 91;
},
{
color = 2;
glyphname = bracketright;
lastChange = "2024-08-03 20:13:23 +0000";
layers = (
{
layerId = m002;
shapes = (
{
closed = 1;
nodes = (
(312,849,l),
(222,849,l),
(220,839,l),
(300,839,l),
(120,-189,l),
(40,-189,l),
(38,-199,l),
(128,-199,l)
);
}
);
width = 350;
},
{
layerId = m01;
shapes = (
{
closed = 1;
nodes = (
(392,849,l),
(172,849,l),
(147,709,l),
(227,709,l),
(93,-59,l),
(12,-59,l),
(-12,-199,l),
(208,-199,l)
);
}
);
width = 380;
}
);
unicode = 93;
},
{
color = 2;
glyphname = quotesinglbase;
lastChange = "2024-08-03 20:13:23 +0000";
layers = (
{
layerId = m002;
shapes = (
{
closed = 1;
nodes = (
(74,0,l),
(108,0,l),
(114,34,l),
(80,34,l)
);
},
{
closed = 1;
nodes = (
(71,-51,l),
(108,0,l),
(88,0,l),
(64,-44,l)
);
}
);
width = 177;
},
{
layerId = m01;
shapes = (
{
closed = 1;
nodes = (
(65,0,l),
(232,0,l),
(260,164,l),
(94,164,l)
);
},
{
closed = 1;
nodes = (
(89,-148,l),
(232,0,l),
(140,0,l),
(53,-117,l)
);
}
);
width = 300;
}
);
unicode = 8218;
},
{
color = 2;
glyphname = quotedblbase;
lastChange = "2024-08-03 20:13:23 +0000";
layers = (
{
layerId = m002;
shapes = (
{
closed = 1;
nodes = (
(74,0,l),
(108,0,l),
(114,34,l),
(80,34,l)
);
},
{
closed = 1;
nodes = (
(71,-51,l),
(108,0,l),
(88,0,l),
(64,-44,l)
);
},
{
closed = 1;
nodes = (
(134,0,l),
(169,0,l),
(175,34,l),
(140,34,l)
);
},
{
closed = 1;
nodes = (
(132,-51,l),
(169,0,l),
(149,0,l),
(124,-44,l)
);
}
);
width = 237;
},
{
layerId = m01;
shapes = (
{
closed = 1;
nodes = (
(51,0,l),
(217,0,l),
(246,164,l),
(80,164,l)
);
},
{
closed = 1;
nodes = (
(75,-148,l),
(217,0,l),
(126,0,l),
(39,-117,l)
);
},
{
closed = 1;
nodes = (
(262,0,l),
(428,0,l),
(457,164,l),
(290,164,l)
);
},
{
closed = 1;
nodes = (
(286,-148,l),
(428,0,l),
(337,0,l),
(249,-117,l)
);
}
);
width = 482;
}
);
unicode = 8222;
},
{
color = 2;
glyphname = quotedblleft;
lastChange = "2024-08-03 20:13:23 +0000";
layers = (
{
layerId = m002;
shapes = (
{
closed = 1;
nodes = (
(163,804,l),
(130,805,l),
(123,771,l),
(156,770,l)
);
},
{
closed = 1;
nodes = (
(168,855,l),
(130,805,l),
(149,804,l),
(176,848,l)
);
},
{
closed = 1;
nodes = (
(104,806,l),
(70,807,l),
(63,773,l),
(97,772,l)
);
},
{
closed = 1;
nodes = (
(109,857,l),
(70,807,l),
(90,806,l),
(116,850,l)
);
}
);
width = 240;
},
{
layerId = m01;
shapes = (
{
closed = 1;
nodes = (
(431,733,l),
(265,733,l),
(236,569,l),
(402,569,l)
);
},
{
closed = 1;
nodes = (
(407,881,l),
(265,733,l),
(356,733,l),
(443,850,l)
);
},
{
closed = 1;
nodes = (
(220,733,l),
(54,733,l),
(25,569,l),
(192,569,l)
);
},
{
closed = 1;
nodes = (
(196,881,l),
(54,733,l),
(145,733,l),
(233,850,l)
);
}
);
width = 482;
}
);
unicode = 8220;
},
{
color = 2;
glyphname = quotedblright;
lastChange = "2024-08-03 20:13:23 +0000";
layers = (
{
layerId = m002;
shapes = (
{
closed = 1;
nodes = (
(74,816,l),
(108,816,l),
(114,850,l),
(80,850,l)
);
},
{
closed = 1;
nodes = (
(71,765,l),
(108,816,l),
(88,816,l),
(64,772,l)
);
},
{
closed = 1;
nodes = (
(134,816,l),
(169,816,l),
(175,850,l),
(140,850,l)
);
},
{
closed = 1;
nodes = (
(132,765,l),
(169,816,l),
(149,816,l),
(124,772,l)
);
}
);
width = 237;
},
{
layerId = m01;
shapes = (
{
closed = 1;
nodes = (
(51,686,l),
(217,686,l),
(246,850,l),
(80,850,l)
);
},
{
closed = 1;
nodes = (
(75,538,l),
(217,686,l),
(126,686,l),
(39,569,l)
);
},
{
closed = 1;
nodes = (
(262,686,l),
(428,686,l),
(457,850,l),
(290,850,l)
);
},
{
closed = 1;
nodes = (
(286,538,l),
(428,686,l),
(337,686,l),
(249,569,l)
);
}
);
width = 482;
}
);
unicode = 8221;
},
{
color = 2;
glyphname = quoteleft;
lastChange = "2024-08-03 20:13:23 +0000";
layers = (
{
layerId = m002;
shapes = (
{
closed = 1;
nodes = (
(104,808,l),
(70,809,l),
(63,775,l),
(97,774,l)
);
},
{
closed = 1;
nodes = (
(108,859,l),
(70,809,l),
(90,808,l),
(116,852,l)
);
}
);
width = 180;
},
{
layerId = m01;
shapes = (
{
closed = 1;
nodes = (
(235,733,l),
(68,733,l),
(40,569,l),
(206,569,l)
);
},
{
closed = 1;
nodes = (
(211,881,l),
(68,733,l),
(160,733,l),
(247,850,l)
);
}
);
width = 300;
}
);
unicode = 8216;
},
{
color = 2;
glyphname = quoteright;
lastChange = "2024-08-03 20:13:23 +0000";
layers = (
{
layerId = m002;
shapes = (
{
closed = 1;
nodes = (
(134,816,l),
(168,816,l),
(174,850,l),
(140,850,l)
);
},
{
closed = 1;
nodes = (
(131,765,l),
(168,816,l),
(148,816,l),
(124,772,l)
);
}
);
width = 297;
},
{
layerId = m01;
shapes = (
{
closed = 1;
nodes = (
(65,686,l),
(232,686,l),
(260,850,l),
(94,850,l)
);
},
{
closed = 1;
nodes = (
(89,538,l),
(232,686,l),
(140,686,l),
(53,569,l)
);
}
);
width = 300;
}
);
unicode = 8217;
},
{
color = 2;
glyphname = guillemetleft;
lastChange = "2024-08-03 21:59:32 +0000";
layers = (
{
layerId = m002;
shapes = (
{
closed = 1;
nodes = (
(388,192,l),
(304,389,l),
(456,578,l),
(459,595,l),
(291,388,l),
(385,174,l)
);
},
{
closed = 1;
nodes = (
(228,192,l),
(143,388,l),
(296,578,l),
(299,595,l),
(131,388,l),
(225,174,l)
);
}
);
width = 553;
},
{
layerId = m01;
shapes = (
{
closed = 1;
nodes = (
(498,113,l),
(456,349,l),
(581,585,l),
(425,585,l),
(305,349,l),
(342,113,l)
);
},
{
closed = 1;
nodes = (
(247,113,l),
(206,349,l),
(330,585,l),
(174,585,l),
(54,349,l),
(91,113,l)
);
}
);
width = 594;
}
);
unicode = 171;
},
{
color = 2;
glyphname = guillemetright;
lastChange = "2024-08-03 20:13:23 +0000";
layers = (
{
layerId = m002;
shapes = (
{
closed = 1;
nodes = (
(262,381,l),
(168,595,l),
(165,577,l),
(250,381,l),
(97,191,l),
(94,174,l)
);
},
{
closed = 1;
nodes = (
(422,381,l),
(328,595,l),
(325,577,l),
(410,381,l),
(257,191,l),
(254,174,l)
);
}
);
width = 553;
},
{
layerId = m01;
shapes = (
{
closed = 1;
nodes = (
(289,349,l),
(252,585,l),
(96,585,l),
(138,349,l),
(13,113,l),
(169,113,l)
);
},
{
closed = 1;
nodes = (
(540,349,l),
(503,585,l),
(347,585,l),
(388,349,l),
(264,113,l),
(420,113,l)
);
}
);
width = 594;
}
);
unicode = 187;
},
{
color = 2;
glyphname = guilsinglleft;
lastChange = "2024-08-03 20:13:23 +0000";
layers = (
{
layerId = m002;
shapes = (
{
closed = 1;
nodes = (
(208,192,l),
(123,388,l),
(276,578,l),
(279,595,l),
(111,388,l),
(205,174,l)
);
}
);
width = 353;
},
{
layerId = m01;
shapes = (
{
closed = 1;
nodes = (
(266,113,l),
(204,349,l),
(349,585,l),
(182,585,l),
(42,349,l),
(99,113,l)
);
}
);
width = 350;
}
);
unicode = 8249;
},
{
color = 2;
glyphname = guilsinglright;
lastChange = "2024-08-03 20:13:23 +0000";
layers = (
{
layerId = m002;
shapes = (
{
closed = 1;
nodes = (
(243,388,l),
(148,595,l),
(145,577,l),
(231,388,l),
(77,192,l),
(74,174,l)
);
}
);
width = 353;
},
{
layerId = m01;
shapes = (
{
closed = 1;
nodes = (
(298,349,l),
(241,585,l),
(74,585,l),
(136,349,l),
(-9,113,l),
(158,113,l)
);
}
);
width = 350;
}
);
unicode = 8250;
},
{
color = 2;
glyphname = quotedbl;
lastChange = "2024-08-03 20:13:23 +0000";
layers = (
{
layerId = m002;
shapes = (
{
closed = 1;
nodes = (
(148,718,l),
(171,784,l),
(174,800,l),
(140,800,l),
(137,784,l),
(139,718,l)
);
},
{
closed = 1;
nodes = (
(248,718,l),
(271,784,l),
(274,800,l),
(240,800,l),
(237,784,l),
(239,718,l)
);
}
);
width = 400;
},
{
layerId = m01;
shapes = (
{
closed = 1;
nodes = (
(151,553,l),
(237,800,l),
(246,850,l),
(106,850,l),
(97,800,l),
(99,553,l)
);
},
{
closed = 1;
nodes = (
(351,553,l),
(438,800,l),
(446,850,l),
(306,850,l),
(297,800,l),
(299,553,l)
);
}
);
width = 500;
}
);
unicode = 34;
},
{
color = 2;
glyphname = quotesingle;
lastChange = "2024-08-03 20:13:23 +0000";
layers = (
{
layerId = m002;
shapes = (
{
closed = 1;
nodes = (
(148,718,l),
(171,784,l),
(174,800,l),
(140,800,l),
(137,784,l),
(139,718,l)
);
}
);
width = 300;
},
{
layerId = m01;
shapes = (
{
closed = 1;
nodes = (
(151,553,l),
(237,800,l),
(246,850,l),
(106,850,l),
(97,800,l),
(99,553,l)
);
}
);
width = 300;
}
);
unicode = 39;
},
{
color = 3;
glyphname = at;
lastChange = "2024-08-03 21:10:11 +0000";
layers = (
{
layerId = m002;
shapes = (
{
closed = 1;
nodes = (
(452,-9,o),
(505,26,o),
(519,108,c),
(584,480,ls),
(607,605,o),
(569,659,o),
(460,659,cs),
(350,659,o),
(296,605,o),
(279,480,c),
(289,480,l),
(305,598,o),
(356,649,o),
(458,649,cs),
(560,649,o),
(595,598,o),
(574,480,cs),
(551,346,l),
(333,346,o),
(230,289,o),
(207,157,cs),
(187,41,o),
(227,-9,o),
(342,-9,cs)
);
},
{
closed = 1;
nodes = (
(236,1,o),
(198,48,o),
(217,157,cs),
(239,282,o),
(339,336,o),
(549,336,c),
(508,108,ls),
(495,33,o),
(445,1,o),
(344,1,cs)
);
},
{
closed = 1;
nodes = (
(559,336,l),
(700,336,o),
(748,267,o),
(720,108,cs),
(682,-107,o),
(559,-199,o),
(309,-199,c),
(307,-209,l),
(564,-209,o),
(691,-114,o),
(730,108,cs),
(759,274,o),
(708,346,o),
(561,346,c)
);
},
{
closed = 1;
nodes = (
(309,-199,l),
(64,-199,o),
(-13,-40,o),
(52,330,cs),
(116,694,o),
(248,849,o),
(493,849,cs),
(734,849,o),
(815,722,o),
(763,423,c),
(773,423,l),
(827,729,o),
(743,859,o),
(495,859,cs),
(243,859,o),
(107,701,o),
(42,330,cs),
(-24,-46,o),
(56,-208,o),
(307,-208,c)
);
}
);
width = 836;
},
{
layerId = m01;
shapes = (
{
closed = 1;
nodes = (
(520,-9,o),
(599,52,o),
(622,177,c),
(675,480,ls),
(696,600,o),
(637,659,o),
(496,659,cs),
(345,659,o),
(265,600,o),
(249,480,c),
(379,480,l),
(385,527,o),
(417,549,o),
(476,549,cs),
(530,549,o),
(553,527,o),
(544,480,cs),
(530,396,l),
(328,396,o),
(215,317,o),
(187,157,cs),
(167,46,o),
(230,-9,o),
(378,-9,cs)
);
},
{
closed = 1;
nodes = (
(338,102,o),
(311,120,o),
(317,157,cs),
(333,244,o),
(396,286,o),
(510,286,c),
(490,177,ls),
(480,126,o),
(450,102,o),
(398,102,cs)
);
},
{
closed = 1;
nodes = (
(641,286,l),
(695,286,o),
(715,250,o),
(702,177,cs),
(669,-8,o),
(558,-99,o),
(363,-99,c),
(343,-209,l),
(626,-209,o),
(787,-82,o),
(832,177,cs),
(858,324,o),
(801,396,o),
(660,396,c)
);
},
{
closed = 1;
nodes = (
(363,-99,l),
(164,-99,o),
(92,42,o),
(142,330,cs),
(192,612,o),
(313,749,o),
(511,749,cs),
(699,749,o),
(774,659,o),
(742,473,c),
(872,473,l),
(918,733,o),
(805,859,o),
(531,859,c),
(245,859,o),
(74,686,o),
(12,330,cs),
(-52,-31,o),
(58,-208,o),
(343,-208,c)
);
}
);
width = 896;
}
);
metricLeft = O;
metricRight = O;
unicode = 64;
},
{
color = 3;
glyphname = ampersand;
lastChange = "2024-08-03 21:44:10 +0000";
layers = (
{
layerId = m002;
shapes = (
{
closed = 1;
nodes = (
(342,-8,o),
(512,131,o),
(581,325,cs),
(607,398,o),
(601,478,o),
(565,529,c),
(556,523,l),
(591,473,o),
(595,395,o),
(571,325,cs),
(504,137,o),
(341,2,o),
(174,2,cs),
(39,2,o),
(-37,90,o),
(7,212,cs),
(91,452,o),
(411,508,o),
(475,689,cs),
(501,762,o),
(467,808,o),
(396,808,cs),
(327,808,o),
(259,754,o),
(231,671,cs),
(217,634,o),
(228,566,o),
(255,503,cs),
(360,264,o),
(432,96,o),
(477,-5,c),
(487,2,l),
(479,14,o),
(387,225,o),
(264,511,cs),
(238,573,o),
(229,638,o),
(241,671,cs),
(267,748,o),
(329,798,o),
(392,798,cs),
(457,798,o),
(489,756,o),
(465,689,cs),
(401,508,o),
(81,455,o),
(-3,215,cs),
(-49,85,o),
(29,-8,o),
(170,-8,cs)
);
}
);
width = 628;
},
{
background = {
shapes = (
{
closed = 1;
nodes = (
(489,72,o),
(355,231,o),
(207,406,cs),
(165,453,o),
(139,507,o),
(139,545,cs),
(139,616,o),
(168,660,o),
(214,660,cs),
(274,660,o),
(312,621,o),
(312,560,cs),
(312,411,o),
(123,368,o),
(123,213,cs),
(123,82,o),
(191,0,o),
(300,0,cs),
(438,0,o),
(525,125,o),
(525,323,cs),
(525,413,o),
(485,470,o),
(421,470,c),
(421,480,l),
(491,480,o),
(535,419,o),
(535,323,cs),
(535,118,o),
(444,-10,o),
(300,-10,cs),
(185,-10,o),
(113,76,o),
(113,213,cs),
(113,368,o),
(302,411,o),
(302,560,cs),
(302,615,o),
(268,650,o),
(214,650,cs),
(174,650,o),
(149,609,o),
(149,545,cs),
(149,513,o),
(174,463,o),
(213,414,cs),
(429,158,o),
(564,-2,o),
(562,0,c),
(555,-7,l)
);
}
);
};
layerId = m01;
shapes = (
{
closed = 1;
nodes = (
(411,-8,o),
(593,122,o),
(657,304,cs),
(693,406,o),
(690,504,o),
(650,541,c),
(552,446,l),
(573,426,o),
(574,367,o),
(552,304,cs),
(512,192,o),
(388,102,o),
(257,102,cs),
(177,102,o),
(134,161,o),
(158,228,cs),
(216,394,o),
(497,360,o),
(579,592,cs),
(625,720,o),
(575,813,o),
(459,813,cs),
(337,813,o),
(222,728,o),
(182,610,cs),
(156,540,o),
(169,449,o),
(212,392,cs),
(212,392,o),
(341,223,o),
(524,-15,c),
(631,77,l),
(459,311,o),
(338,478,o),
(338,478,cs),
(307,518,o),
(293,574,o),
(307,610,cs),
(323,658,o),
(369,693,o),
(417,693,cs),
(463,693,o),
(479,650,o),
(459,592,cs),
(411,458,o),
(82,406,o),
(20,228,cs),
(-28,91,o),
(59,-8,o),
(217,-8,cs)
);
}
);
width = 711;
}
);
metricLeft = M;
metricRight = M;
unicode = 38;
},
{
color = 3;
glyphname = paragraph;
lastChange = "2024-08-03 20:14:06 +0000";
layers = (
{
layerId = m002;
shapes = (
{
closed = 1;
nodes = (
(213,-98,l),
(228,-98,l),
(386,804,l),
(376,804,l),
(231,804,o),
(153,716,o),
(136,618,cs),
(119,521,o),
(176,410,o),
(307,410,c),
(218,-98,l)
);
},
{
closed = 1;
nodes = (
(346,-98,l),
(504,804,l),
(494,804,l),
(336,-98,l)
);
}
);
width = 600;
},
{
layerId = m01;
shapes = (
{
closed = 1;
nodes = (
(164,-98,l),
(258,-98,l),
(416,804,l),
(328,804,l),
(182,804,o),
(105,716,o),
(88,618,cs),
(70,521,o),
(128,410,o),
(259,410,c),
(169,-98,l)
);
},
{
closed = 1;
nodes = (
(398,-98,l),
(556,804,l),
(468,804,l),
(310,-98,l)
);
}
);
width = 600;
}
);
unicode = 182;
},
{
color = 3;
glyphname = section;
lastChange = "2024-08-03 20:14:06 +0000";
layers = (
{
background = {
shapes = (
{
closed = 1;
nodes = (
(124,525,o),
(52,461,o),
(55,331,cs),
(60,96,o),
(383,139,o),
(389,-48,cs),
(392,-150,o),
(348,-200,o),
(254,-200,cs),
(158,-200,o),
(109,-143,o),
(104,-28,c),
(94,-28,l),
(100,-150,o),
(153,-210,o),
(254,-210,cs),
(356,-210,o),
(404,-157,o),
(399,-48,cs),
(395,147,o),
(73,102,o),
(65,331,cs),
(61,455,o),
(130,516,o),
(274,516,c),
(274,525,l)
);
},
{
closed = 1;
nodes = (
(163,863,o),
(110,810,o),
(113,705,cs),
(119,490,o),
(443,529,o),
(450,326,cs),
(455,189,o),
(387,122,o),
(242,122,c),
(242,112,l),
(393,112,o),
(465,182,o),
(460,326,cs),
(453,541,o),
(129,494,o),
(123,705,cs),
(120,804,o),
(169,853,o),
(273,853,cs),
(370,853,o),
(419,797,o),
(424,685,c),
(434,685,l),
(431,804,o),
(378,863,o),
(273,863,cs)
);
}
);
};
layerId = m002;
shapes = (
{
closed = 1;
nodes = (
(359,128,o),
(442,192,o),
(462,322,cs),
(498,556,o),
(167,514,o),
(193,700,cs),
(208,802,o),
(261,852,o),
(355,852,cs),
(451,852,o),
(491,795,o),
(475,680,c),
(486,680,l),
(501,802,o),
(458,862,o),
(357,862,cs),
(255,862,o),
(197,809,o),
(183,700,cs),
(153,506,o),
(484,550,o),
(452,322,cs),
(434,198,o),
(354,137,o),
(210,137,c),
(208,128,l)
);
},
{
closed = 1;
nodes = (
(260,-209,o),
(318,-156,o),
(333,-51,cs),
(365,163,o),
(38,124,o),
(67,327,cs),
(86,464,o),
(166,531,o),
(311,531,c),
(313,540,l),
(161,540,o),
(77,471,o),
(57,327,cs),
(26,113,o),
(354,159,o),
(323,-51,cs),
(309,-150,o),
(256,-199,o),
(152,-199,cs),
(55,-199,o),
(27,-139,o),
(42,-27,c),
(32,-27,l),
(14,-146,o),
(45,-209,o),
(150,-209,cs)
);
}
);
width = 522;
},
{
background = {
shapes = (
{
closed = 1;
nodes = (
(103,536,o),
(15,461,o),
(15,325,cs),
(15,98,o),
(332,90,o),
(332,-28,cs),
(332,-85,o),
(306,-116,o),
(260,-116,cs),
(216,-116,o),
(202,-66,o),
(202,24,c),
(75,24,l),
(75,-126,o),
(141,-210,o),
(260,-210,cs),
(392,-210,o),
(466,-134,o),
(466,2,cs),
(466,230,o),
(149,232,o),
(149,355,cs),
(149,415,o),
(189,448,o),
(260,448,c),
(260,536,l)
);
},
{
closed = 1;
nodes = (
(128,871,o),
(55,795,o),
(55,659,cs),
(55,431,o),
(372,424,o),
(372,306,cs),
(372,245,o),
(332,211,o),
(260,211,c),
(260,124,l),
(418,124,o),
(506,200,o),
(506,336,cs),
(506,564,o),
(189,566,o),
(189,689,cs),
(189,745,o),
(214,777,o),
(260,777,cs),
(312,777,o),
(341,726,o),
(341,636,c),
(458,636,l),
(458,786,o),
(387,871,o),
(260,871,cs)
);
}
);
};
layerId = m01;
shapes = (
{
closed = 1;
nodes = (
(382,126,o),
(484,200,o),
(508,336,cs),
(547,562,o),
(231,570,o),
(252,688,cs),
(262,745,o),
(292,776,o),
(338,776,cs),
(382,776,o),
(410,725,o),
(395,635,c),
(512,635,l),
(538,785,o),
(475,870,o),
(356,870,cs),
(223,870,o),
(136,794,o),
(112,658,cs),
(72,431,o),
(390,429,o),
(368,306,cs),
(357,246,o),
(312,213,o),
(240,213,c),
(225,126,l)
);
},
{
closed = 1;
nodes = (
(299,-209,o),
(385,-133,o),
(409,3,cs),
(449,230,o),
(132,237,o),
(153,355,cs),
(164,416,o),
(210,450,o),
(282,450,c),
(297,536,l),
(139,536,o),
(37,461,o),
(13,325,cs),
(-26,98,o),
(291,96,o),
(269,-27,cs),
(260,-83,o),
(229,-115,o),
(183,-115,cs),
(131,-115,o),
(111,-64,o),
(126,26,c),
(9,26,l),
(-17,-124,o),
(39,-209,o),
(166,-209,cs)
);
}
);
width = 521;
}
);
unicode = 167;
},
{
color = 3;
glyphname = copyright;
lastChange = "2024-08-03 21:10:11 +0000";
layers = (
{
layerId = m002;
shapes = (
{
closed = 1;
nodes = (
(576,-95,o),
(780,78,o),
(818,294,cs),
(856,510,o),
(713,683,o),
(495,683,cs),
(278,683,o),
(74,510,o),
(36,294,cs),
(-2,78,o),
(141,-95,o),
(359,-95,cs)
);
},
{
closed = 1;
nodes = (
(149,-85,o),
(9,83,o),
(46,294,cs),
(83,505,o),
(282,673,o),
(495,673,cs),
(706,673,o),
(845,505,o),
(808,294,cs),
(771,83,o),
(573,-85,o),
(361,-85,cs)
);
},
{
closed = 1;
nodes = (
(619,370,l),
(634,503,o),
(576,569,o),
(477,569,cs),
(348,569,o),
(268,476,o),
(240,314,cs),
(207,126,o),
(252,21,o),
(381,21,cs),
(467,21,o),
(556,80,o),
(585,200,c),
(575,200,l),
(547,87,o),
(462,31,o),
(383,31,cs),
(260,31,o),
(218,132,o),
(250,312,cs),
(277,469,o),
(353,559,o),
(476,559,cs),
(568,559,o),
(623,498,o),
(609,370,c)
);
}
);
width = 891;
},
{
layerId = m01;
shapes = (
{
closed = 1;
nodes = (
(544,-95,o),
(750,80,o),
(788,294,cs),
(826,508,o),
(681,683,o),
(465,683,cs),
(250,683,o),
(44,508,o),
(6,294,cs),
(-32,80,o),
(113,-95,o),
(329,-95,cs)
);
},
{
closed = 1;
nodes = (
(172,-14,o),
(58,123,o),
(88,294,cs),
(118,464,o),
(281,601,o),
(452,601,cs),
(622,601,o),
(737,464,o),
(707,294,cs),
(677,123,o),
(514,-14,o),
(344,-14,cs)
);
},
{
closed = 1;
nodes = (
(563,359,l),
(584,481,o),
(545,540,o),
(443,540,cs),
(335,540,o),
(269,465,o),
(242,311,cs),
(211,139,o),
(250,56,o),
(358,56,cs),
(458,56,o),
(516,110,o),
(536,222,c),
(425,222,l),
(417,175,o),
(400,153,o),
(375,153,cs),
(344,153,o),
(339,204,o),
(358,310,cs),
(373,399,o),
(395,443,o),
(426,443,cs),
(454,443,o),
(463,415,o),
(453,359,c)
);
}
);
width = 831;
}
);
metricLeft = O;
metricRight = O;
unicode = 169;
},
{
color = 3;
glyphname = registered;
lastChange = "2024-08-03 21:10:11 +0000";
layers = (
{
layerId = m002;
shapes = (
{
closed = 1;
nodes = (
(411,286,o),
(532,388,o),
(555,518,cs),
(577,647,o),
(492,749,o),
(363,749,cs),
(232,749,o),
(111,647,o),
(89,518,cs),
(66,388,o),
(151,286,o),
(281,286,cs)
);
},
{
closed = 1;
nodes = (
(159,296,o),
(77,394,o),
(99,518,cs),
(120,642,o),
(237,739,o),
(361,739,cs),
(485,739,o),
(566,642,o),
(545,518,cs),
(523,394,o),
(407,296,o),
(283,296,cs)
);
},
{
closed = 1;
nodes = (
(239,377,l),
(262,503,l),
(331,503,l),
(332,500,l),
(356,377,l),
(367,377,l),
(341,506,l),
(376,514,o),
(405,546,o),
(411,582,cs),
(420,629,o),
(393,663,o),
(346,663,cs),
(279,663,l),
(229,377,l)
);
},
{
closed = 1;
nodes = (
(288,653,l),
(345,653,ls),
(385,653,o),
(409,624,o),
(401,582,cs),
(394,542,o),
(360,513,o),
(320,513,cs),
(263,513,l)
);
}
);
width = 576;
},
{
layerId = m01;
shapes = (
{
closed = 1;
nodes = (
(369,286,o),
(491,389,o),
(514,518,cs),
(536,646,o),
(450,749,o),
(322,749,cs),
(192,749,o),
(70,646,o),
(48,518,cs),
(25,389,o),
(111,286,o),
(240,286,cs)
);
},
{
closed = 1;
nodes = (
(144,329,o),
(73,414,o),
(92,518,cs),
(110,622,o),
(210,707,o),
(314,707,cs),
(418,707,o),
(489,622,o),
(471,518,cs),
(452,414,o),
(352,329,o),
(248,329,cs)
);
},
{
closed = 1;
nodes = (
(240,377,l),
(260,485,l),
(274,485,l),
(281,485,l),
(294,377,l),
(351,377,l),
(335,501,l),
(359,517,o),
(374,544,o),
(381,582,cs),
(390,637,o),
(366,663,o),
(305,663,cs),
(238,663,l),
(188,377,l)
);
},
{
closed = 1;
nodes = (
(282,615,l),
(297,615,ls),
(318,615,o),
(327,604,o),
(323,582,cs),
(318,549,o),
(304,533,o),
(283,533,cs),
(268,533,l)
);
}
);
width = 494;
}
);
metricLeft = o;
metricRight = o;
unicode = 174;
},
{
color = 3;
glyphname = degree;
lastChange = "2024-08-03 20:14:06 +0000";
layers = (
{
layerId = m002;
shapes = (
{
closed = 1;
nodes = (
(278,496,o),
(351,559,o),
(366,648,cs),
(382,737,o),
(331,800,o),
(243,800,cs),
(154,800,o),
(81,737,o),
(66,648,cs),
(50,559,o),
(101,496,o),
(189,496,cs)
);
},
{
closed = 1;
nodes = (
(109,506,o),
(61,565,o),
(76,648,cs),
(90,731,o),
(159,790,o),
(241,790,cs),
(323,790,o),
(371,731,o),
(356,648,cs),
(342,565,o),
(273,506,o),
(191,506,cs)
);
}
);
width = 432;
},
{
layerId = m01;
shapes = (
{
closed = 1;
nodes = (
(274,496,o),
(351,563,o),
(366,648,cs),
(381,733,o),
(327,800,o),
(243,800,cs),
(158,800,o),
(81,733,o),
(66,648,cs),
(51,563,o),
(105,496,o),
(189,496,cs)
);
},
{
closed = 1;
nodes = (
(172,586,o),
(150,613,o),
(156,648,cs),
(162,683,o),
(194,710,o),
(227,710,cs),
(260,710,o),
(282,683,o),
(276,648,cs),
(270,613,o),
(238,586,o),
(205,586,cs)
);
}
);
width = 432;
}
);
unicode = 176;
},
{
color = 3;
glyphname = bar;
lastChange = "2024-08-03 21:08:02 +0000";
layers = (
{
layerId = m002;
shapes = (
{
closed = 1;
nodes = (
(352,849,l),
(342,849,l),
(158,-199,l),
(168,-199,l)
);
}
);
width = 510;
},
{
layerId = m01;
shapes = (
{
closed = 1;
nodes = (
(412,849,l),
(272,849,l),
(88,-199,l),
(228,-199,l)
);
}
);
width = 500;
}
);
unicode = 124;
},
{
color = 3;
glyphname = cent;
lastChange = "2024-08-03 20:14:06 +0000";
layers = (
{
layerId = m002;
shapes = (
{
closed = 1;
nodes = (
(420,478,l),
(438,585,o),
(382,659,o),
(284,659,cs),
(174,659,o),
(80,564,o),
(56,429,cs),
(30,278,o),
(88,172,o),
(199,172,cs),
(296,172,o),
(376,241,o),
(393,339,c),
(383,339,l),
(367,246,o),
(291,181,o),
(200,181,cs),
(96,181,o),
(41,283,o),
(66,428,cs),
(89,559,o),
(178,650,o),
(283,650,cs),
(375,650,o),
(427,579,o),
(410,478,c)
);
},
{
closed = 1;
nodes = (
(302,762,l),
(292,762,l),
(168,54,l),
(178,54,l)
);
}
);
width = 460;
},
{
layerId = m01;
shapes = (
{
closed = 1;
nodes = (
(420,478,l),
(438,585,o),
(382,659,o),
(284,659,cs),
(174,659,o),
(80,564,o),
(56,429,cs),
(30,278,o),
(88,172,o),
(199,172,cs),
(296,172,o),
(376,241,o),
(393,339,c),
(281,339,l),
(274,299,o),
(247,270,o),
(216,270,cs),
(175,270,o),
(157,335,o),
(173,428,cs),
(187,506,o),
(226,561,o),
(267,561,cs),
(300,561,o),
(318,527,o),
(309,478,c)
);
},
{
closed = 1;
nodes = (
(322,762,l),
(282,762,l),
(158,54,l),
(198,54,l)
);
}
);
width = 460;
}
);
unicode = 162;
},
{
color = 3;
glyphname = dollar;
lastChange = "2024-08-03 20:14:06 +0000";
layers = (
{
layerId = m002;
shapes = (
{
closed = 1;
nodes = (
(314,41,o),
(397,112,o),
(419,240,cs),
(457,455,o),
(35,356,o),
(70,559,cs),
(92,684,o),
(171,754,o),
(291,754,cs),
(423,754,o),
(483,670,o),
(456,519,c),
(464,519,l),
(492,676,o),
(434,764,o),
(303,764,cs),
(171,764,o),
(83,690,o),
(60,559,cs),
(23,344,o),
(445,443,o),
(409,240,cs),
(388,119,o),
(309,51,o),
(189,51,cs),
(56,51,o),
(-2,133,o),
(23,280,c),
(13,280,l),
(-14,127,o),
(49,41,o),
(187,41,cs)
);
},
{
closed = 1;
nodes = (
(324,849,l),
(314,849,l),
(156,-48,l),
(166,-48,l)
);
}
);
width = 600;
},
{
layerId = m01;
shapes = (
{
closed = 1;
nodes = (
(309,41,o),
(396,112,o),
(418,240,cs),
(456,455,o),
(191,439,o),
(212,559,cs),
(220,605,o),
(244,629,o),
(279,629,cs),
(318,629,o),
(332,590,o),
(320,519,c),
(473,519,l),
(501,676,o),
(440,764,o),
(303,764,cs),
(170,764,o),
(82,690,o),
(59,559,cs),
(22,344,o),
(288,360,o),
(267,240,cs),
(260,198,o),
(236,176,o),
(200,176,cs),
(160,176,o),
(146,213,o),
(158,280,c),
(7,280,l),
(-20,127,o),
(41,41,o),
(176,41,cs)
);
},
{
closed = 1;
nodes = (
(338,849,l),
(298,849,l),
(140,-48,l),
(180,-48,l)
);
}
);
width = 480;
}
);
unicode = 36;
},
{
color = 3;
glyphname = euro;
lastChange = "2024-08-03 20:14:06 +0000";
layers = (
{
layerId = m01;
shapes = (
{
closed = 1;
nodes = (
(483,562,l),
(512,729,o),
(459,811,o),
(321,811,cs),
(171,811,o),
(74,682,o),
(28,420,cs),
(-23,131,o),
(26,-11,o),
(177,-11,cs),
(313,-11,o),
(395,70,o),
(424,235,c),
(270,235,l),
(258,168,o),
(236,134,o),
(202,134,cs),
(162,134,o),
(160,227,o),
(193,420,cs),
(222,586,o),
(256,666,o),
(296,666,cs),
(330,666,o),
(341,631,o),
(328,562,c)
);
},
{
closed = 1;
nodes = (
(354,338,l),
(379,478,l),
(105,478,l),
(81,338,l)
);
}
);
width = 480;
},
{
layerId = m002;
shapes = (
{
closed = 1;
nodes = (
(483,644,l),
(487,750,o),
(426,809,o),
(319,809,cs),
(180,809,o),
(80,671,o),
(36,423,cs),
(-12,146,o),
(37,-9,o),
(175,-9,cs),
(281,-9,o),
(362,51,o),
(396,159,c),
(384,159,l),
(351,57,o),
(275,1,o),
(177,1,cs),
(46,1,o),
(-1,152,o),
(47,423,cs),
(89,664,o),
(186,799,o),
(317,799,cs),
(417,799,o),
(475,744,o),
(472,644,c)
);
},
{
closed = 1;
nodes = (
(284,419,l),
(286,429,l),
(43,429,l),
(41,419,l)
);
}
);
width = 473;
}
);
unicode = 8364;
},
{
color = 3;
glyphname = sterling;
lastChange = "2024-08-03 21:10:11 +0000";
layers = (
{
layerId = m002;
shapes = (
{
closed = 1;
nodes = (
(402,1,l),
(404,11,l),
(27,11,l),
(115,44,o),
(185,143,o),
(206,265,cs),
(225,374,o),
(151,450,o),
(173,573,cs),
(194,694,o),
(268,770,o),
(364,770,cs),
(388,770,o),
(425,760,o),
(460,743,c),
(465,752,l),
(433,769,o),
(395,780,o),
(366,780,cs),
(265,780,o),
(187,700,o),
(165,573,cs),
(142,441,o),
(214,369,o),
(196,265,cs),
(174,140,o),
(99,42,o),
(0,11,c),
(-2,1,l)
);
},
{
closed = 1;
nodes = (
(63,369,l),
(303,369,l),
(304,379,l),
(65,379,l)
);
}
);
width = 514;
},
{
layerId = m01;
shapes = (
{
closed = 1;
nodes = (
(422,1,l),
(443,126,l),
(160,126,l),
(201,162,o),
(232,237,o),
(241,295,cs),
(252,374,o),
(231,471,o),
(244,543,cs),
(256,608,o),
(296,655,o),
(353,655,cs),
(382,655,o),
(415,645,o),
(448,628,c),
(510,733,l),
(454,763,o),
(406,780,o),
(375,780,cs),
(231,780,o),
(134,689,o),
(109,543,cs),
(91,441,o),
(114,344,o),
(105,295,cs),
(92,218,o),
(44,141,o),
(-22,121,c),
(-43,1,l)
);
},
{
closed = 1;
nodes = (
(12,314,l),
(312,314,l),
(333,434,l),
(33,434,l)
);
}
);
width = 493;
}
);
metricLeft = o;
metricRight = o;
unicode = 163;
},
{
color = 3;
glyphname = yen;
lastChange = "2024-08-03 20:14:06 +0000";
layers = (
{
layerId = m002;
shapes = (
{
closed = 1;
nodes = (
(114,799,l),
(102,799,l),
(239,410,l),
(249,410,l),
(523,799,l),
(511,799,l),
(246,421,l)
);
},
{
closed = 1;
nodes = (
(239,410,l),
(167,1,l),
(178,1,l),
(249,410,l)
);
},
{
closed = 1;
nodes = (
(34,410,l),
(455,410,l),
(457,420,l),
(36,420,l)
);
},
{
closed = 1;
nodes = (
(17,317,l),
(439,317,l),
(440,327,l),
(19,327,l)
);
}
);
width = 486;
},
{
layerId = m01;
shapes = (
{
closed = 1;
nodes = (
(254,799,l),
(102,799,l),
(267,410,l),
(421,410,l),
(723,799,l),
(571,799,l),
(363,515,l)
);
},
{
closed = 1;
nodes = (
(267,410,l),
(195,1,l),
(350,1,l),
(421,410,l)
);
},
{
closed = 1;
nodes = (
(134,410,l),
(555,410,l),
(565,468,l),
(144,468,l)
);
},
{
closed = 1;
nodes = (
(109,269,l),
(530,269,l),
(540,327,l),
(119,327,l)
);
}
);
width = 686;
}
);
unicode = 165;
},
{
color = 3;
glyphname = plus;
lastChange = "2024-08-03 20:14:06 +0000";
layers = (
{
layerId = m002;
shapes = (
{
closed = 1;
nodes = (
(18,385,l),
(580,385,l),
(582,395,l),
(20,395,l)
);
},
{
closed = 1;
nodes = (
(344,669,l),
(246,111,l),
(256,111,l),
(354,669,l)
);
}
);
width = 600;
},
{
layerId = m01;
shapes = (
{
closed = 1;
nodes = (
(42,310,l),
(544,310,l),
(558,390,l),
(56,390,l)
);
},
{
closed = 1;
nodes = (
(304,599,l),
(216,101,l),
(296,101,l),
(384,599,l)
);
}
);
width = 600;
}
);
unicode = 43;
},
{
color = 3;
glyphname = minus;
lastChange = "2024-08-03 20:14:06 +0000";
layers = (
{
layerId = m002;
shapes = (
{
closed = 1;
nodes = (
(18,385,l),
(580,385,l),
(582,395,l),
(20,395,l)
);
}
);
width = 600;
},
{
layerId = m01;
shapes = (
{
closed = 1;
nodes = (
(42,310,l),
(544,310,l),
(558,390,l),
(56,390,l)
);
}
);
width = 600;
}
);
unicode = 8722;
},
{
color = 3;
glyphname = multiply;
lastChange = "2024-08-03 20:14:06 +0000";
layers = (
{
layerId = m002;
shapes = (
{
closed = 1;
nodes = (
(131,584,l),
(459,188,l),
(469,196,l),
(141,592,l)
);
},
{
closed = 1;
nodes = (
(530,592,l),
(64,196,l),
(70,188,l),
(536,584,l)
);
}
);
width = 600;
},
{
layerId = m01;
shapes = (
{
closed = 1;
nodes = (
(120,498,l),
(412,145,l),
(480,202,l),
(188,555,l)
);
},
{
closed = 1;
nodes = (
(484,555,l),
(69,202,l),
(116,145,l),
(531,498,l)
);
}
);
width = 600;
}
);
unicode = 215;
},
{
color = 3;
glyphname = divide;
lastChange = "2024-08-03 20:14:06 +0000";
layers = (
{
layerId = m002;
shapes = (
{
closed = 1;
nodes = (
(18,385,l),
(579,385,l),
(581,395,l),
(20,395,l)
);
},
{
closed = 1;
nodes = (
(234,171,l),
(268,171,l),
(274,204,l),
(240,204,l)
);
},
{
closed = 1;
nodes = (
(306,580,l),
(340,580,l),
(346,613,l),
(312,613,l)
);
}
);
width = 600;
},
{
layerId = m01;
shapes = (
{
closed = 1;
nodes = (
(42,310,l),
(543,310,l),
(557,390,l),
(56,390,l)
);
},
{
closed = 1;
nodes = (
(183,51,l),
(310,51,l),
(335,194,l),
(209,194,l)
);
},
{
closed = 1;
nodes = (
(265,516,l),
(391,516,l),
(417,659,l),
(290,659,l)
);
}
);
width = 600;
}
);
unicode = 247;
},
{
color = 3;
glyphname = equal;
lastChange = "2024-08-03 20:14:06 +0000";
layers = (
{
layerId = m002;
shapes = (
{
closed = 1;
nodes = (
(36,485,l),
(597,485,l),
(599,495,l),
(38,495,l)
);
},
{
closed = 1;
nodes = (
(1,285,l),
(562,285,l),
(564,295,l),
(3,295,l)
);
}
);
width = 600;
},
{
layerId = m01;
shapes = (
{
closed = 1;
nodes = (
(60,410,l),
(561,410,l),
(575,490,l),
(74,490,l)
);
},
{
closed = 1;
nodes = (
(25,210,l),
(526,210,l),
(540,290,l),
(39,290,l)
);
}
);
width = 600;
}
);
unicode = 61;
},
{
color = 3;
glyphname = greater;
lastChange = "2024-08-03 20:14:06 +0000";
layers = (
{
layerId = m002;
shapes = (
{
closed = 1;
nodes = (
(103,657,l),
(528,386,l),
(547,386,l),
(110,665,l)
);
},
{
closed = 1;
nodes = (
(547,386,l),
(528,386,l),
(8,115,l),
(12,107,l)
);
}
);
width = 600;
},
{
layerId = m01;
shapes = (
{
closed = 1;
nodes = (
(95,516,l),
(389,336,l),
(539,336,l),
(147,585,l)
);
},
{
closed = 1;
nodes = (
(539,336,l),
(389,336,l),
(32,156,l),
(60,87,l)
);
}
);
width = 600;
}
);
unicode = 62;
},
{
color = 3;
glyphname = less;
lastChange = "2024-08-03 20:14:06 +0000";
layers = (
{
layerId = m002;
shapes = (
{
closed = 1;
nodes = (
(53,386,l),
(72,386,l),
(592,657,l),
(588,665,l)
);
},
{
closed = 1;
nodes = (
(497,115,l),
(72,386,l),
(53,386,l),
(490,107,l)
);
}
);
width = 600;
},
{
layerId = m01;
shapes = (
{
closed = 1;
nodes = (
(61,336,l),
(211,336,l),
(568,516,l),
(540,585,l)
);
},
{
closed = 1;
nodes = (
(505,156,l),
(211,336,l),
(61,336,l),
(453,87,l)
);
}
);
width = 600;
}
);
unicode = 60;
},
{
color = 3;
glyphname = asciitilde;
lastChange = "2024-08-03 20:14:06 +0000";
layers = (
{
background = {
shapes = (
{
closed = 1;
nodes = (
(123,204,l),
(123,265,o),
(152,299,o),
(203,299,cs),
(254,299,o),
(310,193,o),
(398,193,cs),
(487,193,o),
(537,250,o),
(537,352,c),
(477,352,l),
(477,298,o),
(449,268,o),
(398,268,cs),
(347,268,o),
(288,376,o),
(200,376,cs),
(112,376,o),
(63,315,o),
(63,204,c)
);
}
);
};
layerId = m002;
shapes = (
{
closed = 1;
nodes = (
(59,204,l),
(77,308,o),
(125,366,o),
(194,366,cs),
(296,366,o),
(294,193,o),
(403,193,cs),
(479,193,o),
(532,250,o),
(550,352,c),
(540,352,l),
(523,256,o),
(475,203,o),
(404,203,cs),
(303,203,o),
(304,376,o),
(196,376,cs),
(121,376,o),
(68,315,o),
(49,204,c)
);
}
);
width = 600;
},
{
layerId = m01;
shapes = (
{
closed = 1;
nodes = (
(109,204,l),
(120,265,o),
(155,299,o),
(206,299,cs),
(257,299,o),
(294,193,o),
(383,193,cs),
(472,193,o),
(532,250,o),
(550,352,c),
(490,352,l),
(480,298,o),
(447,268,o),
(396,268,cs),
(345,268,o),
(304,376,o),
(216,376,cs),
(128,376,o),
(68,315,o),
(49,204,c)
);
}
);
width = 600;
}
);
unicode = 126;
},
{
color = 3;
glyphname = asciicircum;
lastChange = "2024-08-03 20:14:06 +0000";
layers = (
{
layerId = m002;
shapes = (
{
closed = 1;
nodes = (
(48,597,l),
(227,835,l),
(229,844,l),
(45,600,l)
);
},
{
closed = 1;
nodes = (
(229,844,l),
(227,835,l),
(323,597,l),
(328,600,l)
);
}
);
width = 414;
},
{
layerId = m01;
shapes = (
{
closed = 1;
nodes = (
(53,463,l),
(221,694,l),
(240,800,l),
(8,492,l)
);
},
{
closed = 1;
nodes = (
(240,800,l),
(221,694,l),
(309,463,l),
(364,492,l)
);
}
);
width = 421;
}
);
unicode = 94;
},
{
color = 3;
glyphname = percent;
lastChange = "2024-08-03 20:14:06 +0000";
layers = (
{
layerId = m002;
shapes = (
{
closed = 1;
nodes = (
(224,389,o),
(276,461,o),
(302,607,cs),
(325,738,o),
(296,803,o),
(214,803,cs),
(134,803,o),
(83,738,o),
(59,607,cs),
(34,461,o),
(61,389,o),
(142,389,cs)
);
},
{
closed = 1;
nodes = (
(66,399,o),
(44,464,o),
(69,607,cs),
(92,735,o),
(135,793,o),
(212,793,cs),
(291,793,o),
(315,735,o),
(292,607,cs),
(267,464,o),
(221,399,o),
(143,399,cs)
);
},
{
closed = 1;
nodes = (
(452,-4,o),
(505,68,o),
(531,214,cs),
(554,345,o),
(525,410,o),
(443,410,cs),
(363,410,o),
(311,345,o),
(288,214,cs),
(263,68,o),
(290,-4,o),
(370,-4,cs)
);
},
{
closed = 1;
nodes = (
(295,6,o),
(273,71,o),
(298,214,cs),
(321,342,o),
(364,400,o),
(441,400,cs),
(519,400,o),
(544,347,o),
(522,219,cs),
(497,76,o),
(450,6,o),
(372,6,cs)
);
},
{
closed = 1;
nodes = (
(41,1,l),
(587,849,l),
(576,849,l),
(30,1,l)
);
}
);
width = 595;
},
{
layerId = m01;
shapes = (
{
closed = 1;
nodes = (
(238,447,o),
(290,512,o),
(317,664,cs),
(341,802,o),
(311,861,o),
(229,861,cs),
(148,861,o),
(98,802,o),
(74,664,cs),
(47,512,o),
(75,447,o),
(156,447,cs)
);
},
{
closed = 1;
nodes = (
(146,520,o),
(139,563,o),
(157,664,cs),
(172,751,o),
(193,788,o),
(216,788,cs),
(239,788,o),
(248,751,o),
(232,664,cs),
(214,563,o),
(192,520,o),
(169,520,cs)
);
},
{
closed = 1;
nodes = (
(501,-4,o),
(552,61,o),
(579,214,cs),
(603,351,o),
(574,410,o),
(491,410,cs),
(410,410,o),
(361,351,o),
(337,214,cs),
(310,61,o),
(338,-4,o),
(419,-4,cs)
);
},
{
closed = 1;
nodes = (
(408,69,o),
(402,112,o),
(420,214,cs),
(435,300,o),
(456,337,o),
(479,337,cs),
(502,337,o),
(510,300,o),
(495,214,cs),
(477,112,o),
(455,69,o),
(432,69,cs)
);
},
{
closed = 1;
nodes = (
(94,1,l),
(640,849,l),
(540,849,l),
(-5,1,l)
);
}
);
width = 649;
}
);
unicode = 37;
},
{
color = 4;
glyphname = dieresiscomb;
lastChange = "2024-08-03 20:14:31 +0000";
layers = (
{
anchors = (
{
name = _top;
pos = (121,650);
},
{
name = top;
pos = (153,834);
}
);
layerId = m002;
shapes = (
{
closed = 1;
nodes = (
(65,800,l),
(99,800,l),
(105,834,l),
(71,834,l)
);
},
{
closed = 1;
nodes = (
(195,800,l),
(229,800,l),
(235,834,l),
(201,834,l)
);
}
);
width = 300;
},
{
anchors = (
{
name = _top;
pos = (127,650);
},
{
name = top;
pos = (164,864);
}
);
layerId = m01;
shapes = (
{
closed = 1;
nodes = (
(-18,700,l),
(109,700,l),
(137,864,l),
(11,864,l)
);
},
{
closed = 1;
nodes = (
(163,700,l),
(289,700,l),
(318,864,l),
(191,864,l)
);
}
);
width = 300;
}
);
unicode = 776;
},
{
color = 4;
glyphname = dotaccentcomb;
lastChange = "2024-08-03 20:14:31 +0000";
layers = (
{
anchors = (
{
name = _top;
pos = (119,650);
},
{
name = top;
pos = (154,850);
}
);
layerId = m002;
shapes = (
{
closed = 1;
nodes = (
(138,808,l),
(154,808,l),
(162,850,l),
(146,850,l)
);
}
);
width = 300;
},
{
anchors = (
{
name = _top;
pos = (127,650);
},
{
name = top;
pos = (162,850);
}
);
layerId = m01;
shapes = (
{
closed = 1;
nodes = (
(55,716,l),
(221,716,l),
(245,850,l),
(79,850,l)
);
}
);
width = 300;
}
);
unicode = 775;
},
{
color = 4;
glyphname = gravecomb;
lastChange = "2024-08-03 20:14:31 +0000";
layers = (
{
anchors = (
{
name = _top;
pos = (126,650);
},
{
name = top;
pos = (156,826);
}
);
layerId = m002;
shapes = (
{
closed = 1;
nodes = (
(193,752,l),
(203,765,l),
(107,826,l),
(97,813,l)
);
}
);
width = 300;
},
{
anchors = (
{
name = _top;
pos = (130,650);
},
{
name = top;
pos = (165,850);
}
);
layerId = m01;
shapes = (
{
closed = 1;
nodes = (
(65,696,l),
(212,696,l),
(155,830,l),
(8,830,l)
);
}
);
width = 300;
}
);
unicode = 768;
},
{
color = 4;
glyphname = acutecomb;
lastChange = "2024-08-03 20:14:31 +0000";
layers = (
{
anchors = (
{
name = _top;
pos = (126,650);
},
{
name = top;
pos = (156,826);
}
);
layerId = m002;
shapes = (
{
closed = 1;
nodes = (
(206,826,l),
(89,765,l),
(94,752,l),
(211,813,l)
);
}
);
width = 300;
},
{
anchors = (
{
name = _top;
pos = (97,650);
},
{
name = top;
pos = (165,850);
}
);
layerId = m01;
shapes = (
{
closed = 1;
nodes = (
(129,830,l),
(25,696,l),
(171,696,l),
(275,830,l)
);
}
);
width = 300;
}
);
unicode = 769;
},
{
color = 4;
glyphname = hungarumlautcomb;
lastChange = "2024-08-03 20:14:31 +0000";
layers = (
{
anchors = (
{
name = _top;
pos = (126,650);
},
{
name = top;
pos = (160,846);
}
);
layerId = m002;
shapes = (
{
closed = 1;
nodes = (
(134,846,l),
(54,740,l),
(66,732,l),
(146,838,l)
);
},
{
closed = 1;
nodes = (
(234,846,l),
(154,740,l),
(166,732,l),
(246,838,l)
);
}
);
width = 300;
},
{
anchors = (
{
name = _top;
pos = (127,650);
},
{
name = top;
pos = (162,850);
}
);
layerId = m01;
shapes = (
{
closed = 1;
nodes = (
(48,850,l),
(-35,716,l),
(91,716,l),
(175,850,l)
);
},
{
closed = 1;
nodes = (
(209,850,l),
(125,716,l),
(252,716,l),
(335,850,l)
);
}
);
width = 300;
}
);
unicode = 779;
},
{
color = 4;
glyphname = caroncomb.alt;
lastChange = "2024-08-03 20:14:31 +0000";
layers = (
{
anchors = (
{
name = _topright;
pos = (104,850);
}
);
layerId = m002;
shapes = (
{
closed = 1;
nodes = (
(184,846,l),
(104,740,l),
(116,732,l),
(196,838,l)
);
}
);
width = 300;
},
{
anchors = (
{
name = _topright;
pos = (58,850);
}
);
layerId = m01;
shapes = (
{
closed = 1;
nodes = (
(119,850,l),
(55,716,l),
(181,716,l),
(245,850,l)
);
}
);
width = 300;
}
);
},
{
color = 4;
glyphname = circumflexcomb;
lastChange = "2024-08-03 20:14:31 +0000";
layers = (
{
anchors = (
{
name = _top;
pos = (126,650);
},
{
name = top;
pos = (159,837);
}
);
layerId = m002;
shapes = (
{
closed = 1;
nodes = (
(159,837,l),
(56,751,l),
(66,741,l),
(168,826,l)
);
},
{
closed = 1;
nodes = (
(159,837,l),
(146,826,l),
(218,741,l),
(231,751,l)
);
}
);
width = 300;
},
{
anchors = (
{
name = _top;
pos = (130,650);
},
{
name = top;
pos = (165,850);
}
);
layerId = m01;
shapes = (
{
closed = 1;
nodes = (
(84,830,l),
(-30,696,l),
(86,696,l),
(200,830,l)
);
},
{
closed = 1;
nodes = (
(240,830,l),
(124,830,l),
(191,696,l),
(307,696,l)
);
}
);
width = 300;
}
);
unicode = 770;
},
{
color = 4;
glyphname = caroncomb;
lastChange = "2024-08-03 20:14:31 +0000";
layers = (
{
anchors = (
{
name = _top;
pos = (126,650);
},
{
name = top;
pos = (158,837);
}
);
layerId = m002;
shapes = (
{
closed = 1;
nodes = (
(82,837,l),
(69,827,l),
(141,741,l),
(154,752,l)
);
},
{
closed = 1;
nodes = (
(234,837,l),
(132,752,l),
(141,741,l),
(244,827,l)
);
}
);
width = 300;
},
{
anchors = (
{
name = _top;
pos = (127,650);
},
{
name = top;
pos = (162,850);
}
);
layerId = m01;
shapes = (
{
closed = 1;
nodes = (
(120,850,l),
(-7,850,l),
(30,716,l),
(156,716,l)
);
},
{
closed = 1;
nodes = (
(204,850,l),
(120,716,l),
(246,716,l),
(330,850,l)
);
}
);
width = 300;
}
);
unicode = 780;
},
{
color = 4;
glyphname = brevecomb;
lastChange = "2024-08-03 20:14:31 +0000";
layers = (
{
anchors = (
{
name = _top;
pos = (126,650);
},
{
name = top;
pos = (157,828);
}
);
background = {
shapes = (
{
closed = 1;
nodes = (
(74,837,l),
(63,827,l),
(150,741,l),
(161,752,l)
);
},
{
closed = 1;
nodes = (
(226,837,l),
(139,752,l),
(150,741,l),
(237,827,l)
);
}
);
};
layerId = m002;
shapes = (
{
closed = 1;
nodes = (
(192,741,o),
(235,777,o),
(244,828,c),
(234,828,l),
(226,783,o),
(189,751,o),
(144,751,cs),
(99,751,o),
(72,783,o),
(80,828,c),
(70,828,l),
(61,777,o),
(91,741,o),
(142,741,c)
);
}
);
width = 300;
},
{
anchors = (
{
name = _top;
pos = (130,650);
},
{
name = top;
pos = (165,850);
}
);
background = {
shapes = (
{
closed = 1;
nodes = (
(108,850,l),
(-18,850,l),
(42,716,l),
(168,716,l)
);
},
{
closed = 1;
nodes = (
(192,850,l),
(132,716,l),
(258,716,l),
(318,850,l)
);
}
);
};
layerId = m01;
shapes = (
{
closed = 1;
nodes = (
(226,696,o),
(278,752,o),
(292,830,c),
(204,830,l),
(198,801,o),
(178,781,o),
(154,781,cs),
(129,781,o),
(114,801,o),
(119,830,c),
(31,830,l),
(17,752,o),
(51,696,o),
(138,696,cs)
);
}
);
width = 300;
}
);
unicode = 774;
},
{
color = 4;
glyphname = ringcomb;
lastChange = "2024-08-03 20:14:31 +0000";
layers = (
{
anchors = (
{
name = _top;
pos = (124,650);
},
{
name = top;
pos = (158,845);
}
);
layerId = m002;
shapes = (
{
closed = 1;
nodes = (
(100,774,o),
(116,755,o),
(142,755,cs),
(168,755,o),
(190,774,o),
(194,800,cs),
(199,826,o),
(184,845,o),
(158,845,cs),
(132,845,o),
(109,826,o),
(105,800,cs)
);
},
{
closed = 1;
nodes = (
(118,820,o),
(136,835,o),
(156,835,cs),
(176,835,o),
(188,820,o),
(184,800,cs),
(181,780,o),
(164,765,o),
(144,765,cs),
(124,765,o),
(111,780,o),
(115,800,cs)
);
}
);
width = 300;
},
{
anchors = (
{
name = _top;
pos = (131,650);
},
{
name = top;
pos = (170,872);
}
);
layerId = m01;
shapes = (
{
closed = 1;
nodes = (
(62,715,o),
(90,684,o),
(137,684,cs),
(184,684,o),
(223,715,o),
(230,758,cs),
(238,801,o),
(210,832,o),
(163,832,cs),
(116,832,o),
(77,801,o),
(70,758,cs)
);
},
{
closed = 1;
nodes = (
(126,773,o),
(138,783,o),
(155,783,cs),
(170,783,o),
(180,773,o),
(177,758,cs),
(174,743,o),
(162,733,o),
(147,733,cs),
(130,733,o),
(120,743,o),
(123,758,cs)
);
}
);
width = 300;
}
);
unicode = 778;
},
{
color = 4;
glyphname = tildecomb;
lastChange = "2024-08-03 20:14:31 +0000";
layers = (
{
anchors = (
{
name = _top;
pos = (129,650);
},
{
name = top;
pos = (155,799);
}
);
background = {
shapes = (
{
closed = 1;
nodes = (
(200,741,o),
(236,777,o),
(236,828,c),
(226,828,l),
(226,783,o),
(195,751,o),
(150,751,cs),
(105,751,o),
(73,783,o),
(73,828,c),
(63,828,l),
(63,777,o),
(99,741,o),
(150,741,c)
);
}
);
};
layerId = m002;
shapes = (
{
closed = 1;
nodes = (
(68,744,l),
(73,772,o),
(93,789,o),
(119,789,cs),
(153,789,o),
(147,744,o),
(187,744,cs),
(215,744,o),
(236,766,o),
(242,800,c),
(232,800,l),
(227,772,o),
(210,754,o),
(189,754,cs),
(155,754,o),
(161,799,o),
(121,799,cs),
(88,799,o),
(64,778,o),
(58,744,c)
);
}
);
width = 300;
},
{
anchors = (
{
name = _top;
pos = (128,650);
},
{
name = top;
pos = (164,851);
}
);
background = {
shapes = (
{
closed = 1;
nodes = (
(238,716,o),
(280,772,o),
(280,850,c),
(192,850,l),
(192,821,o),
(175,801,o),
(151,801,cs),
(126,801,o),
(108,821,o),
(108,850,c),
(20,850,l),
(20,772,o),
(63,716,o),
(150,716,cs)
);
},
{
closed = 1;
nodes = (
(142,850,o),
(100,794,o),
(100,716,c),
(188,716,l),
(188,745,o),
(205,765,o),
(229,765,cs),
(254,765,o),
(272,745,o),
(272,716,c),
(360,716,l),
(360,794,o),
(317,850,o),
(230,850,cs)
);
}
);
};
layerId = m01;
shapes = (
{
closed = 1;
nodes = (
(36,707,l),
(41,736,o),
(61,757,o),
(84,757,cs),
(134,757,o),
(148,707,o),
(198,707,cs),
(263,707,o),
(287,762,o),
(301,840,c),
(265,840,l),
(260,811,o),
(238,792,o),
(213,792,cs),
(163,792,o),
(139,841,o),
(89,841,cs),
(32,841,o),
(13,785,o),
(-1,707,c)
);
}
);
width = 300;
}
);
unicode = 771;
},
{
color = 4;
glyphname = macroncomb;
lastChange = "2024-08-03 20:14:31 +0000";
layers = (
{
anchors = (
{
name = _top;
pos = (116,650);
},
{
name = top;
pos = (141,791);
}
);
layerId = m002;
shapes = (
{
closed = 1;
nodes = (
(219,781,l),
(221,791,l),
(61,791,l),
(59,781,l)
);
}
);
width = 300;
},
{
anchors = (
{
name = _top;
pos = (127,650);
},
{
name = top;
pos = (162,850);
}
);
layerId = m01;
shapes = (
{
closed = 1;
nodes = (
(269,716,l),
(292,850,l),
(31,850,l),
(8,716,l)
);
}
);
width = 300;
}
);
unicode = 772;
},
{
color = 4;
glyphname = hookabovecomb;
lastChange = "2024-08-03 20:14:31 +0000";
layers = (
{
anchors = (
{
name = _top;
pos = (143,650);
},
{
name = top;
pos = (169,799);
}
);
layerId = m002;
shapes = (
{
closed = 1;
nodes = (
(175,691,o),
(195,720,o),
(193,754,cs),
(189,787,o),
(164,805,o),
(134,797,c),
(135,788,l),
(160,794,o),
(181,779,o),
(183,752,cs),
(187,724,o),
(171,700,o),
(144,693,c),
(146,684,l)
);
}
);
width = 300;
},
{
anchors = (
{
name = _top;
pos = (131,650);
},
{
name = top;
pos = (168,862);
}
);
layerId = m01;
shapes = (
{
closed = 1;
nodes = (
(207,715,o),
(213,770,o),
(179,811,cs),
(149,848,o),
(96,848,o),
(54,812,c),
(87,771,l),
(102,785,o),
(122,785,o),
(133,772,cs),
(147,754,o),
(146,732,o),
(131,718,c),
(164,678,l)
);
}
);
width = 300;
}
);
unicode = 777;
},
{
color = 4;
glyphname = commaturnedabovecomb;
lastChange = "2024-08-03 20:14:31 +0000";
layers = (
{
anchors = (
{
name = _top;
pos = (126,650);
},
{
name = top;
pos = (157,832);
}
);
layerId = m002;
shapes = (
{
closed = 1;
nodes = (
(164,781,l),
(130,781,l),
(124,747,l),
(158,747,l)
);
},
{
closed = 1;
nodes = (
(167,832,l),
(130,781,l),
(150,781,l),
(174,825,l)
);
}
);
width = 300;
},
{
anchors = (
{
name = _top;
pos = (116,650);
},
{
name = top;
pos = (177,998);
}
);
layerId = m01;
shapes = (
{
closed = 1;
nodes = (
(235,850,l),
(68,850,l),
(40,686,l),
(206,686,l)
);
},
{
closed = 1;
nodes = (
(211,998,l),
(68,850,l),
(160,850,l),
(247,967,l)
);
}
);
width = 300;
}
);
unicode = 786;
},
{
color = 4;
glyphname = horncomb;
lastChange = "2024-08-03 20:14:31 +0000";
layers = (
{
anchors = (
{
name = _topright;
pos = (169,650);
},
{
name = topright;
pos = (252,646);
}
);
layerId = m002;
shapes = (
{
closed = 1;
nodes = (
(173,474,o),
(208,507,o),
(216,553,cs),
(232,646,l),
(222,646,l),
(206,553,l),
(199,513,o),
(168,484,o),
(132,484,cs),
(114,484,o),
(90,493,o),
(73,506,c),
(71,493,l),
(91,482,o),
(117,474,o),
(132,474,cs)
);
}
);
width = 300;
},
{
anchors = (
{
name = _topright;
pos = (172,650);
},
{
name = topright;
pos = (316,646);
}
);
layerId = m01;
shapes = (
{
closed = 1;
nodes = (
(219,434,o),
(264,464,o),
(272,513,cs),
(296,646,l),
(205,646,l),
(196,593,l),
(189,551,o),
(168,524,o),
(142,524,cs),
(124,524,o),
(101,532,o),
(84,546,c),
(67,453,l),
(88,441,o),
(124,434,o),
(158,434,cs)
);
}
);
width = 300;
}
);
unicode = 795;
},
{
color = 4;
glyphname = dotbelowcomb;
lastChange = "2024-08-03 20:14:31 +0000";
layers = (
{
anchors = (
{
name = _bottom;
pos = (173,0);
},
{
name = bottom;
pos = (147,-150);
}
);
layerId = m002;
shapes = (
{
closed = 1;
nodes = (
(130,-150,l),
(164,-150,l),
(170,-116,l),
(136,-116,l)
);
}
);
width = 300;
},
{
anchors = (
{
name = _bottom;
pos = (169,0);
},
{
name = bottom;
pos = (125,-250);
}
);
layerId = m01;
shapes = (
{
closed = 1;
nodes = (
(81,-166,l),
(199,-166,l),
(219,-50,l),
(101,-50,l)
);
}
);
width = 300;
}
);
unicode = 803;
},
{
color = 4;
glyphname = commaaccentcomb;
lastChange = "2024-08-03 20:14:31 +0000";
layers = (
{
anchors = (
{
name = _bottom;
pos = (160,0);
},
{
name = bottom;
pos = (140,-114);
}
);
layerId = m002;
shapes = (
{
closed = 1;
nodes = (
(116,-114,l),
(196,-8,l),
(184,0,l),
(104,-106,l)
);
}
);
width = 300;
},
{
anchors = (
{
name = _bottom;
pos = (162,0);
},
{
name = bottom;
pos = (138,-134);
}
);
layerId = m01;
shapes = (
{
closed = 1;
nodes = (
(181,-134,l),
(245,0,l),
(119,0,l),
(55,-134,l)
);
}
);
width = 300;
}
);
unicode = 806;
},
{
color = 4;
glyphname = commaaccentcomb.loclMAH;
lastChange = "2024-08-03 20:14:31 +0000";
layers = (
{
anchors = (
{
name = _bottom;
pos = (177,0);
}
);
layerId = m002;
shapes = (
{
closed = 1;
nodes = (
(134,-150,l),
(168,-150,l),
(174,-116,l),
(140,-116,l)
);
},
{
closed = 1;
nodes = (
(131,-201,l),
(168,-150,l),
(148,-150,l),
(124,-194,l)
);
}
);
width = 300;
},
{
anchors = (
{
name = _bottom;
pos = (178,0);
}
);
layerId = m01;
shapes = (
{
closed = 1;
nodes = (
(90,-168,l),
(208,-168,l),
(229,-51,l),
(110,-51,l)
);
},
{
closed = 1;
nodes = (
(107,-273,l),
(208,-168,l),
(143,-168,l),
(81,-251,l)
);
}
);
width = 300;
}
);
},
{
color = 4;
glyphname = cedillacomb;
lastChange = "2024-08-03 20:14:31 +0000";
layers = (
{
anchors = (
{
name = _bottom;
pos = (179,0);
},
{
name = bottom;
pos = (149,-145);
}
);
layerId = m002;
shapes = (
{
closed = 1;
nodes = (
(142,-83,l),
(199,-8,l),
(187,0,l),
(131,-75,l)
);
},
{
closed = 1;
nodes = (
(121,-140,o),
(137,-147,o),
(149,-147,cs),
(177,-147,o),
(202,-128,o),
(206,-103,cs),
(210,-80,o),
(194,-61,o),
(170,-61,cs),
(159,-61,o),
(143,-67,o),
(134,-76,c),
(142,-83,l),
(150,-77,o),
(161,-73,o),
(168,-73,cs),
(186,-73,o),
(197,-85,o),
(194,-103,cs),
(191,-122,o),
(173,-135,o),
(151,-135,cs),
(141,-135,o),
(128,-130,o),
(120,-124,c),
(113,-132,l)
);
}
);
width = 300;
},
{
anchors = (
{
name = _bottom;
pos = (172,0);
},
{
name = bottom;
pos = (148,-180);
}
);
layerId = m01;
shapes = (
{
closed = 1;
nodes = (
(175,-70,l),
(209,0,l),
(144,0,l),
(110,-70,l)
);
},
{
closed = 1;
nodes = (
(94,-170,o),
(125,-180,o),
(148,-180,cs),
(202,-180,o),
(245,-147,o),
(254,-99,cs),
(261,-55,o),
(234,-22,o),
(188,-22,cs),
(167,-22,o),
(141,-35,o),
(124,-53,c),
(128,-70,l),
(139,-70,o),
(168,-70,o),
(175,-70,cs),
(194,-70,o),
(204,-82,o),
(201,-100,cs),
(198,-119,o),
(181,-132,o),
(159,-132,cs),
(149,-132,o),
(135,-127,o),
(127,-121,c),
(77,-155,l)
);
}
);
width = 300;
}
);
unicode = 807;
},
{
color = 4;
glyphname = ogonekcomb;
lastChange = "2024-08-03 20:14:31 +0000";
layers = (
{
anchors = (
{
name = _ogonek;
pos = (187,0);
}
);
layerId = m002;
shapes = (
{
closed = 1;
nodes = (
(153,-133,o),
(164,-130,o),
(165,-125,cs),
(165,-121,o),
(156,-118,o),
(141,-118,cs),
(116,-118,o),
(101,-102,o),
(104,-80,cs),
(111,-43,o),
(144,-10,o),
(183,0,c),
(169,0,l),
(130,-10,o),
(97,-42,o),
(90,-80,cs),
(85,-111,o),
(105,-133,o),
(138,-133,cs)
);
}
);
width = 300;
},
{
anchors = (
{
name = _ogonek;
pos = (243,0);
}
);
layerId = m01;
shapes = (
{
closed = 1;
nodes = (
(180,-165,o),
(216,-151,o),
(220,-131,cs),
(223,-114,o),
(204,-102,o),
(174,-102,cs),
(143,-102,o),
(125,-90,o),
(127,-74,c),
(131,-54,o),
(164,-24,o),
(208,0,c),
(143,0,l),
(98,-24,o),
(62,-61,o),
(57,-90,cs),
(50,-134,o),
(80,-165,o),
(132,-165,cs)
);
}
);
width = 300;
}
);
unicode = 808;
},
{
color = 4;
glyphname = commaturnedmod;
lastChange = "2024-08-03 20:14:31 +0000";
layers = (
{
layerId = m002;
shapes = (
{
closed = 1;
nodes = (
(184,766,l),
(104,660,l),
(116,652,l),
(196,758,l)
);
}
